G04 #@! TF.GenerationSoftware,KiCad,Pcbnew,(5.1.5)-3*
G04 #@! TF.CreationDate,2020-06-24T14:41:20-07:00*
G04 #@! TF.ProjectId,numpad,6e756d70-6164-42e6-9b69-6361645f7063,rev?*
G04 #@! TF.SameCoordinates,Original*
G04 #@! TF.FileFunction,Soldermask,Bot*
G04 #@! TF.FilePolarity,Negative*
%FSLAX46Y46*%
G04 Gerber Fmt 4.6, Leading zero omitted, Abs format (unit mm)*
G04 Created by KiCad (PCBNEW (5.1.5)-3) date 2020-06-24 14:41:20*
%MOMM*%
%LPD*%
G04 APERTURE LIST*
%ADD10C,0.100000*%
G04 APERTURE END LIST*
D10*
G36*
X176969487Y-149878996D02*
G01*
X177206253Y-149977068D01*
X177206255Y-149977069D01*
X177419339Y-150119447D01*
X177600553Y-150300661D01*
X177742932Y-150513747D01*
X177841004Y-150750513D01*
X177891000Y-151001861D01*
X177891000Y-151258139D01*
X177841004Y-151509487D01*
X177742932Y-151746253D01*
X177742931Y-151746255D01*
X177600553Y-151959339D01*
X177419339Y-152140553D01*
X177206255Y-152282931D01*
X177206254Y-152282932D01*
X177206253Y-152282932D01*
X176969487Y-152381004D01*
X176718139Y-152431000D01*
X176461861Y-152431000D01*
X176210513Y-152381004D01*
X175973747Y-152282932D01*
X175973746Y-152282932D01*
X175973745Y-152282931D01*
X175760661Y-152140553D01*
X175579447Y-151959339D01*
X175437069Y-151746255D01*
X175437068Y-151746253D01*
X175338996Y-151509487D01*
X175289000Y-151258139D01*
X175289000Y-151001861D01*
X175338996Y-150750513D01*
X175437068Y-150513747D01*
X175579447Y-150300661D01*
X175760661Y-150119447D01*
X175973745Y-149977069D01*
X175973747Y-149977068D01*
X176210513Y-149878996D01*
X176461861Y-149829000D01*
X176718139Y-149829000D01*
X176969487Y-149878996D01*
G37*
G36*
X103884487Y-149878996D02*
G01*
X104121253Y-149977068D01*
X104121255Y-149977069D01*
X104334339Y-150119447D01*
X104515553Y-150300661D01*
X104657932Y-150513747D01*
X104756004Y-150750513D01*
X104806000Y-151001861D01*
X104806000Y-151258139D01*
X104756004Y-151509487D01*
X104657932Y-151746253D01*
X104657931Y-151746255D01*
X104515553Y-151959339D01*
X104334339Y-152140553D01*
X104121255Y-152282931D01*
X104121254Y-152282932D01*
X104121253Y-152282932D01*
X103884487Y-152381004D01*
X103633139Y-152431000D01*
X103376861Y-152431000D01*
X103125513Y-152381004D01*
X102888747Y-152282932D01*
X102888746Y-152282932D01*
X102888745Y-152282931D01*
X102675661Y-152140553D01*
X102494447Y-151959339D01*
X102352069Y-151746255D01*
X102352068Y-151746253D01*
X102253996Y-151509487D01*
X102204000Y-151258139D01*
X102204000Y-151001861D01*
X102253996Y-150750513D01*
X102352068Y-150513747D01*
X102494447Y-150300661D01*
X102675661Y-150119447D01*
X102888745Y-149977069D01*
X102888747Y-149977068D01*
X103125513Y-149878996D01*
X103376861Y-149829000D01*
X103633139Y-149829000D01*
X103884487Y-149878996D01*
G37*
G36*
X153960728Y-139056703D02*
G01*
X154115600Y-139120853D01*
X154254981Y-139213985D01*
X154373515Y-139332519D01*
X154466647Y-139471900D01*
X154530797Y-139626772D01*
X154563500Y-139791184D01*
X154563500Y-139958816D01*
X154530797Y-140123228D01*
X154466647Y-140278100D01*
X154373515Y-140417481D01*
X154254981Y-140536015D01*
X154115600Y-140629147D01*
X153960728Y-140693297D01*
X153796316Y-140726000D01*
X153628684Y-140726000D01*
X153464272Y-140693297D01*
X153309400Y-140629147D01*
X153170019Y-140536015D01*
X153051485Y-140417481D01*
X152958353Y-140278100D01*
X152894203Y-140123228D01*
X152861500Y-139958816D01*
X152861500Y-139791184D01*
X152894203Y-139626772D01*
X152958353Y-139471900D01*
X153051485Y-139332519D01*
X153170019Y-139213985D01*
X153309400Y-139120853D01*
X153464272Y-139056703D01*
X153628684Y-139024000D01*
X153796316Y-139024000D01*
X153960728Y-139056703D01*
G37*
G36*
X146763500Y-140726000D02*
G01*
X145061500Y-140726000D01*
X145061500Y-139024000D01*
X146763500Y-139024000D01*
X146763500Y-140726000D01*
G37*
G36*
X125366978Y-139056703D02*
G01*
X125521850Y-139120853D01*
X125661231Y-139213985D01*
X125779765Y-139332519D01*
X125872897Y-139471900D01*
X125937047Y-139626772D01*
X125969750Y-139791184D01*
X125969750Y-139958816D01*
X125937047Y-140123228D01*
X125872897Y-140278100D01*
X125779765Y-140417481D01*
X125661231Y-140536015D01*
X125521850Y-140629147D01*
X125366978Y-140693297D01*
X125202566Y-140726000D01*
X125034934Y-140726000D01*
X124870522Y-140693297D01*
X124715650Y-140629147D01*
X124576269Y-140536015D01*
X124457735Y-140417481D01*
X124364603Y-140278100D01*
X124300453Y-140123228D01*
X124267750Y-139958816D01*
X124267750Y-139791184D01*
X124300453Y-139626772D01*
X124364603Y-139471900D01*
X124457735Y-139332519D01*
X124576269Y-139213985D01*
X124715650Y-139120853D01*
X124870522Y-139056703D01*
X125034934Y-139024000D01*
X125202566Y-139024000D01*
X125366978Y-139056703D01*
G37*
G36*
X118169750Y-140726000D02*
G01*
X116467750Y-140726000D01*
X116467750Y-139024000D01*
X118169750Y-139024000D01*
X118169750Y-140726000D01*
G37*
G36*
X148888500Y-140526000D02*
G01*
X147586500Y-140526000D01*
X147586500Y-139224000D01*
X148888500Y-139224000D01*
X148888500Y-140526000D01*
G37*
G36*
X123444750Y-140526000D02*
G01*
X122142750Y-140526000D01*
X122142750Y-139224000D01*
X123444750Y-139224000D01*
X123444750Y-140526000D01*
G37*
G36*
X120294750Y-140526000D02*
G01*
X118992750Y-140526000D01*
X118992750Y-139224000D01*
X120294750Y-139224000D01*
X120294750Y-140526000D01*
G37*
G36*
X152038500Y-140526000D02*
G01*
X150736500Y-140526000D01*
X150736500Y-139224000D01*
X152038500Y-139224000D01*
X152038500Y-140526000D01*
G37*
G36*
X121487074Y-133596184D02*
G01*
X121705074Y-133686483D01*
X121859223Y-133750333D01*
X122194148Y-133974123D01*
X122478977Y-134258952D01*
X122702767Y-134593877D01*
X122766617Y-134748026D01*
X122856916Y-134966026D01*
X122935500Y-135361094D01*
X122935500Y-135763906D01*
X122856916Y-136158974D01*
X122772922Y-136361753D01*
X122702767Y-136531123D01*
X122478977Y-136866048D01*
X122194148Y-137150877D01*
X121859223Y-137374667D01*
X121705074Y-137438517D01*
X121487074Y-137528816D01*
X121092006Y-137607400D01*
X120689194Y-137607400D01*
X120294126Y-137528816D01*
X120076126Y-137438517D01*
X119921977Y-137374667D01*
X119587052Y-137150877D01*
X119302223Y-136866048D01*
X119078433Y-136531123D01*
X119008278Y-136361753D01*
X118924284Y-136158974D01*
X118845700Y-135763906D01*
X118845700Y-135361094D01*
X118924284Y-134966026D01*
X119014583Y-134748026D01*
X119078433Y-134593877D01*
X119302223Y-134258952D01*
X119587052Y-133974123D01*
X119921977Y-133750333D01*
X120076126Y-133686483D01*
X120294126Y-133596184D01*
X120689194Y-133517600D01*
X121092006Y-133517600D01*
X121487074Y-133596184D01*
G37*
G36*
X150033974Y-133596184D02*
G01*
X150251974Y-133686483D01*
X150406123Y-133750333D01*
X150741048Y-133974123D01*
X151025877Y-134258952D01*
X151249667Y-134593877D01*
X151313517Y-134748026D01*
X151403816Y-134966026D01*
X151482400Y-135361094D01*
X151482400Y-135763906D01*
X151403816Y-136158974D01*
X151319822Y-136361753D01*
X151249667Y-136531123D01*
X151025877Y-136866048D01*
X150741048Y-137150877D01*
X150406123Y-137374667D01*
X150251974Y-137438517D01*
X150033974Y-137528816D01*
X149638906Y-137607400D01*
X149236094Y-137607400D01*
X148841026Y-137528816D01*
X148623026Y-137438517D01*
X148468877Y-137374667D01*
X148133952Y-137150877D01*
X147849123Y-136866048D01*
X147625333Y-136531123D01*
X147555178Y-136361753D01*
X147471184Y-136158974D01*
X147392600Y-135763906D01*
X147392600Y-135361094D01*
X147471184Y-134966026D01*
X147561483Y-134748026D01*
X147625333Y-134593877D01*
X147849123Y-134258952D01*
X148133952Y-133974123D01*
X148468877Y-133750333D01*
X148623026Y-133686483D01*
X148841026Y-133596184D01*
X149236094Y-133517600D01*
X149638906Y-133517600D01*
X150033974Y-133596184D01*
G37*
G36*
X144533452Y-134677929D02*
G01*
X144620575Y-134695259D01*
X144729998Y-134740584D01*
X144784711Y-134763247D01*
X144931433Y-134861283D01*
X144932428Y-134861948D01*
X145058052Y-134987572D01*
X145058054Y-134987575D01*
X145156753Y-135135289D01*
X145156753Y-135135290D01*
X145224741Y-135299425D01*
X145259400Y-135473671D01*
X145259400Y-135651329D01*
X145224741Y-135825575D01*
X145179416Y-135934998D01*
X145156753Y-135989711D01*
X145058717Y-136136433D01*
X145058052Y-136137428D01*
X144932428Y-136263052D01*
X144932425Y-136263054D01*
X144784711Y-136361753D01*
X144729998Y-136384416D01*
X144620575Y-136429741D01*
X144533452Y-136447070D01*
X144446331Y-136464400D01*
X144268669Y-136464400D01*
X144181548Y-136447070D01*
X144094425Y-136429741D01*
X143985002Y-136384416D01*
X143930289Y-136361753D01*
X143782575Y-136263054D01*
X143782572Y-136263052D01*
X143656948Y-136137428D01*
X143656283Y-136136433D01*
X143558247Y-135989711D01*
X143535584Y-135934998D01*
X143490259Y-135825575D01*
X143455600Y-135651329D01*
X143455600Y-135473671D01*
X143490259Y-135299425D01*
X143558247Y-135135290D01*
X143558247Y-135135289D01*
X143656946Y-134987575D01*
X143656948Y-134987572D01*
X143782572Y-134861948D01*
X143783567Y-134861283D01*
X143930289Y-134763247D01*
X143985002Y-134740584D01*
X144094425Y-134695259D01*
X144181548Y-134677929D01*
X144268669Y-134660600D01*
X144446331Y-134660600D01*
X144533452Y-134677929D01*
G37*
G36*
X154693452Y-134677929D02*
G01*
X154780575Y-134695259D01*
X154889998Y-134740584D01*
X154944711Y-134763247D01*
X155091433Y-134861283D01*
X155092428Y-134861948D01*
X155218052Y-134987572D01*
X155218054Y-134987575D01*
X155316753Y-135135289D01*
X155316753Y-135135290D01*
X155384741Y-135299425D01*
X155419400Y-135473671D01*
X155419400Y-135651329D01*
X155384741Y-135825575D01*
X155339416Y-135934998D01*
X155316753Y-135989711D01*
X155218717Y-136136433D01*
X155218052Y-136137428D01*
X155092428Y-136263052D01*
X155092425Y-136263054D01*
X154944711Y-136361753D01*
X154889998Y-136384416D01*
X154780575Y-136429741D01*
X154693452Y-136447070D01*
X154606331Y-136464400D01*
X154428669Y-136464400D01*
X154341548Y-136447070D01*
X154254425Y-136429741D01*
X154145002Y-136384416D01*
X154090289Y-136361753D01*
X153942575Y-136263054D01*
X153942572Y-136263052D01*
X153816948Y-136137428D01*
X153816283Y-136136433D01*
X153718247Y-135989711D01*
X153695584Y-135934998D01*
X153650259Y-135825575D01*
X153615600Y-135651329D01*
X153615600Y-135473671D01*
X153650259Y-135299425D01*
X153718247Y-135135290D01*
X153718247Y-135135289D01*
X153816946Y-134987575D01*
X153816948Y-134987572D01*
X153942572Y-134861948D01*
X153943567Y-134861283D01*
X154090289Y-134763247D01*
X154145002Y-134740584D01*
X154254425Y-134695259D01*
X154341548Y-134677929D01*
X154428669Y-134660600D01*
X154606331Y-134660600D01*
X154693452Y-134677929D01*
G37*
G36*
X115986552Y-134677929D02*
G01*
X116073675Y-134695259D01*
X116183098Y-134740584D01*
X116237811Y-134763247D01*
X116384533Y-134861283D01*
X116385528Y-134861948D01*
X116511152Y-134987572D01*
X116511154Y-134987575D01*
X116609853Y-135135289D01*
X116609853Y-135135290D01*
X116677841Y-135299425D01*
X116712500Y-135473671D01*
X116712500Y-135651329D01*
X116677841Y-135825575D01*
X116632516Y-135934998D01*
X116609853Y-135989711D01*
X116511817Y-136136433D01*
X116511152Y-136137428D01*
X116385528Y-136263052D01*
X116385525Y-136263054D01*
X116237811Y-136361753D01*
X116183098Y-136384416D01*
X116073675Y-136429741D01*
X115986552Y-136447070D01*
X115899431Y-136464400D01*
X115721769Y-136464400D01*
X115634648Y-136447070D01*
X115547525Y-136429741D01*
X115438102Y-136384416D01*
X115383389Y-136361753D01*
X115235675Y-136263054D01*
X115235672Y-136263052D01*
X115110048Y-136137428D01*
X115109383Y-136136433D01*
X115011347Y-135989711D01*
X114988684Y-135934998D01*
X114943359Y-135825575D01*
X114908700Y-135651329D01*
X114908700Y-135473671D01*
X114943359Y-135299425D01*
X115011347Y-135135290D01*
X115011347Y-135135289D01*
X115110046Y-134987575D01*
X115110048Y-134987572D01*
X115235672Y-134861948D01*
X115236667Y-134861283D01*
X115383389Y-134763247D01*
X115438102Y-134740584D01*
X115547525Y-134695259D01*
X115634648Y-134677929D01*
X115721769Y-134660600D01*
X115899431Y-134660600D01*
X115986552Y-134677929D01*
G37*
G36*
X126146552Y-134677929D02*
G01*
X126233675Y-134695259D01*
X126343098Y-134740584D01*
X126397811Y-134763247D01*
X126544533Y-134861283D01*
X126545528Y-134861948D01*
X126671152Y-134987572D01*
X126671154Y-134987575D01*
X126769853Y-135135289D01*
X126769853Y-135135290D01*
X126837841Y-135299425D01*
X126872500Y-135473671D01*
X126872500Y-135651329D01*
X126837841Y-135825575D01*
X126792516Y-135934998D01*
X126769853Y-135989711D01*
X126671817Y-136136433D01*
X126671152Y-136137428D01*
X126545528Y-136263052D01*
X126545525Y-136263054D01*
X126397811Y-136361753D01*
X126343098Y-136384416D01*
X126233675Y-136429741D01*
X126146552Y-136447070D01*
X126059431Y-136464400D01*
X125881769Y-136464400D01*
X125794648Y-136447070D01*
X125707525Y-136429741D01*
X125598102Y-136384416D01*
X125543389Y-136361753D01*
X125395675Y-136263054D01*
X125395672Y-136263052D01*
X125270048Y-136137428D01*
X125269383Y-136136433D01*
X125171347Y-135989711D01*
X125148684Y-135934998D01*
X125103359Y-135825575D01*
X125068700Y-135651329D01*
X125068700Y-135473671D01*
X125103359Y-135299425D01*
X125171347Y-135135290D01*
X125171347Y-135135289D01*
X125270046Y-134987575D01*
X125270048Y-134987572D01*
X125395672Y-134861948D01*
X125396667Y-134861283D01*
X125543389Y-134763247D01*
X125598102Y-134740584D01*
X125707525Y-134695259D01*
X125794648Y-134677929D01*
X125881769Y-134660600D01*
X126059431Y-134660600D01*
X126146552Y-134677929D01*
G37*
G36*
X146928794Y-129799736D02*
G01*
X147013971Y-129806253D01*
X147053753Y-129817379D01*
X147260775Y-129875277D01*
X147489370Y-129991125D01*
X147690972Y-130149343D01*
X147857834Y-130343853D01*
X147983543Y-130567178D01*
X148032125Y-130715597D01*
X148063268Y-130810739D01*
X148090560Y-131037099D01*
X148093944Y-131065167D01*
X148074395Y-131320695D01*
X148051241Y-131403483D01*
X148005370Y-131567500D01*
X147967059Y-131643096D01*
X147918550Y-131738816D01*
X146640954Y-133744238D01*
X146598957Y-133797750D01*
X146522380Y-133895326D01*
X146327873Y-134062186D01*
X146191255Y-134139087D01*
X146104545Y-134187896D01*
X145887468Y-134258952D01*
X145860984Y-134267621D01*
X145606557Y-134298297D01*
X145606556Y-134298297D01*
X145351029Y-134278748D01*
X145104225Y-134209723D01*
X145104224Y-134209723D01*
X145104222Y-134209722D01*
X144875635Y-134093878D01*
X144875633Y-134093877D01*
X144875630Y-134093875D01*
X144674028Y-133935657D01*
X144674024Y-133935654D01*
X144507167Y-133741150D01*
X144381458Y-133517823D01*
X144381457Y-133517822D01*
X144301733Y-133274264D01*
X144301732Y-133274261D01*
X144271056Y-133019834D01*
X144271056Y-133019833D01*
X144290605Y-132764306D01*
X144359630Y-132517502D01*
X144359630Y-132517501D01*
X144440270Y-132358380D01*
X144446450Y-132346185D01*
X145724045Y-130340762D01*
X145842619Y-130189675D01*
X145986552Y-130066201D01*
X146037130Y-130022812D01*
X146260448Y-129897106D01*
X146260454Y-129897104D01*
X146504011Y-129817380D01*
X146504012Y-129817380D01*
X146504015Y-129817379D01*
X146758441Y-129786703D01*
X146758443Y-129786703D01*
X146928794Y-129799736D01*
G37*
G36*
X118381894Y-129799736D02*
G01*
X118467071Y-129806253D01*
X118506853Y-129817379D01*
X118713875Y-129875277D01*
X118942470Y-129991125D01*
X119144072Y-130149343D01*
X119310934Y-130343853D01*
X119436643Y-130567178D01*
X119485225Y-130715597D01*
X119516368Y-130810739D01*
X119543660Y-131037099D01*
X119547044Y-131065167D01*
X119527495Y-131320695D01*
X119504341Y-131403483D01*
X119458470Y-131567500D01*
X119420159Y-131643096D01*
X119371650Y-131738816D01*
X118094054Y-133744238D01*
X118052057Y-133797750D01*
X117975480Y-133895326D01*
X117780973Y-134062186D01*
X117644355Y-134139087D01*
X117557645Y-134187896D01*
X117340568Y-134258952D01*
X117314084Y-134267621D01*
X117059657Y-134298297D01*
X117059656Y-134298297D01*
X116804129Y-134278748D01*
X116557325Y-134209723D01*
X116557324Y-134209723D01*
X116557322Y-134209722D01*
X116328735Y-134093878D01*
X116328733Y-134093877D01*
X116328730Y-134093875D01*
X116127128Y-133935657D01*
X116127124Y-133935654D01*
X115960267Y-133741150D01*
X115834558Y-133517823D01*
X115834557Y-133517822D01*
X115754833Y-133274264D01*
X115754832Y-133274261D01*
X115724156Y-133019834D01*
X115724156Y-133019833D01*
X115743705Y-132764306D01*
X115812730Y-132517502D01*
X115812730Y-132517501D01*
X115893370Y-132358380D01*
X115899550Y-132346185D01*
X117177145Y-130340762D01*
X117295719Y-130189675D01*
X117439652Y-130066201D01*
X117490230Y-130022812D01*
X117713548Y-129897106D01*
X117713554Y-129897104D01*
X117957111Y-129817380D01*
X117957112Y-129817380D01*
X117957115Y-129817379D01*
X118211541Y-129786703D01*
X118211543Y-129786703D01*
X118381894Y-129799736D01*
G37*
G36*
X123771979Y-129221313D02*
G01*
X124011591Y-129312213D01*
X124228865Y-129448113D01*
X124415452Y-129623788D01*
X124519661Y-129770019D01*
X124564180Y-129832490D01*
X124669335Y-130066197D01*
X124669336Y-130066201D01*
X124726876Y-130315928D01*
X124732658Y-130507894D01*
X124732657Y-130507902D01*
X124684516Y-131214071D01*
X124652735Y-131403483D01*
X124561835Y-131643095D01*
X124425935Y-131860369D01*
X124250260Y-132046956D01*
X124093998Y-132158313D01*
X124041558Y-132195684D01*
X123807851Y-132300839D01*
X123807847Y-132300840D01*
X123558121Y-132358380D01*
X123301966Y-132366094D01*
X123301962Y-132366094D01*
X123049221Y-132323687D01*
X122809609Y-132232787D01*
X122592335Y-132096887D01*
X122539303Y-132046956D01*
X122405748Y-131921212D01*
X122275766Y-131738815D01*
X122257020Y-131712510D01*
X122151865Y-131478803D01*
X122094324Y-131229071D01*
X122092349Y-131163500D01*
X122088542Y-131037108D01*
X122136684Y-130330928D01*
X122141250Y-130303713D01*
X122168465Y-130141517D01*
X122259365Y-129901905D01*
X122395265Y-129684631D01*
X122452550Y-129623788D01*
X122570940Y-129498044D01*
X122727202Y-129386687D01*
X122779642Y-129349316D01*
X123013349Y-129244161D01*
X123013353Y-129244160D01*
X123263079Y-129186620D01*
X123519234Y-129178906D01*
X123519238Y-129178906D01*
X123771979Y-129221313D01*
G37*
G36*
X152318879Y-129221313D02*
G01*
X152558491Y-129312213D01*
X152775765Y-129448113D01*
X152962352Y-129623788D01*
X153066561Y-129770019D01*
X153111080Y-129832490D01*
X153216235Y-130066197D01*
X153216236Y-130066201D01*
X153273776Y-130315928D01*
X153279558Y-130507894D01*
X153279557Y-130507902D01*
X153231416Y-131214071D01*
X153199635Y-131403483D01*
X153108735Y-131643095D01*
X152972835Y-131860369D01*
X152797160Y-132046956D01*
X152640898Y-132158313D01*
X152588458Y-132195684D01*
X152354751Y-132300839D01*
X152354747Y-132300840D01*
X152105021Y-132358380D01*
X151848866Y-132366094D01*
X151848862Y-132366094D01*
X151596121Y-132323687D01*
X151356509Y-132232787D01*
X151139235Y-132096887D01*
X151086203Y-132046956D01*
X150952648Y-131921212D01*
X150822666Y-131738815D01*
X150803920Y-131712510D01*
X150698765Y-131478803D01*
X150641224Y-131229071D01*
X150639249Y-131163500D01*
X150635442Y-131037108D01*
X150683584Y-130330928D01*
X150688150Y-130303713D01*
X150715365Y-130141517D01*
X150806265Y-129901905D01*
X150942165Y-129684631D01*
X150999450Y-129623788D01*
X151117840Y-129498044D01*
X151274102Y-129386687D01*
X151326542Y-129349316D01*
X151560249Y-129244161D01*
X151560253Y-129244160D01*
X151809979Y-129186620D01*
X152066134Y-129178906D01*
X152066138Y-129178906D01*
X152318879Y-129221313D01*
G37*
G36*
X172916978Y-129494203D02*
G01*
X173071850Y-129558353D01*
X173211231Y-129651485D01*
X173329765Y-129770019D01*
X173422897Y-129909400D01*
X173487047Y-130064272D01*
X173519750Y-130228684D01*
X173519750Y-130396316D01*
X173487047Y-130560728D01*
X173422897Y-130715600D01*
X173329765Y-130854981D01*
X173211231Y-130973515D01*
X173071850Y-131066647D01*
X172916978Y-131130797D01*
X172752566Y-131163500D01*
X172584934Y-131163500D01*
X172420522Y-131130797D01*
X172265650Y-131066647D01*
X172126269Y-130973515D01*
X172007735Y-130854981D01*
X171914603Y-130715600D01*
X171850453Y-130560728D01*
X171817750Y-130396316D01*
X171817750Y-130228684D01*
X171850453Y-130064272D01*
X171914603Y-129909400D01*
X172007735Y-129770019D01*
X172126269Y-129651485D01*
X172265650Y-129558353D01*
X172420522Y-129494203D01*
X172584934Y-129461500D01*
X172752566Y-129461500D01*
X172916978Y-129494203D01*
G37*
G36*
X165719750Y-131163500D02*
G01*
X164017750Y-131163500D01*
X164017750Y-129461500D01*
X165719750Y-129461500D01*
X165719750Y-131163500D01*
G37*
G36*
X170994750Y-130963500D02*
G01*
X169692750Y-130963500D01*
X169692750Y-129661500D01*
X170994750Y-129661500D01*
X170994750Y-130963500D01*
G37*
G36*
X167844750Y-130963500D02*
G01*
X166542750Y-130963500D01*
X166542750Y-129661500D01*
X167844750Y-129661500D01*
X167844750Y-130963500D01*
G37*
G36*
X169047724Y-124068884D02*
G01*
X169265724Y-124159183D01*
X169419873Y-124223033D01*
X169754798Y-124446823D01*
X170039627Y-124731652D01*
X170263417Y-125066577D01*
X170327267Y-125220726D01*
X170417566Y-125438726D01*
X170496150Y-125833794D01*
X170496150Y-126236606D01*
X170417566Y-126631674D01*
X170333572Y-126834453D01*
X170263417Y-127003823D01*
X170039627Y-127338748D01*
X169754798Y-127623577D01*
X169419873Y-127847367D01*
X169265724Y-127911217D01*
X169047724Y-128001516D01*
X168652656Y-128080100D01*
X168249844Y-128080100D01*
X167854776Y-128001516D01*
X167636776Y-127911217D01*
X167482627Y-127847367D01*
X167147702Y-127623577D01*
X166862873Y-127338748D01*
X166639083Y-127003823D01*
X166568928Y-126834453D01*
X166484934Y-126631674D01*
X166406350Y-126236606D01*
X166406350Y-125833794D01*
X166484934Y-125438726D01*
X166575233Y-125220726D01*
X166639083Y-125066577D01*
X166862873Y-124731652D01*
X167147702Y-124446823D01*
X167482627Y-124223033D01*
X167636776Y-124159183D01*
X167854776Y-124068884D01*
X168249844Y-123990300D01*
X168652656Y-123990300D01*
X169047724Y-124068884D01*
G37*
G36*
X163547202Y-125150629D02*
G01*
X163634325Y-125167959D01*
X163743748Y-125213284D01*
X163798461Y-125235947D01*
X163945183Y-125333983D01*
X163946178Y-125334648D01*
X164071802Y-125460272D01*
X164071804Y-125460275D01*
X164170503Y-125607989D01*
X164170503Y-125607990D01*
X164238491Y-125772125D01*
X164273150Y-125946371D01*
X164273150Y-126124029D01*
X164238491Y-126298275D01*
X164193166Y-126407698D01*
X164170503Y-126462411D01*
X164072467Y-126609133D01*
X164071802Y-126610128D01*
X163946178Y-126735752D01*
X163946175Y-126735754D01*
X163798461Y-126834453D01*
X163743748Y-126857116D01*
X163634325Y-126902441D01*
X163547202Y-126919770D01*
X163460081Y-126937100D01*
X163282419Y-126937100D01*
X163195298Y-126919770D01*
X163108175Y-126902441D01*
X162998752Y-126857116D01*
X162944039Y-126834453D01*
X162796325Y-126735754D01*
X162796322Y-126735752D01*
X162670698Y-126610128D01*
X162670033Y-126609133D01*
X162571997Y-126462411D01*
X162549334Y-126407698D01*
X162504009Y-126298275D01*
X162469350Y-126124029D01*
X162469350Y-125946371D01*
X162504009Y-125772125D01*
X162571997Y-125607990D01*
X162571997Y-125607989D01*
X162670696Y-125460275D01*
X162670698Y-125460272D01*
X162796322Y-125334648D01*
X162797317Y-125333983D01*
X162944039Y-125235947D01*
X162998752Y-125213284D01*
X163108175Y-125167959D01*
X163195298Y-125150629D01*
X163282419Y-125133300D01*
X163460081Y-125133300D01*
X163547202Y-125150629D01*
G37*
G36*
X173707202Y-125150629D02*
G01*
X173794325Y-125167959D01*
X173903748Y-125213284D01*
X173958461Y-125235947D01*
X174105183Y-125333983D01*
X174106178Y-125334648D01*
X174231802Y-125460272D01*
X174231804Y-125460275D01*
X174330503Y-125607989D01*
X174330503Y-125607990D01*
X174398491Y-125772125D01*
X174433150Y-125946371D01*
X174433150Y-126124029D01*
X174398491Y-126298275D01*
X174353166Y-126407698D01*
X174330503Y-126462411D01*
X174232467Y-126609133D01*
X174231802Y-126610128D01*
X174106178Y-126735752D01*
X174106175Y-126735754D01*
X173958461Y-126834453D01*
X173903748Y-126857116D01*
X173794325Y-126902441D01*
X173707202Y-126919770D01*
X173620081Y-126937100D01*
X173442419Y-126937100D01*
X173355298Y-126919770D01*
X173268175Y-126902441D01*
X173158752Y-126857116D01*
X173104039Y-126834453D01*
X172956325Y-126735754D01*
X172956322Y-126735752D01*
X172830698Y-126610128D01*
X172830033Y-126609133D01*
X172731997Y-126462411D01*
X172709334Y-126407698D01*
X172664009Y-126298275D01*
X172629350Y-126124029D01*
X172629350Y-125946371D01*
X172664009Y-125772125D01*
X172731997Y-125607990D01*
X172731997Y-125607989D01*
X172830696Y-125460275D01*
X172830698Y-125460272D01*
X172956322Y-125334648D01*
X172957317Y-125333983D01*
X173104039Y-125235947D01*
X173158752Y-125213284D01*
X173268175Y-125167959D01*
X173355298Y-125150629D01*
X173442419Y-125133300D01*
X173620081Y-125133300D01*
X173707202Y-125150629D01*
G37*
G36*
X165942544Y-120272436D02*
G01*
X166027721Y-120278953D01*
X166067503Y-120290079D01*
X166274525Y-120347977D01*
X166503120Y-120463825D01*
X166503122Y-120463826D01*
X166503123Y-120463827D01*
X166598777Y-120538897D01*
X166704722Y-120622043D01*
X166871584Y-120816553D01*
X166997293Y-121039878D01*
X167034353Y-121153097D01*
X167077018Y-121283439D01*
X167104310Y-121509799D01*
X167107694Y-121537867D01*
X167088145Y-121793395D01*
X167064991Y-121876183D01*
X167019120Y-122040200D01*
X166980809Y-122115796D01*
X166932300Y-122211516D01*
X165654704Y-124216938D01*
X165612707Y-124270450D01*
X165536130Y-124368026D01*
X165341623Y-124534886D01*
X165205005Y-124611787D01*
X165118295Y-124660596D01*
X164901218Y-124731652D01*
X164874734Y-124740321D01*
X164620307Y-124770997D01*
X164620306Y-124770997D01*
X164364779Y-124751448D01*
X164117975Y-124682423D01*
X164117974Y-124682423D01*
X164117972Y-124682422D01*
X163889385Y-124566578D01*
X163889383Y-124566577D01*
X163889380Y-124566575D01*
X163687778Y-124408357D01*
X163687774Y-124408354D01*
X163520917Y-124213850D01*
X163395208Y-123990523D01*
X163395207Y-123990522D01*
X163315483Y-123746964D01*
X163315482Y-123746961D01*
X163284806Y-123492534D01*
X163284806Y-123492533D01*
X163304355Y-123237006D01*
X163373380Y-122990202D01*
X163373380Y-122990201D01*
X163454020Y-122831080D01*
X163460200Y-122818885D01*
X164737795Y-120813462D01*
X164856369Y-120662375D01*
X165000302Y-120538901D01*
X165050880Y-120495512D01*
X165274198Y-120369806D01*
X165274204Y-120369804D01*
X165517761Y-120290080D01*
X165517762Y-120290080D01*
X165517765Y-120290079D01*
X165772191Y-120259403D01*
X165772193Y-120259403D01*
X165942544Y-120272436D01*
G37*
G36*
X171332629Y-119694013D02*
G01*
X171572241Y-119784913D01*
X171754641Y-119899000D01*
X171789515Y-119920813D01*
X171976102Y-120096488D01*
X172087459Y-120252750D01*
X172124830Y-120305190D01*
X172229985Y-120538897D01*
X172229986Y-120538901D01*
X172287526Y-120788628D01*
X172293308Y-120980594D01*
X172276705Y-121224128D01*
X172245166Y-121686771D01*
X172213385Y-121876183D01*
X172122485Y-122115795D01*
X171986585Y-122333069D01*
X171810910Y-122519656D01*
X171654648Y-122631013D01*
X171602208Y-122668384D01*
X171368501Y-122773539D01*
X171368497Y-122773540D01*
X171118771Y-122831080D01*
X170862616Y-122838794D01*
X170862612Y-122838794D01*
X170609871Y-122796387D01*
X170370259Y-122705487D01*
X170152985Y-122569587D01*
X170099953Y-122519656D01*
X169966398Y-122393912D01*
X169836416Y-122211515D01*
X169817670Y-122185210D01*
X169712515Y-121951503D01*
X169654974Y-121701771D01*
X169651939Y-121601000D01*
X169649192Y-121509808D01*
X169697334Y-120803628D01*
X169701900Y-120776413D01*
X169729115Y-120614217D01*
X169820015Y-120374605D01*
X169955915Y-120157331D01*
X170013200Y-120096488D01*
X170131590Y-119970744D01*
X170287852Y-119859387D01*
X170340292Y-119822016D01*
X170573999Y-119716861D01*
X170574003Y-119716860D01*
X170823729Y-119659320D01*
X171079884Y-119651606D01*
X171079888Y-119651606D01*
X171332629Y-119694013D01*
G37*
G36*
X127732250Y-121601000D02*
G01*
X126030250Y-121601000D01*
X126030250Y-119899000D01*
X127732250Y-119899000D01*
X127732250Y-121601000D01*
G37*
G36*
X153960728Y-119931703D02*
G01*
X154115600Y-119995853D01*
X154254981Y-120088985D01*
X154373515Y-120207519D01*
X154466647Y-120346900D01*
X154530797Y-120501772D01*
X154563500Y-120666184D01*
X154563500Y-120833816D01*
X154530797Y-120998228D01*
X154466647Y-121153100D01*
X154373515Y-121292481D01*
X154254981Y-121411015D01*
X154115600Y-121504147D01*
X153960728Y-121568297D01*
X153796316Y-121601000D01*
X153628684Y-121601000D01*
X153464272Y-121568297D01*
X153309400Y-121504147D01*
X153170019Y-121411015D01*
X153051485Y-121292481D01*
X152958353Y-121153100D01*
X152894203Y-120998228D01*
X152861500Y-120833816D01*
X152861500Y-120666184D01*
X152894203Y-120501772D01*
X152958353Y-120346900D01*
X153051485Y-120207519D01*
X153170019Y-120088985D01*
X153309400Y-119995853D01*
X153464272Y-119931703D01*
X153628684Y-119899000D01*
X153796316Y-119899000D01*
X153960728Y-119931703D01*
G37*
G36*
X146763500Y-121601000D02*
G01*
X145061500Y-121601000D01*
X145061500Y-119899000D01*
X146763500Y-119899000D01*
X146763500Y-121601000D01*
G37*
G36*
X134929478Y-119931703D02*
G01*
X135084350Y-119995853D01*
X135223731Y-120088985D01*
X135342265Y-120207519D01*
X135435397Y-120346900D01*
X135499547Y-120501772D01*
X135532250Y-120666184D01*
X135532250Y-120833816D01*
X135499547Y-120998228D01*
X135435397Y-121153100D01*
X135342265Y-121292481D01*
X135223731Y-121411015D01*
X135084350Y-121504147D01*
X134929478Y-121568297D01*
X134765066Y-121601000D01*
X134597434Y-121601000D01*
X134433022Y-121568297D01*
X134278150Y-121504147D01*
X134138769Y-121411015D01*
X134020235Y-121292481D01*
X133927103Y-121153100D01*
X133862953Y-120998228D01*
X133830250Y-120833816D01*
X133830250Y-120666184D01*
X133862953Y-120501772D01*
X133927103Y-120346900D01*
X134020235Y-120207519D01*
X134138769Y-120088985D01*
X134278150Y-119995853D01*
X134433022Y-119931703D01*
X134597434Y-119899000D01*
X134765066Y-119899000D01*
X134929478Y-119931703D01*
G37*
G36*
X115898228Y-119931703D02*
G01*
X116053100Y-119995853D01*
X116192481Y-120088985D01*
X116311015Y-120207519D01*
X116404147Y-120346900D01*
X116468297Y-120501772D01*
X116501000Y-120666184D01*
X116501000Y-120833816D01*
X116468297Y-120998228D01*
X116404147Y-121153100D01*
X116311015Y-121292481D01*
X116192481Y-121411015D01*
X116053100Y-121504147D01*
X115898228Y-121568297D01*
X115733816Y-121601000D01*
X115566184Y-121601000D01*
X115401772Y-121568297D01*
X115246900Y-121504147D01*
X115107519Y-121411015D01*
X114988985Y-121292481D01*
X114895853Y-121153100D01*
X114831703Y-120998228D01*
X114799000Y-120833816D01*
X114799000Y-120666184D01*
X114831703Y-120501772D01*
X114895853Y-120346900D01*
X114988985Y-120207519D01*
X115107519Y-120088985D01*
X115246900Y-119995853D01*
X115401772Y-119931703D01*
X115566184Y-119899000D01*
X115733816Y-119899000D01*
X115898228Y-119931703D01*
G37*
G36*
X108701000Y-121601000D02*
G01*
X106999000Y-121601000D01*
X106999000Y-119899000D01*
X108701000Y-119899000D01*
X108701000Y-121601000D01*
G37*
G36*
X133007250Y-121401000D02*
G01*
X131705250Y-121401000D01*
X131705250Y-120099000D01*
X133007250Y-120099000D01*
X133007250Y-121401000D01*
G37*
G36*
X148888500Y-121401000D02*
G01*
X147586500Y-121401000D01*
X147586500Y-120099000D01*
X148888500Y-120099000D01*
X148888500Y-121401000D01*
G37*
G36*
X129857250Y-121401000D02*
G01*
X128555250Y-121401000D01*
X128555250Y-120099000D01*
X129857250Y-120099000D01*
X129857250Y-121401000D01*
G37*
G36*
X113976000Y-121401000D02*
G01*
X112674000Y-121401000D01*
X112674000Y-120099000D01*
X113976000Y-120099000D01*
X113976000Y-121401000D01*
G37*
G36*
X110826000Y-121401000D02*
G01*
X109524000Y-121401000D01*
X109524000Y-120099000D01*
X110826000Y-120099000D01*
X110826000Y-121401000D01*
G37*
G36*
X152038500Y-121401000D02*
G01*
X150736500Y-121401000D01*
X150736500Y-120099000D01*
X152038500Y-120099000D01*
X152038500Y-121401000D01*
G37*
G36*
X150033974Y-114541495D02*
G01*
X150251974Y-114631794D01*
X150406123Y-114695644D01*
X150741048Y-114919434D01*
X151025877Y-115204263D01*
X151249667Y-115539188D01*
X151313517Y-115693337D01*
X151403816Y-115911337D01*
X151482400Y-116306405D01*
X151482400Y-116709217D01*
X151403816Y-117104285D01*
X151319822Y-117307064D01*
X151249667Y-117476434D01*
X151025877Y-117811359D01*
X150741048Y-118096188D01*
X150406123Y-118319978D01*
X150251974Y-118383828D01*
X150033974Y-118474127D01*
X149638906Y-118552711D01*
X149236094Y-118552711D01*
X148841026Y-118474127D01*
X148623026Y-118383828D01*
X148468877Y-118319978D01*
X148133952Y-118096188D01*
X147849123Y-117811359D01*
X147625333Y-117476434D01*
X147555178Y-117307064D01*
X147471184Y-117104285D01*
X147392600Y-116709217D01*
X147392600Y-116306405D01*
X147471184Y-115911337D01*
X147561483Y-115693337D01*
X147625333Y-115539188D01*
X147849123Y-115204263D01*
X148133952Y-114919434D01*
X148468877Y-114695644D01*
X148623026Y-114631794D01*
X148841026Y-114541495D01*
X149236094Y-114462911D01*
X149638906Y-114462911D01*
X150033974Y-114541495D01*
G37*
G36*
X131002724Y-114541495D02*
G01*
X131220724Y-114631794D01*
X131374873Y-114695644D01*
X131709798Y-114919434D01*
X131994627Y-115204263D01*
X132218417Y-115539188D01*
X132282267Y-115693337D01*
X132372566Y-115911337D01*
X132451150Y-116306405D01*
X132451150Y-116709217D01*
X132372566Y-117104285D01*
X132288572Y-117307064D01*
X132218417Y-117476434D01*
X131994627Y-117811359D01*
X131709798Y-118096188D01*
X131374873Y-118319978D01*
X131220724Y-118383828D01*
X131002724Y-118474127D01*
X130607656Y-118552711D01*
X130204844Y-118552711D01*
X129809776Y-118474127D01*
X129591776Y-118383828D01*
X129437627Y-118319978D01*
X129102702Y-118096188D01*
X128817873Y-117811359D01*
X128594083Y-117476434D01*
X128523928Y-117307064D01*
X128439934Y-117104285D01*
X128361350Y-116709217D01*
X128361350Y-116306405D01*
X128439934Y-115911337D01*
X128530233Y-115693337D01*
X128594083Y-115539188D01*
X128817873Y-115204263D01*
X129102702Y-114919434D01*
X129437627Y-114695644D01*
X129591776Y-114631794D01*
X129809776Y-114541495D01*
X130204844Y-114462911D01*
X130607656Y-114462911D01*
X131002724Y-114541495D01*
G37*
G36*
X111971474Y-114541495D02*
G01*
X112189474Y-114631794D01*
X112343623Y-114695644D01*
X112678548Y-114919434D01*
X112963377Y-115204263D01*
X113187167Y-115539188D01*
X113251017Y-115693337D01*
X113341316Y-115911337D01*
X113419900Y-116306405D01*
X113419900Y-116709217D01*
X113341316Y-117104285D01*
X113257322Y-117307064D01*
X113187167Y-117476434D01*
X112963377Y-117811359D01*
X112678548Y-118096188D01*
X112343623Y-118319978D01*
X112189474Y-118383828D01*
X111971474Y-118474127D01*
X111576406Y-118552711D01*
X111173594Y-118552711D01*
X110778526Y-118474127D01*
X110560526Y-118383828D01*
X110406377Y-118319978D01*
X110071452Y-118096188D01*
X109786623Y-117811359D01*
X109562833Y-117476434D01*
X109492678Y-117307064D01*
X109408684Y-117104285D01*
X109330100Y-116709217D01*
X109330100Y-116306405D01*
X109408684Y-115911337D01*
X109498983Y-115693337D01*
X109562833Y-115539188D01*
X109786623Y-115204263D01*
X110071452Y-114919434D01*
X110406377Y-114695644D01*
X110560526Y-114631794D01*
X110778526Y-114541495D01*
X111173594Y-114462911D01*
X111576406Y-114462911D01*
X111971474Y-114541495D01*
G37*
G36*
X154693452Y-115623240D02*
G01*
X154780575Y-115640570D01*
X154889998Y-115685895D01*
X154944711Y-115708558D01*
X155091433Y-115806594D01*
X155092428Y-115807259D01*
X155218052Y-115932883D01*
X155218054Y-115932886D01*
X155316753Y-116080600D01*
X155316753Y-116080601D01*
X155384741Y-116244736D01*
X155419400Y-116418982D01*
X155419400Y-116596640D01*
X155384741Y-116770886D01*
X155339416Y-116880309D01*
X155316753Y-116935022D01*
X155218717Y-117081744D01*
X155218052Y-117082739D01*
X155092428Y-117208363D01*
X155092425Y-117208365D01*
X154944711Y-117307064D01*
X154889998Y-117329727D01*
X154780575Y-117375052D01*
X154693452Y-117392381D01*
X154606331Y-117409711D01*
X154428669Y-117409711D01*
X154341548Y-117392381D01*
X154254425Y-117375052D01*
X154145002Y-117329727D01*
X154090289Y-117307064D01*
X153942575Y-117208365D01*
X153942572Y-117208363D01*
X153816948Y-117082739D01*
X153816283Y-117081744D01*
X153718247Y-116935022D01*
X153695584Y-116880309D01*
X153650259Y-116770886D01*
X153615600Y-116596640D01*
X153615600Y-116418982D01*
X153650259Y-116244736D01*
X153718247Y-116080601D01*
X153718247Y-116080600D01*
X153816946Y-115932886D01*
X153816948Y-115932883D01*
X153942572Y-115807259D01*
X153943567Y-115806594D01*
X154090289Y-115708558D01*
X154145002Y-115685895D01*
X154254425Y-115640570D01*
X154341548Y-115623240D01*
X154428669Y-115605911D01*
X154606331Y-115605911D01*
X154693452Y-115623240D01*
G37*
G36*
X144533452Y-115623240D02*
G01*
X144620575Y-115640570D01*
X144729998Y-115685895D01*
X144784711Y-115708558D01*
X144931433Y-115806594D01*
X144932428Y-115807259D01*
X145058052Y-115932883D01*
X145058054Y-115932886D01*
X145156753Y-116080600D01*
X145156753Y-116080601D01*
X145224741Y-116244736D01*
X145259400Y-116418982D01*
X145259400Y-116596640D01*
X145224741Y-116770886D01*
X145179416Y-116880309D01*
X145156753Y-116935022D01*
X145058717Y-117081744D01*
X145058052Y-117082739D01*
X144932428Y-117208363D01*
X144932425Y-117208365D01*
X144784711Y-117307064D01*
X144729998Y-117329727D01*
X144620575Y-117375052D01*
X144533452Y-117392381D01*
X144446331Y-117409711D01*
X144268669Y-117409711D01*
X144181548Y-117392381D01*
X144094425Y-117375052D01*
X143985002Y-117329727D01*
X143930289Y-117307064D01*
X143782575Y-117208365D01*
X143782572Y-117208363D01*
X143656948Y-117082739D01*
X143656283Y-117081744D01*
X143558247Y-116935022D01*
X143535584Y-116880309D01*
X143490259Y-116770886D01*
X143455600Y-116596640D01*
X143455600Y-116418982D01*
X143490259Y-116244736D01*
X143558247Y-116080601D01*
X143558247Y-116080600D01*
X143656946Y-115932886D01*
X143656948Y-115932883D01*
X143782572Y-115807259D01*
X143783567Y-115806594D01*
X143930289Y-115708558D01*
X143985002Y-115685895D01*
X144094425Y-115640570D01*
X144181548Y-115623240D01*
X144268669Y-115605911D01*
X144446331Y-115605911D01*
X144533452Y-115623240D01*
G37*
G36*
X125502202Y-115623240D02*
G01*
X125589325Y-115640570D01*
X125698748Y-115685895D01*
X125753461Y-115708558D01*
X125900183Y-115806594D01*
X125901178Y-115807259D01*
X126026802Y-115932883D01*
X126026804Y-115932886D01*
X126125503Y-116080600D01*
X126125503Y-116080601D01*
X126193491Y-116244736D01*
X126228150Y-116418982D01*
X126228150Y-116596640D01*
X126193491Y-116770886D01*
X126148166Y-116880309D01*
X126125503Y-116935022D01*
X126027467Y-117081744D01*
X126026802Y-117082739D01*
X125901178Y-117208363D01*
X125901175Y-117208365D01*
X125753461Y-117307064D01*
X125698748Y-117329727D01*
X125589325Y-117375052D01*
X125502202Y-117392381D01*
X125415081Y-117409711D01*
X125237419Y-117409711D01*
X125150298Y-117392381D01*
X125063175Y-117375052D01*
X124953752Y-117329727D01*
X124899039Y-117307064D01*
X124751325Y-117208365D01*
X124751322Y-117208363D01*
X124625698Y-117082739D01*
X124625033Y-117081744D01*
X124526997Y-116935022D01*
X124504334Y-116880309D01*
X124459009Y-116770886D01*
X124424350Y-116596640D01*
X124424350Y-116418982D01*
X124459009Y-116244736D01*
X124526997Y-116080601D01*
X124526997Y-116080600D01*
X124625696Y-115932886D01*
X124625698Y-115932883D01*
X124751322Y-115807259D01*
X124752317Y-115806594D01*
X124899039Y-115708558D01*
X124953752Y-115685895D01*
X125063175Y-115640570D01*
X125150298Y-115623240D01*
X125237419Y-115605911D01*
X125415081Y-115605911D01*
X125502202Y-115623240D01*
G37*
G36*
X116630952Y-115623240D02*
G01*
X116718075Y-115640570D01*
X116827498Y-115685895D01*
X116882211Y-115708558D01*
X117028933Y-115806594D01*
X117029928Y-115807259D01*
X117155552Y-115932883D01*
X117155554Y-115932886D01*
X117254253Y-116080600D01*
X117254253Y-116080601D01*
X117322241Y-116244736D01*
X117356900Y-116418982D01*
X117356900Y-116596640D01*
X117322241Y-116770886D01*
X117276916Y-116880309D01*
X117254253Y-116935022D01*
X117156217Y-117081744D01*
X117155552Y-117082739D01*
X117029928Y-117208363D01*
X117029925Y-117208365D01*
X116882211Y-117307064D01*
X116827498Y-117329727D01*
X116718075Y-117375052D01*
X116630952Y-117392381D01*
X116543831Y-117409711D01*
X116366169Y-117409711D01*
X116279048Y-117392381D01*
X116191925Y-117375052D01*
X116082502Y-117329727D01*
X116027789Y-117307064D01*
X115880075Y-117208365D01*
X115880072Y-117208363D01*
X115754448Y-117082739D01*
X115753783Y-117081744D01*
X115655747Y-116935022D01*
X115633084Y-116880309D01*
X115587759Y-116770886D01*
X115553100Y-116596640D01*
X115553100Y-116418982D01*
X115587759Y-116244736D01*
X115655747Y-116080601D01*
X115655747Y-116080600D01*
X115754446Y-115932886D01*
X115754448Y-115932883D01*
X115880072Y-115807259D01*
X115881067Y-115806594D01*
X116027789Y-115708558D01*
X116082502Y-115685895D01*
X116191925Y-115640570D01*
X116279048Y-115623240D01*
X116366169Y-115605911D01*
X116543831Y-115605911D01*
X116630952Y-115623240D01*
G37*
G36*
X106470952Y-115623240D02*
G01*
X106558075Y-115640570D01*
X106667498Y-115685895D01*
X106722211Y-115708558D01*
X106868933Y-115806594D01*
X106869928Y-115807259D01*
X106995552Y-115932883D01*
X106995554Y-115932886D01*
X107094253Y-116080600D01*
X107094253Y-116080601D01*
X107162241Y-116244736D01*
X107196900Y-116418982D01*
X107196900Y-116596640D01*
X107162241Y-116770886D01*
X107116916Y-116880309D01*
X107094253Y-116935022D01*
X106996217Y-117081744D01*
X106995552Y-117082739D01*
X106869928Y-117208363D01*
X106869925Y-117208365D01*
X106722211Y-117307064D01*
X106667498Y-117329727D01*
X106558075Y-117375052D01*
X106470952Y-117392381D01*
X106383831Y-117409711D01*
X106206169Y-117409711D01*
X106119048Y-117392381D01*
X106031925Y-117375052D01*
X105922502Y-117329727D01*
X105867789Y-117307064D01*
X105720075Y-117208365D01*
X105720072Y-117208363D01*
X105594448Y-117082739D01*
X105593783Y-117081744D01*
X105495747Y-116935022D01*
X105473084Y-116880309D01*
X105427759Y-116770886D01*
X105393100Y-116596640D01*
X105393100Y-116418982D01*
X105427759Y-116244736D01*
X105495747Y-116080601D01*
X105495747Y-116080600D01*
X105594446Y-115932886D01*
X105594448Y-115932883D01*
X105720072Y-115807259D01*
X105721067Y-115806594D01*
X105867789Y-115708558D01*
X105922502Y-115685895D01*
X106031925Y-115640570D01*
X106119048Y-115623240D01*
X106206169Y-115605911D01*
X106383831Y-115605911D01*
X106470952Y-115623240D01*
G37*
G36*
X135662202Y-115623240D02*
G01*
X135749325Y-115640570D01*
X135858748Y-115685895D01*
X135913461Y-115708558D01*
X136060183Y-115806594D01*
X136061178Y-115807259D01*
X136186802Y-115932883D01*
X136186804Y-115932886D01*
X136285503Y-116080600D01*
X136285503Y-116080601D01*
X136353491Y-116244736D01*
X136388150Y-116418982D01*
X136388150Y-116596640D01*
X136353491Y-116770886D01*
X136308166Y-116880309D01*
X136285503Y-116935022D01*
X136187467Y-117081744D01*
X136186802Y-117082739D01*
X136061178Y-117208363D01*
X136061175Y-117208365D01*
X135913461Y-117307064D01*
X135858748Y-117329727D01*
X135749325Y-117375052D01*
X135662202Y-117392381D01*
X135575081Y-117409711D01*
X135397419Y-117409711D01*
X135310298Y-117392381D01*
X135223175Y-117375052D01*
X135113752Y-117329727D01*
X135059039Y-117307064D01*
X134911325Y-117208365D01*
X134911322Y-117208363D01*
X134785698Y-117082739D01*
X134785033Y-117081744D01*
X134686997Y-116935022D01*
X134664334Y-116880309D01*
X134619009Y-116770886D01*
X134584350Y-116596640D01*
X134584350Y-116418982D01*
X134619009Y-116244736D01*
X134686997Y-116080601D01*
X134686997Y-116080600D01*
X134785696Y-115932886D01*
X134785698Y-115932883D01*
X134911322Y-115807259D01*
X134912317Y-115806594D01*
X135059039Y-115708558D01*
X135113752Y-115685895D01*
X135223175Y-115640570D01*
X135310298Y-115623240D01*
X135397419Y-115605911D01*
X135575081Y-115605911D01*
X135662202Y-115623240D01*
G37*
G36*
X146928794Y-110745047D02*
G01*
X147013971Y-110751564D01*
X147053753Y-110762690D01*
X147260775Y-110820588D01*
X147489370Y-110936436D01*
X147690972Y-111094654D01*
X147857834Y-111289164D01*
X147983543Y-111512489D01*
X148061858Y-111751742D01*
X148063268Y-111756050D01*
X148090560Y-111982410D01*
X148093944Y-112010478D01*
X148074395Y-112266006D01*
X148051241Y-112348794D01*
X148005370Y-112512811D01*
X147967059Y-112588407D01*
X147918550Y-112684127D01*
X146640954Y-114689549D01*
X146598957Y-114743061D01*
X146522380Y-114840637D01*
X146327873Y-115007497D01*
X146191255Y-115084398D01*
X146104545Y-115133207D01*
X145887468Y-115204263D01*
X145860984Y-115212932D01*
X145606557Y-115243608D01*
X145606556Y-115243608D01*
X145351029Y-115224059D01*
X145104225Y-115155034D01*
X145104224Y-115155034D01*
X145104222Y-115155033D01*
X144875635Y-115039189D01*
X144875633Y-115039188D01*
X144875630Y-115039186D01*
X144674028Y-114880968D01*
X144674024Y-114880965D01*
X144507167Y-114686461D01*
X144381458Y-114463134D01*
X144381457Y-114463133D01*
X144301733Y-114219575D01*
X144301732Y-114219572D01*
X144271056Y-113965145D01*
X144271056Y-113965144D01*
X144290605Y-113709617D01*
X144359630Y-113462813D01*
X144359630Y-113462812D01*
X144440270Y-113303691D01*
X144446450Y-113291496D01*
X145724045Y-111286073D01*
X145842619Y-111134986D01*
X145986552Y-111011512D01*
X146037130Y-110968123D01*
X146260448Y-110842417D01*
X146260454Y-110842415D01*
X146504011Y-110762691D01*
X146504012Y-110762691D01*
X146504015Y-110762690D01*
X146758441Y-110732014D01*
X146758443Y-110732014D01*
X146928794Y-110745047D01*
G37*
G36*
X108866294Y-110745047D02*
G01*
X108951471Y-110751564D01*
X108991253Y-110762690D01*
X109198275Y-110820588D01*
X109426870Y-110936436D01*
X109628472Y-111094654D01*
X109795334Y-111289164D01*
X109921043Y-111512489D01*
X109999358Y-111751742D01*
X110000768Y-111756050D01*
X110028060Y-111982410D01*
X110031444Y-112010478D01*
X110011895Y-112266006D01*
X109988741Y-112348794D01*
X109942870Y-112512811D01*
X109904559Y-112588407D01*
X109856050Y-112684127D01*
X108578454Y-114689549D01*
X108536457Y-114743061D01*
X108459880Y-114840637D01*
X108265373Y-115007497D01*
X108128755Y-115084398D01*
X108042045Y-115133207D01*
X107824968Y-115204263D01*
X107798484Y-115212932D01*
X107544057Y-115243608D01*
X107544056Y-115243608D01*
X107288529Y-115224059D01*
X107041725Y-115155034D01*
X107041724Y-115155034D01*
X107041722Y-115155033D01*
X106813135Y-115039189D01*
X106813133Y-115039188D01*
X106813130Y-115039186D01*
X106611528Y-114880968D01*
X106611524Y-114880965D01*
X106444667Y-114686461D01*
X106318958Y-114463134D01*
X106318957Y-114463133D01*
X106239233Y-114219575D01*
X106239232Y-114219572D01*
X106208556Y-113965145D01*
X106208556Y-113965144D01*
X106228105Y-113709617D01*
X106297130Y-113462813D01*
X106297130Y-113462812D01*
X106377770Y-113303691D01*
X106383950Y-113291496D01*
X107661545Y-111286073D01*
X107780119Y-111134986D01*
X107924052Y-111011512D01*
X107974630Y-110968123D01*
X108197948Y-110842417D01*
X108197954Y-110842415D01*
X108441511Y-110762691D01*
X108441512Y-110762691D01*
X108441515Y-110762690D01*
X108695941Y-110732014D01*
X108695943Y-110732014D01*
X108866294Y-110745047D01*
G37*
G36*
X127897544Y-110745047D02*
G01*
X127982721Y-110751564D01*
X128022503Y-110762690D01*
X128229525Y-110820588D01*
X128458120Y-110936436D01*
X128659722Y-111094654D01*
X128826584Y-111289164D01*
X128952293Y-111512489D01*
X129030608Y-111751742D01*
X129032018Y-111756050D01*
X129059310Y-111982410D01*
X129062694Y-112010478D01*
X129043145Y-112266006D01*
X129019991Y-112348794D01*
X128974120Y-112512811D01*
X128935809Y-112588407D01*
X128887300Y-112684127D01*
X127609704Y-114689549D01*
X127567707Y-114743061D01*
X127491130Y-114840637D01*
X127296623Y-115007497D01*
X127160005Y-115084398D01*
X127073295Y-115133207D01*
X126856218Y-115204263D01*
X126829734Y-115212932D01*
X126575307Y-115243608D01*
X126575306Y-115243608D01*
X126319779Y-115224059D01*
X126072975Y-115155034D01*
X126072974Y-115155034D01*
X126072972Y-115155033D01*
X125844385Y-115039189D01*
X125844383Y-115039188D01*
X125844380Y-115039186D01*
X125642778Y-114880968D01*
X125642774Y-114880965D01*
X125475917Y-114686461D01*
X125350208Y-114463134D01*
X125350207Y-114463133D01*
X125270483Y-114219575D01*
X125270482Y-114219572D01*
X125239806Y-113965145D01*
X125239806Y-113965144D01*
X125259355Y-113709617D01*
X125328380Y-113462813D01*
X125328380Y-113462812D01*
X125409020Y-113303691D01*
X125415200Y-113291496D01*
X126692795Y-111286073D01*
X126811369Y-111134986D01*
X126955302Y-111011512D01*
X127005880Y-110968123D01*
X127229198Y-110842417D01*
X127229204Y-110842415D01*
X127472761Y-110762691D01*
X127472762Y-110762691D01*
X127472765Y-110762690D01*
X127727191Y-110732014D01*
X127727193Y-110732014D01*
X127897544Y-110745047D01*
G37*
G36*
X114256379Y-110166624D02*
G01*
X114495991Y-110257524D01*
X114713265Y-110393424D01*
X114899852Y-110569099D01*
X115011209Y-110725361D01*
X115048580Y-110777801D01*
X115153735Y-111011508D01*
X115153736Y-111011512D01*
X115211276Y-111261239D01*
X115217058Y-111453205D01*
X115217057Y-111453213D01*
X115168916Y-112159382D01*
X115137135Y-112348794D01*
X115046235Y-112588406D01*
X114910335Y-112805680D01*
X114734660Y-112992267D01*
X114578398Y-113103624D01*
X114525958Y-113140995D01*
X114292251Y-113246150D01*
X114292247Y-113246151D01*
X114042521Y-113303691D01*
X113786366Y-113311405D01*
X113786362Y-113311405D01*
X113533621Y-113268998D01*
X113294009Y-113178098D01*
X113076735Y-113042198D01*
X113023703Y-112992267D01*
X112890148Y-112866523D01*
X112760166Y-112684126D01*
X112741420Y-112657821D01*
X112636265Y-112424114D01*
X112578724Y-112174382D01*
X112578272Y-112159382D01*
X112572942Y-111982419D01*
X112621084Y-111276239D01*
X112644785Y-111134986D01*
X112652865Y-111086828D01*
X112743765Y-110847216D01*
X112879665Y-110629942D01*
X112936950Y-110569099D01*
X113055340Y-110443355D01*
X113211602Y-110331998D01*
X113264042Y-110294627D01*
X113497749Y-110189472D01*
X113497753Y-110189471D01*
X113747479Y-110131931D01*
X114003634Y-110124217D01*
X114003638Y-110124217D01*
X114256379Y-110166624D01*
G37*
G36*
X152318879Y-110166624D02*
G01*
X152558491Y-110257524D01*
X152775765Y-110393424D01*
X152962352Y-110569099D01*
X153073709Y-110725361D01*
X153111080Y-110777801D01*
X153216235Y-111011508D01*
X153216236Y-111011512D01*
X153273776Y-111261239D01*
X153279558Y-111453205D01*
X153279557Y-111453213D01*
X153231416Y-112159382D01*
X153199635Y-112348794D01*
X153108735Y-112588406D01*
X152972835Y-112805680D01*
X152797160Y-112992267D01*
X152640898Y-113103624D01*
X152588458Y-113140995D01*
X152354751Y-113246150D01*
X152354747Y-113246151D01*
X152105021Y-113303691D01*
X151848866Y-113311405D01*
X151848862Y-113311405D01*
X151596121Y-113268998D01*
X151356509Y-113178098D01*
X151139235Y-113042198D01*
X151086203Y-112992267D01*
X150952648Y-112866523D01*
X150822666Y-112684126D01*
X150803920Y-112657821D01*
X150698765Y-112424114D01*
X150641224Y-112174382D01*
X150640772Y-112159382D01*
X150635442Y-111982419D01*
X150683584Y-111276239D01*
X150707285Y-111134986D01*
X150715365Y-111086828D01*
X150806265Y-110847216D01*
X150942165Y-110629942D01*
X150999450Y-110569099D01*
X151117840Y-110443355D01*
X151274102Y-110331998D01*
X151326542Y-110294627D01*
X151560249Y-110189472D01*
X151560253Y-110189471D01*
X151809979Y-110131931D01*
X152066134Y-110124217D01*
X152066138Y-110124217D01*
X152318879Y-110166624D01*
G37*
G36*
X133287629Y-110166624D02*
G01*
X133527241Y-110257524D01*
X133744515Y-110393424D01*
X133931102Y-110569099D01*
X134042459Y-110725361D01*
X134079830Y-110777801D01*
X134184985Y-111011508D01*
X134184986Y-111011512D01*
X134242526Y-111261239D01*
X134248308Y-111453205D01*
X134248307Y-111453213D01*
X134200166Y-112159382D01*
X134168385Y-112348794D01*
X134077485Y-112588406D01*
X133941585Y-112805680D01*
X133765910Y-112992267D01*
X133609648Y-113103624D01*
X133557208Y-113140995D01*
X133323501Y-113246150D01*
X133323497Y-113246151D01*
X133073771Y-113303691D01*
X132817616Y-113311405D01*
X132817612Y-113311405D01*
X132564871Y-113268998D01*
X132325259Y-113178098D01*
X132107985Y-113042198D01*
X132054953Y-112992267D01*
X131921398Y-112866523D01*
X131791416Y-112684126D01*
X131772670Y-112657821D01*
X131667515Y-112424114D01*
X131609974Y-112174382D01*
X131609522Y-112159382D01*
X131604192Y-111982419D01*
X131652334Y-111276239D01*
X131676035Y-111134986D01*
X131684115Y-111086828D01*
X131775015Y-110847216D01*
X131910915Y-110629942D01*
X131968200Y-110569099D01*
X132086590Y-110443355D01*
X132242852Y-110331998D01*
X132295292Y-110294627D01*
X132528999Y-110189472D01*
X132529003Y-110189471D01*
X132778729Y-110131931D01*
X133034884Y-110124217D01*
X133034888Y-110124217D01*
X133287629Y-110166624D01*
G37*
G36*
X108232250Y-102569750D02*
G01*
X106530250Y-102569750D01*
X106530250Y-100867750D01*
X108232250Y-100867750D01*
X108232250Y-102569750D01*
G37*
G36*
X153960728Y-100900453D02*
G01*
X154115600Y-100964603D01*
X154254981Y-101057735D01*
X154373515Y-101176269D01*
X154466647Y-101315650D01*
X154530797Y-101470522D01*
X154563500Y-101634934D01*
X154563500Y-101802566D01*
X154530797Y-101966978D01*
X154466647Y-102121850D01*
X154373515Y-102261231D01*
X154254981Y-102379765D01*
X154115600Y-102472897D01*
X153960728Y-102537047D01*
X153796316Y-102569750D01*
X153628684Y-102569750D01*
X153464272Y-102537047D01*
X153309400Y-102472897D01*
X153170019Y-102379765D01*
X153051485Y-102261231D01*
X152958353Y-102121850D01*
X152894203Y-101966978D01*
X152861500Y-101802566D01*
X152861500Y-101634934D01*
X152894203Y-101470522D01*
X152958353Y-101315650D01*
X153051485Y-101176269D01*
X153170019Y-101057735D01*
X153309400Y-100964603D01*
X153464272Y-100900453D01*
X153628684Y-100867750D01*
X153796316Y-100867750D01*
X153960728Y-100900453D01*
G37*
G36*
X146763500Y-102569750D02*
G01*
X145061500Y-102569750D01*
X145061500Y-100867750D01*
X146763500Y-100867750D01*
X146763500Y-102569750D01*
G37*
G36*
X134929478Y-100900453D02*
G01*
X135084350Y-100964603D01*
X135223731Y-101057735D01*
X135342265Y-101176269D01*
X135435397Y-101315650D01*
X135499547Y-101470522D01*
X135532250Y-101634934D01*
X135532250Y-101802566D01*
X135499547Y-101966978D01*
X135435397Y-102121850D01*
X135342265Y-102261231D01*
X135223731Y-102379765D01*
X135084350Y-102472897D01*
X134929478Y-102537047D01*
X134765066Y-102569750D01*
X134597434Y-102569750D01*
X134433022Y-102537047D01*
X134278150Y-102472897D01*
X134138769Y-102379765D01*
X134020235Y-102261231D01*
X133927103Y-102121850D01*
X133862953Y-101966978D01*
X133830250Y-101802566D01*
X133830250Y-101634934D01*
X133862953Y-101470522D01*
X133927103Y-101315650D01*
X134020235Y-101176269D01*
X134138769Y-101057735D01*
X134278150Y-100964603D01*
X134433022Y-100900453D01*
X134597434Y-100867750D01*
X134765066Y-100867750D01*
X134929478Y-100900453D01*
G37*
G36*
X127732250Y-102569750D02*
G01*
X126030250Y-102569750D01*
X126030250Y-100867750D01*
X127732250Y-100867750D01*
X127732250Y-102569750D01*
G37*
G36*
X115429478Y-100900453D02*
G01*
X115584350Y-100964603D01*
X115723731Y-101057735D01*
X115842265Y-101176269D01*
X115935397Y-101315650D01*
X115999547Y-101470522D01*
X116032250Y-101634934D01*
X116032250Y-101802566D01*
X115999547Y-101966978D01*
X115935397Y-102121850D01*
X115842265Y-102261231D01*
X115723731Y-102379765D01*
X115584350Y-102472897D01*
X115429478Y-102537047D01*
X115265066Y-102569750D01*
X115097434Y-102569750D01*
X114933022Y-102537047D01*
X114778150Y-102472897D01*
X114638769Y-102379765D01*
X114520235Y-102261231D01*
X114427103Y-102121850D01*
X114362953Y-101966978D01*
X114330250Y-101802566D01*
X114330250Y-101634934D01*
X114362953Y-101470522D01*
X114427103Y-101315650D01*
X114520235Y-101176269D01*
X114638769Y-101057735D01*
X114778150Y-100964603D01*
X114933022Y-100900453D01*
X115097434Y-100867750D01*
X115265066Y-100867750D01*
X115429478Y-100900453D01*
G37*
G36*
X110357250Y-102369750D02*
G01*
X109055250Y-102369750D01*
X109055250Y-101067750D01*
X110357250Y-101067750D01*
X110357250Y-102369750D01*
G37*
G36*
X152038500Y-102369750D02*
G01*
X150736500Y-102369750D01*
X150736500Y-101067750D01*
X152038500Y-101067750D01*
X152038500Y-102369750D01*
G37*
G36*
X133007250Y-102369750D02*
G01*
X131705250Y-102369750D01*
X131705250Y-101067750D01*
X133007250Y-101067750D01*
X133007250Y-102369750D01*
G37*
G36*
X129857250Y-102369750D02*
G01*
X128555250Y-102369750D01*
X128555250Y-101067750D01*
X129857250Y-101067750D01*
X129857250Y-102369750D01*
G37*
G36*
X113507250Y-102369750D02*
G01*
X112205250Y-102369750D01*
X112205250Y-101067750D01*
X113507250Y-101067750D01*
X113507250Y-102369750D01*
G37*
G36*
X148888500Y-102369750D02*
G01*
X147586500Y-102369750D01*
X147586500Y-101067750D01*
X148888500Y-101067750D01*
X148888500Y-102369750D01*
G37*
G36*
X131002724Y-95486808D02*
G01*
X131220724Y-95577107D01*
X131374873Y-95640957D01*
X131709798Y-95864747D01*
X131994627Y-96149576D01*
X132218417Y-96484501D01*
X132282267Y-96638650D01*
X132372566Y-96856650D01*
X132451150Y-97251718D01*
X132451150Y-97654530D01*
X132372566Y-98049598D01*
X132288572Y-98252377D01*
X132218417Y-98421747D01*
X131994627Y-98756672D01*
X131709798Y-99041501D01*
X131374873Y-99265291D01*
X131220724Y-99329141D01*
X131002724Y-99419440D01*
X130607656Y-99498024D01*
X130204844Y-99498024D01*
X129809776Y-99419440D01*
X129591776Y-99329141D01*
X129437627Y-99265291D01*
X129102702Y-99041501D01*
X128817873Y-98756672D01*
X128594083Y-98421747D01*
X128523928Y-98252377D01*
X128439934Y-98049598D01*
X128361350Y-97654530D01*
X128361350Y-97251718D01*
X128439934Y-96856650D01*
X128530233Y-96638650D01*
X128594083Y-96484501D01*
X128817873Y-96149576D01*
X129102702Y-95864747D01*
X129437627Y-95640957D01*
X129591776Y-95577107D01*
X129809776Y-95486808D01*
X130204844Y-95408224D01*
X130607656Y-95408224D01*
X131002724Y-95486808D01*
G37*
G36*
X150033974Y-95486808D02*
G01*
X150251974Y-95577107D01*
X150406123Y-95640957D01*
X150741048Y-95864747D01*
X151025877Y-96149576D01*
X151249667Y-96484501D01*
X151313517Y-96638650D01*
X151403816Y-96856650D01*
X151482400Y-97251718D01*
X151482400Y-97654530D01*
X151403816Y-98049598D01*
X151319822Y-98252377D01*
X151249667Y-98421747D01*
X151025877Y-98756672D01*
X150741048Y-99041501D01*
X150406123Y-99265291D01*
X150251974Y-99329141D01*
X150033974Y-99419440D01*
X149638906Y-99498024D01*
X149236094Y-99498024D01*
X148841026Y-99419440D01*
X148623026Y-99329141D01*
X148468877Y-99265291D01*
X148133952Y-99041501D01*
X147849123Y-98756672D01*
X147625333Y-98421747D01*
X147555178Y-98252377D01*
X147471184Y-98049598D01*
X147392600Y-97654530D01*
X147392600Y-97251718D01*
X147471184Y-96856650D01*
X147561483Y-96638650D01*
X147625333Y-96484501D01*
X147849123Y-96149576D01*
X148133952Y-95864747D01*
X148468877Y-95640957D01*
X148623026Y-95577107D01*
X148841026Y-95486808D01*
X149236094Y-95408224D01*
X149638906Y-95408224D01*
X150033974Y-95486808D01*
G37*
G36*
X111971474Y-95486808D02*
G01*
X112189474Y-95577107D01*
X112343623Y-95640957D01*
X112678548Y-95864747D01*
X112963377Y-96149576D01*
X113187167Y-96484501D01*
X113251017Y-96638650D01*
X113341316Y-96856650D01*
X113419900Y-97251718D01*
X113419900Y-97654530D01*
X113341316Y-98049598D01*
X113257322Y-98252377D01*
X113187167Y-98421747D01*
X112963377Y-98756672D01*
X112678548Y-99041501D01*
X112343623Y-99265291D01*
X112189474Y-99329141D01*
X111971474Y-99419440D01*
X111576406Y-99498024D01*
X111173594Y-99498024D01*
X110778526Y-99419440D01*
X110560526Y-99329141D01*
X110406377Y-99265291D01*
X110071452Y-99041501D01*
X109786623Y-98756672D01*
X109562833Y-98421747D01*
X109492678Y-98252377D01*
X109408684Y-98049598D01*
X109330100Y-97654530D01*
X109330100Y-97251718D01*
X109408684Y-96856650D01*
X109498983Y-96638650D01*
X109562833Y-96484501D01*
X109786623Y-96149576D01*
X110071452Y-95864747D01*
X110406377Y-95640957D01*
X110560526Y-95577107D01*
X110778526Y-95486808D01*
X111173594Y-95408224D01*
X111576406Y-95408224D01*
X111971474Y-95486808D01*
G37*
G36*
X116630952Y-96568554D02*
G01*
X116718075Y-96585883D01*
X116827498Y-96631208D01*
X116882211Y-96653871D01*
X117028933Y-96751907D01*
X117029928Y-96752572D01*
X117155552Y-96878196D01*
X117155554Y-96878199D01*
X117254253Y-97025913D01*
X117254253Y-97025914D01*
X117322241Y-97190049D01*
X117356900Y-97364295D01*
X117356900Y-97541953D01*
X117322241Y-97716199D01*
X117276916Y-97825622D01*
X117254253Y-97880335D01*
X117156217Y-98027057D01*
X117155552Y-98028052D01*
X117029928Y-98153676D01*
X117029925Y-98153678D01*
X116882211Y-98252377D01*
X116827498Y-98275040D01*
X116718075Y-98320365D01*
X116630952Y-98337694D01*
X116543831Y-98355024D01*
X116366169Y-98355024D01*
X116279048Y-98337694D01*
X116191925Y-98320365D01*
X116082502Y-98275040D01*
X116027789Y-98252377D01*
X115880075Y-98153678D01*
X115880072Y-98153676D01*
X115754448Y-98028052D01*
X115753783Y-98027057D01*
X115655747Y-97880335D01*
X115633084Y-97825622D01*
X115587759Y-97716199D01*
X115553100Y-97541953D01*
X115553100Y-97364295D01*
X115587759Y-97190049D01*
X115655747Y-97025914D01*
X115655747Y-97025913D01*
X115754446Y-96878199D01*
X115754448Y-96878196D01*
X115880072Y-96752572D01*
X115881067Y-96751907D01*
X116027789Y-96653871D01*
X116082502Y-96631208D01*
X116191925Y-96585883D01*
X116279048Y-96568554D01*
X116366169Y-96551224D01*
X116543831Y-96551224D01*
X116630952Y-96568554D01*
G37*
G36*
X135662202Y-96568554D02*
G01*
X135749325Y-96585883D01*
X135858748Y-96631208D01*
X135913461Y-96653871D01*
X136060183Y-96751907D01*
X136061178Y-96752572D01*
X136186802Y-96878196D01*
X136186804Y-96878199D01*
X136285503Y-97025913D01*
X136285503Y-97025914D01*
X136353491Y-97190049D01*
X136388150Y-97364295D01*
X136388150Y-97541953D01*
X136353491Y-97716199D01*
X136308166Y-97825622D01*
X136285503Y-97880335D01*
X136187467Y-98027057D01*
X136186802Y-98028052D01*
X136061178Y-98153676D01*
X136061175Y-98153678D01*
X135913461Y-98252377D01*
X135858748Y-98275040D01*
X135749325Y-98320365D01*
X135662202Y-98337694D01*
X135575081Y-98355024D01*
X135397419Y-98355024D01*
X135310298Y-98337694D01*
X135223175Y-98320365D01*
X135113752Y-98275040D01*
X135059039Y-98252377D01*
X134911325Y-98153678D01*
X134911322Y-98153676D01*
X134785698Y-98028052D01*
X134785033Y-98027057D01*
X134686997Y-97880335D01*
X134664334Y-97825622D01*
X134619009Y-97716199D01*
X134584350Y-97541953D01*
X134584350Y-97364295D01*
X134619009Y-97190049D01*
X134686997Y-97025914D01*
X134686997Y-97025913D01*
X134785696Y-96878199D01*
X134785698Y-96878196D01*
X134911322Y-96752572D01*
X134912317Y-96751907D01*
X135059039Y-96653871D01*
X135113752Y-96631208D01*
X135223175Y-96585883D01*
X135310298Y-96568554D01*
X135397419Y-96551224D01*
X135575081Y-96551224D01*
X135662202Y-96568554D01*
G37*
G36*
X106470952Y-96568554D02*
G01*
X106558075Y-96585883D01*
X106667498Y-96631208D01*
X106722211Y-96653871D01*
X106868933Y-96751907D01*
X106869928Y-96752572D01*
X106995552Y-96878196D01*
X106995554Y-96878199D01*
X107094253Y-97025913D01*
X107094253Y-97025914D01*
X107162241Y-97190049D01*
X107196900Y-97364295D01*
X107196900Y-97541953D01*
X107162241Y-97716199D01*
X107116916Y-97825622D01*
X107094253Y-97880335D01*
X106996217Y-98027057D01*
X106995552Y-98028052D01*
X106869928Y-98153676D01*
X106869925Y-98153678D01*
X106722211Y-98252377D01*
X106667498Y-98275040D01*
X106558075Y-98320365D01*
X106470952Y-98337694D01*
X106383831Y-98355024D01*
X106206169Y-98355024D01*
X106119048Y-98337694D01*
X106031925Y-98320365D01*
X105922502Y-98275040D01*
X105867789Y-98252377D01*
X105720075Y-98153678D01*
X105720072Y-98153676D01*
X105594448Y-98028052D01*
X105593783Y-98027057D01*
X105495747Y-97880335D01*
X105473084Y-97825622D01*
X105427759Y-97716199D01*
X105393100Y-97541953D01*
X105393100Y-97364295D01*
X105427759Y-97190049D01*
X105495747Y-97025914D01*
X105495747Y-97025913D01*
X105594446Y-96878199D01*
X105594448Y-96878196D01*
X105720072Y-96752572D01*
X105721067Y-96751907D01*
X105867789Y-96653871D01*
X105922502Y-96631208D01*
X106031925Y-96585883D01*
X106119048Y-96568554D01*
X106206169Y-96551224D01*
X106383831Y-96551224D01*
X106470952Y-96568554D01*
G37*
G36*
X144533452Y-96568554D02*
G01*
X144620575Y-96585883D01*
X144729998Y-96631208D01*
X144784711Y-96653871D01*
X144931433Y-96751907D01*
X144932428Y-96752572D01*
X145058052Y-96878196D01*
X145058054Y-96878199D01*
X145156753Y-97025913D01*
X145156753Y-97025914D01*
X145224741Y-97190049D01*
X145259400Y-97364295D01*
X145259400Y-97541953D01*
X145224741Y-97716199D01*
X145179416Y-97825622D01*
X145156753Y-97880335D01*
X145058717Y-98027057D01*
X145058052Y-98028052D01*
X144932428Y-98153676D01*
X144932425Y-98153678D01*
X144784711Y-98252377D01*
X144729998Y-98275040D01*
X144620575Y-98320365D01*
X144533452Y-98337694D01*
X144446331Y-98355024D01*
X144268669Y-98355024D01*
X144181548Y-98337694D01*
X144094425Y-98320365D01*
X143985002Y-98275040D01*
X143930289Y-98252377D01*
X143782575Y-98153678D01*
X143782572Y-98153676D01*
X143656948Y-98028052D01*
X143656283Y-98027057D01*
X143558247Y-97880335D01*
X143535584Y-97825622D01*
X143490259Y-97716199D01*
X143455600Y-97541953D01*
X143455600Y-97364295D01*
X143490259Y-97190049D01*
X143558247Y-97025914D01*
X143558247Y-97025913D01*
X143656946Y-96878199D01*
X143656948Y-96878196D01*
X143782572Y-96752572D01*
X143783567Y-96751907D01*
X143930289Y-96653871D01*
X143985002Y-96631208D01*
X144094425Y-96585883D01*
X144181548Y-96568554D01*
X144268669Y-96551224D01*
X144446331Y-96551224D01*
X144533452Y-96568554D01*
G37*
G36*
X125502202Y-96568554D02*
G01*
X125589325Y-96585883D01*
X125698748Y-96631208D01*
X125753461Y-96653871D01*
X125900183Y-96751907D01*
X125901178Y-96752572D01*
X126026802Y-96878196D01*
X126026804Y-96878199D01*
X126125503Y-97025913D01*
X126125503Y-97025914D01*
X126193491Y-97190049D01*
X126228150Y-97364295D01*
X126228150Y-97541953D01*
X126193491Y-97716199D01*
X126148166Y-97825622D01*
X126125503Y-97880335D01*
X126027467Y-98027057D01*
X126026802Y-98028052D01*
X125901178Y-98153676D01*
X125901175Y-98153678D01*
X125753461Y-98252377D01*
X125698748Y-98275040D01*
X125589325Y-98320365D01*
X125502202Y-98337694D01*
X125415081Y-98355024D01*
X125237419Y-98355024D01*
X125150298Y-98337694D01*
X125063175Y-98320365D01*
X124953752Y-98275040D01*
X124899039Y-98252377D01*
X124751325Y-98153678D01*
X124751322Y-98153676D01*
X124625698Y-98028052D01*
X124625033Y-98027057D01*
X124526997Y-97880335D01*
X124504334Y-97825622D01*
X124459009Y-97716199D01*
X124424350Y-97541953D01*
X124424350Y-97364295D01*
X124459009Y-97190049D01*
X124526997Y-97025914D01*
X124526997Y-97025913D01*
X124625696Y-96878199D01*
X124625698Y-96878196D01*
X124751322Y-96752572D01*
X124752317Y-96751907D01*
X124899039Y-96653871D01*
X124953752Y-96631208D01*
X125063175Y-96585883D01*
X125150298Y-96568554D01*
X125237419Y-96551224D01*
X125415081Y-96551224D01*
X125502202Y-96568554D01*
G37*
G36*
X154693452Y-96568554D02*
G01*
X154780575Y-96585883D01*
X154889998Y-96631208D01*
X154944711Y-96653871D01*
X155091433Y-96751907D01*
X155092428Y-96752572D01*
X155218052Y-96878196D01*
X155218054Y-96878199D01*
X155316753Y-97025913D01*
X155316753Y-97025914D01*
X155384741Y-97190049D01*
X155419400Y-97364295D01*
X155419400Y-97541953D01*
X155384741Y-97716199D01*
X155339416Y-97825622D01*
X155316753Y-97880335D01*
X155218717Y-98027057D01*
X155218052Y-98028052D01*
X155092428Y-98153676D01*
X155092425Y-98153678D01*
X154944711Y-98252377D01*
X154889998Y-98275040D01*
X154780575Y-98320365D01*
X154693452Y-98337694D01*
X154606331Y-98355024D01*
X154428669Y-98355024D01*
X154341548Y-98337694D01*
X154254425Y-98320365D01*
X154145002Y-98275040D01*
X154090289Y-98252377D01*
X153942575Y-98153678D01*
X153942572Y-98153676D01*
X153816948Y-98028052D01*
X153816283Y-98027057D01*
X153718247Y-97880335D01*
X153695584Y-97825622D01*
X153650259Y-97716199D01*
X153615600Y-97541953D01*
X153615600Y-97364295D01*
X153650259Y-97190049D01*
X153718247Y-97025914D01*
X153718247Y-97025913D01*
X153816946Y-96878199D01*
X153816948Y-96878196D01*
X153942572Y-96752572D01*
X153943567Y-96751907D01*
X154090289Y-96653871D01*
X154145002Y-96631208D01*
X154254425Y-96585883D01*
X154341548Y-96568554D01*
X154428669Y-96551224D01*
X154606331Y-96551224D01*
X154693452Y-96568554D01*
G37*
G36*
X108866294Y-91690360D02*
G01*
X108951471Y-91696877D01*
X108991253Y-91708003D01*
X109198275Y-91765901D01*
X109426870Y-91881749D01*
X109426872Y-91881750D01*
X109426873Y-91881751D01*
X109467246Y-91913436D01*
X109628472Y-92039967D01*
X109795334Y-92234477D01*
X109921043Y-92457802D01*
X109999358Y-92697055D01*
X110000768Y-92701363D01*
X110014742Y-92817265D01*
X110031444Y-92955791D01*
X110011895Y-93211319D01*
X109988741Y-93294107D01*
X109942870Y-93458124D01*
X109904559Y-93533720D01*
X109856050Y-93629440D01*
X108578454Y-95634862D01*
X108536457Y-95688374D01*
X108459880Y-95785950D01*
X108265373Y-95952810D01*
X108128755Y-96029711D01*
X108042045Y-96078520D01*
X107824968Y-96149576D01*
X107798484Y-96158245D01*
X107544057Y-96188921D01*
X107544056Y-96188921D01*
X107288529Y-96169372D01*
X107041725Y-96100347D01*
X107041724Y-96100347D01*
X107041722Y-96100346D01*
X106813135Y-95984502D01*
X106813133Y-95984501D01*
X106813130Y-95984499D01*
X106611528Y-95826281D01*
X106611524Y-95826278D01*
X106444667Y-95631774D01*
X106318958Y-95408447D01*
X106318957Y-95408446D01*
X106239233Y-95164888D01*
X106239232Y-95164885D01*
X106208556Y-94910458D01*
X106208556Y-94910457D01*
X106228105Y-94654930D01*
X106297130Y-94408126D01*
X106297130Y-94408125D01*
X106377770Y-94249004D01*
X106383950Y-94236809D01*
X107661545Y-92231386D01*
X107780119Y-92080299D01*
X107924052Y-91956825D01*
X107974630Y-91913436D01*
X108197948Y-91787730D01*
X108197954Y-91787728D01*
X108441511Y-91708004D01*
X108441512Y-91708004D01*
X108441515Y-91708003D01*
X108695941Y-91677327D01*
X108695943Y-91677327D01*
X108866294Y-91690360D01*
G37*
G36*
X127897544Y-91690360D02*
G01*
X127982721Y-91696877D01*
X128022503Y-91708003D01*
X128229525Y-91765901D01*
X128458120Y-91881749D01*
X128458122Y-91881750D01*
X128458123Y-91881751D01*
X128498496Y-91913436D01*
X128659722Y-92039967D01*
X128826584Y-92234477D01*
X128952293Y-92457802D01*
X129030608Y-92697055D01*
X129032018Y-92701363D01*
X129045992Y-92817265D01*
X129062694Y-92955791D01*
X129043145Y-93211319D01*
X129019991Y-93294107D01*
X128974120Y-93458124D01*
X128935809Y-93533720D01*
X128887300Y-93629440D01*
X127609704Y-95634862D01*
X127567707Y-95688374D01*
X127491130Y-95785950D01*
X127296623Y-95952810D01*
X127160005Y-96029711D01*
X127073295Y-96078520D01*
X126856218Y-96149576D01*
X126829734Y-96158245D01*
X126575307Y-96188921D01*
X126575306Y-96188921D01*
X126319779Y-96169372D01*
X126072975Y-96100347D01*
X126072974Y-96100347D01*
X126072972Y-96100346D01*
X125844385Y-95984502D01*
X125844383Y-95984501D01*
X125844380Y-95984499D01*
X125642778Y-95826281D01*
X125642774Y-95826278D01*
X125475917Y-95631774D01*
X125350208Y-95408447D01*
X125350207Y-95408446D01*
X125270483Y-95164888D01*
X125270482Y-95164885D01*
X125239806Y-94910458D01*
X125239806Y-94910457D01*
X125259355Y-94654930D01*
X125328380Y-94408126D01*
X125328380Y-94408125D01*
X125409020Y-94249004D01*
X125415200Y-94236809D01*
X126692795Y-92231386D01*
X126811369Y-92080299D01*
X126955302Y-91956825D01*
X127005880Y-91913436D01*
X127229198Y-91787730D01*
X127229204Y-91787728D01*
X127472761Y-91708004D01*
X127472762Y-91708004D01*
X127472765Y-91708003D01*
X127727191Y-91677327D01*
X127727193Y-91677327D01*
X127897544Y-91690360D01*
G37*
G36*
X146928794Y-91690360D02*
G01*
X147013971Y-91696877D01*
X147053753Y-91708003D01*
X147260775Y-91765901D01*
X147489370Y-91881749D01*
X147489372Y-91881750D01*
X147489373Y-91881751D01*
X147529746Y-91913436D01*
X147690972Y-92039967D01*
X147857834Y-92234477D01*
X147983543Y-92457802D01*
X148061858Y-92697055D01*
X148063268Y-92701363D01*
X148077242Y-92817265D01*
X148093944Y-92955791D01*
X148074395Y-93211319D01*
X148051241Y-93294107D01*
X148005370Y-93458124D01*
X147967059Y-93533720D01*
X147918550Y-93629440D01*
X146640954Y-95634862D01*
X146598957Y-95688374D01*
X146522380Y-95785950D01*
X146327873Y-95952810D01*
X146191255Y-96029711D01*
X146104545Y-96078520D01*
X145887468Y-96149576D01*
X145860984Y-96158245D01*
X145606557Y-96188921D01*
X145606556Y-96188921D01*
X145351029Y-96169372D01*
X145104225Y-96100347D01*
X145104224Y-96100347D01*
X145104222Y-96100346D01*
X144875635Y-95984502D01*
X144875633Y-95984501D01*
X144875630Y-95984499D01*
X144674028Y-95826281D01*
X144674024Y-95826278D01*
X144507167Y-95631774D01*
X144381458Y-95408447D01*
X144381457Y-95408446D01*
X144301733Y-95164888D01*
X144301732Y-95164885D01*
X144271056Y-94910458D01*
X144271056Y-94910457D01*
X144290605Y-94654930D01*
X144359630Y-94408126D01*
X144359630Y-94408125D01*
X144440270Y-94249004D01*
X144446450Y-94236809D01*
X145724045Y-92231386D01*
X145842619Y-92080299D01*
X145986552Y-91956825D01*
X146037130Y-91913436D01*
X146260448Y-91787730D01*
X146260454Y-91787728D01*
X146504011Y-91708004D01*
X146504012Y-91708004D01*
X146504015Y-91708003D01*
X146758441Y-91677327D01*
X146758443Y-91677327D01*
X146928794Y-91690360D01*
G37*
G36*
X133287629Y-91111937D02*
G01*
X133527241Y-91202837D01*
X133690977Y-91305250D01*
X133744515Y-91338737D01*
X133931102Y-91514412D01*
X134042459Y-91670674D01*
X134079830Y-91723114D01*
X134184985Y-91956821D01*
X134184986Y-91956825D01*
X134242526Y-92206552D01*
X134248308Y-92398518D01*
X134244266Y-92457802D01*
X134200166Y-93104695D01*
X134168385Y-93294107D01*
X134077485Y-93533719D01*
X133941585Y-93750993D01*
X133765910Y-93937580D01*
X133609648Y-94048937D01*
X133557208Y-94086308D01*
X133323501Y-94191463D01*
X133323497Y-94191464D01*
X133073771Y-94249004D01*
X132817616Y-94256718D01*
X132817612Y-94256718D01*
X132564871Y-94214311D01*
X132325259Y-94123411D01*
X132107985Y-93987511D01*
X132054953Y-93937580D01*
X131921398Y-93811836D01*
X131791416Y-93629439D01*
X131772670Y-93603134D01*
X131667515Y-93369427D01*
X131609974Y-93119695D01*
X131609522Y-93104695D01*
X131604192Y-92927732D01*
X131652334Y-92221552D01*
X131676035Y-92080299D01*
X131684115Y-92032141D01*
X131775015Y-91792529D01*
X131910915Y-91575255D01*
X131968200Y-91514412D01*
X132086590Y-91388668D01*
X132242852Y-91277311D01*
X132295292Y-91239940D01*
X132528999Y-91134785D01*
X132529003Y-91134784D01*
X132778729Y-91077244D01*
X133034884Y-91069530D01*
X133034888Y-91069530D01*
X133287629Y-91111937D01*
G37*
G36*
X152318879Y-91111937D02*
G01*
X152558491Y-91202837D01*
X152722227Y-91305250D01*
X152775765Y-91338737D01*
X152962352Y-91514412D01*
X153073709Y-91670674D01*
X153111080Y-91723114D01*
X153216235Y-91956821D01*
X153216236Y-91956825D01*
X153273776Y-92206552D01*
X153279558Y-92398518D01*
X153275516Y-92457802D01*
X153231416Y-93104695D01*
X153199635Y-93294107D01*
X153108735Y-93533719D01*
X152972835Y-93750993D01*
X152797160Y-93937580D01*
X152640898Y-94048937D01*
X152588458Y-94086308D01*
X152354751Y-94191463D01*
X152354747Y-94191464D01*
X152105021Y-94249004D01*
X151848866Y-94256718D01*
X151848862Y-94256718D01*
X151596121Y-94214311D01*
X151356509Y-94123411D01*
X151139235Y-93987511D01*
X151086203Y-93937580D01*
X150952648Y-93811836D01*
X150822666Y-93629439D01*
X150803920Y-93603134D01*
X150698765Y-93369427D01*
X150641224Y-93119695D01*
X150640772Y-93104695D01*
X150635442Y-92927732D01*
X150683584Y-92221552D01*
X150707285Y-92080299D01*
X150715365Y-92032141D01*
X150806265Y-91792529D01*
X150942165Y-91575255D01*
X150999450Y-91514412D01*
X151117840Y-91388668D01*
X151274102Y-91277311D01*
X151326542Y-91239940D01*
X151560249Y-91134785D01*
X151560253Y-91134784D01*
X151809979Y-91077244D01*
X152066134Y-91069530D01*
X152066138Y-91069530D01*
X152318879Y-91111937D01*
G37*
G36*
X114256379Y-91111937D02*
G01*
X114495991Y-91202837D01*
X114659727Y-91305250D01*
X114713265Y-91338737D01*
X114899852Y-91514412D01*
X115011209Y-91670674D01*
X115048580Y-91723114D01*
X115153735Y-91956821D01*
X115153736Y-91956825D01*
X115211276Y-92206552D01*
X115217058Y-92398518D01*
X115213016Y-92457802D01*
X115168916Y-93104695D01*
X115137135Y-93294107D01*
X115046235Y-93533719D01*
X114910335Y-93750993D01*
X114734660Y-93937580D01*
X114578398Y-94048937D01*
X114525958Y-94086308D01*
X114292251Y-94191463D01*
X114292247Y-94191464D01*
X114042521Y-94249004D01*
X113786366Y-94256718D01*
X113786362Y-94256718D01*
X113533621Y-94214311D01*
X113294009Y-94123411D01*
X113076735Y-93987511D01*
X113023703Y-93937580D01*
X112890148Y-93811836D01*
X112760166Y-93629439D01*
X112741420Y-93603134D01*
X112636265Y-93369427D01*
X112578724Y-93119695D01*
X112578272Y-93104695D01*
X112572942Y-92927732D01*
X112621084Y-92221552D01*
X112644785Y-92080299D01*
X112652865Y-92032141D01*
X112743765Y-91792529D01*
X112879665Y-91575255D01*
X112936950Y-91514412D01*
X113055340Y-91388668D01*
X113211602Y-91277311D01*
X113264042Y-91239940D01*
X113497749Y-91134785D01*
X113497753Y-91134784D01*
X113747479Y-91077244D01*
X114003634Y-91069530D01*
X114003638Y-91069530D01*
X114256379Y-91111937D01*
G37*
G36*
X172710728Y-91337953D02*
G01*
X172865600Y-91402103D01*
X173004981Y-91495235D01*
X173123515Y-91613769D01*
X173216647Y-91753150D01*
X173280797Y-91908022D01*
X173313500Y-92072434D01*
X173313500Y-92240066D01*
X173280797Y-92404478D01*
X173216647Y-92559350D01*
X173123515Y-92698731D01*
X173004981Y-92817265D01*
X172865600Y-92910397D01*
X172710728Y-92974547D01*
X172546316Y-93007250D01*
X172378684Y-93007250D01*
X172214272Y-92974547D01*
X172059400Y-92910397D01*
X171920019Y-92817265D01*
X171801485Y-92698731D01*
X171708353Y-92559350D01*
X171644203Y-92404478D01*
X171611500Y-92240066D01*
X171611500Y-92072434D01*
X171644203Y-91908022D01*
X171708353Y-91753150D01*
X171801485Y-91613769D01*
X171920019Y-91495235D01*
X172059400Y-91402103D01*
X172214272Y-91337953D01*
X172378684Y-91305250D01*
X172546316Y-91305250D01*
X172710728Y-91337953D01*
G37*
G36*
X165513500Y-93007250D02*
G01*
X163811500Y-93007250D01*
X163811500Y-91305250D01*
X165513500Y-91305250D01*
X165513500Y-93007250D01*
G37*
G36*
X170788500Y-92807250D02*
G01*
X169486500Y-92807250D01*
X169486500Y-91505250D01*
X170788500Y-91505250D01*
X170788500Y-92807250D01*
G37*
G36*
X167638500Y-92807250D02*
G01*
X166336500Y-92807250D01*
X166336500Y-91505250D01*
X167638500Y-91505250D01*
X167638500Y-92807250D01*
G37*
G36*
X169047724Y-85959484D02*
G01*
X169265724Y-86049783D01*
X169419873Y-86113633D01*
X169754798Y-86337423D01*
X170039627Y-86622252D01*
X170263417Y-86957177D01*
X170327267Y-87111326D01*
X170417566Y-87329326D01*
X170496150Y-87724394D01*
X170496150Y-88127206D01*
X170417566Y-88522274D01*
X170333572Y-88725053D01*
X170263417Y-88894423D01*
X170039627Y-89229348D01*
X169754798Y-89514177D01*
X169419873Y-89737967D01*
X169265724Y-89801817D01*
X169047724Y-89892116D01*
X168652656Y-89970700D01*
X168249844Y-89970700D01*
X167854776Y-89892116D01*
X167636776Y-89801817D01*
X167482627Y-89737967D01*
X167147702Y-89514177D01*
X166862873Y-89229348D01*
X166639083Y-88894423D01*
X166568928Y-88725053D01*
X166484934Y-88522274D01*
X166406350Y-88127206D01*
X166406350Y-87724394D01*
X166484934Y-87329326D01*
X166575233Y-87111326D01*
X166639083Y-86957177D01*
X166862873Y-86622252D01*
X167147702Y-86337423D01*
X167482627Y-86113633D01*
X167636776Y-86049783D01*
X167854776Y-85959484D01*
X168249844Y-85880900D01*
X168652656Y-85880900D01*
X169047724Y-85959484D01*
G37*
G36*
X163547202Y-87041229D02*
G01*
X163634325Y-87058559D01*
X163743748Y-87103884D01*
X163798461Y-87126547D01*
X163945183Y-87224583D01*
X163946178Y-87225248D01*
X164071802Y-87350872D01*
X164071804Y-87350875D01*
X164170503Y-87498589D01*
X164170503Y-87498590D01*
X164238491Y-87662725D01*
X164273150Y-87836971D01*
X164273150Y-88014629D01*
X164238491Y-88188875D01*
X164193166Y-88298298D01*
X164170503Y-88353011D01*
X164072467Y-88499733D01*
X164071802Y-88500728D01*
X163946178Y-88626352D01*
X163946175Y-88626354D01*
X163798461Y-88725053D01*
X163743748Y-88747716D01*
X163634325Y-88793041D01*
X163547202Y-88810371D01*
X163460081Y-88827700D01*
X163282419Y-88827700D01*
X163195298Y-88810370D01*
X163108175Y-88793041D01*
X162998752Y-88747716D01*
X162944039Y-88725053D01*
X162796325Y-88626354D01*
X162796322Y-88626352D01*
X162670698Y-88500728D01*
X162670033Y-88499733D01*
X162571997Y-88353011D01*
X162549334Y-88298298D01*
X162504009Y-88188875D01*
X162469350Y-88014629D01*
X162469350Y-87836971D01*
X162504009Y-87662725D01*
X162571997Y-87498590D01*
X162571997Y-87498589D01*
X162670696Y-87350875D01*
X162670698Y-87350872D01*
X162796322Y-87225248D01*
X162797317Y-87224583D01*
X162944039Y-87126547D01*
X162998752Y-87103884D01*
X163108175Y-87058559D01*
X163195298Y-87041229D01*
X163282419Y-87023900D01*
X163460081Y-87023900D01*
X163547202Y-87041229D01*
G37*
G36*
X173707202Y-87041229D02*
G01*
X173794325Y-87058559D01*
X173903748Y-87103884D01*
X173958461Y-87126547D01*
X174105183Y-87224583D01*
X174106178Y-87225248D01*
X174231802Y-87350872D01*
X174231804Y-87350875D01*
X174330503Y-87498589D01*
X174330503Y-87498590D01*
X174398491Y-87662725D01*
X174433150Y-87836971D01*
X174433150Y-88014629D01*
X174398491Y-88188875D01*
X174353166Y-88298298D01*
X174330503Y-88353011D01*
X174232467Y-88499733D01*
X174231802Y-88500728D01*
X174106178Y-88626352D01*
X174106175Y-88626354D01*
X173958461Y-88725053D01*
X173903748Y-88747716D01*
X173794325Y-88793041D01*
X173707202Y-88810371D01*
X173620081Y-88827700D01*
X173442419Y-88827700D01*
X173355298Y-88810370D01*
X173268175Y-88793041D01*
X173158752Y-88747716D01*
X173104039Y-88725053D01*
X172956325Y-88626354D01*
X172956322Y-88626352D01*
X172830698Y-88500728D01*
X172830033Y-88499733D01*
X172731997Y-88353011D01*
X172709334Y-88298298D01*
X172664009Y-88188875D01*
X172629350Y-88014629D01*
X172629350Y-87836971D01*
X172664009Y-87662725D01*
X172731997Y-87498590D01*
X172731997Y-87498589D01*
X172830696Y-87350875D01*
X172830698Y-87350872D01*
X172956322Y-87225248D01*
X172957317Y-87224583D01*
X173104039Y-87126547D01*
X173158752Y-87103884D01*
X173268175Y-87058559D01*
X173355298Y-87041229D01*
X173442419Y-87023900D01*
X173620081Y-87023900D01*
X173707202Y-87041229D01*
G37*
G36*
X165942544Y-82163036D02*
G01*
X166027721Y-82169553D01*
X166067503Y-82180679D01*
X166274525Y-82238577D01*
X166503120Y-82354425D01*
X166503122Y-82354426D01*
X166503123Y-82354427D01*
X166694750Y-82504817D01*
X166704722Y-82512643D01*
X166871584Y-82707153D01*
X166997293Y-82930478D01*
X167049705Y-83090597D01*
X167077018Y-83174039D01*
X167096847Y-83338500D01*
X167107694Y-83428467D01*
X167088145Y-83683995D01*
X167064991Y-83766783D01*
X167019120Y-83930800D01*
X166980809Y-84006396D01*
X166932300Y-84102116D01*
X165654704Y-86107538D01*
X165612707Y-86161050D01*
X165536130Y-86258626D01*
X165341623Y-86425486D01*
X165205005Y-86502387D01*
X165118295Y-86551196D01*
X164901218Y-86622252D01*
X164874734Y-86630921D01*
X164620307Y-86661597D01*
X164620306Y-86661597D01*
X164364779Y-86642048D01*
X164117975Y-86573023D01*
X164117974Y-86573023D01*
X164117972Y-86573022D01*
X163889385Y-86457178D01*
X163889383Y-86457177D01*
X163889380Y-86457175D01*
X163687778Y-86298957D01*
X163687774Y-86298954D01*
X163520917Y-86104450D01*
X163395208Y-85881123D01*
X163395207Y-85881122D01*
X163315483Y-85637564D01*
X163315482Y-85637561D01*
X163284806Y-85383134D01*
X163284806Y-85383133D01*
X163304355Y-85127606D01*
X163373380Y-84880802D01*
X163373380Y-84880801D01*
X163454020Y-84721680D01*
X163460200Y-84709485D01*
X164737795Y-82704062D01*
X164856369Y-82552975D01*
X165000302Y-82429501D01*
X165050880Y-82386112D01*
X165274198Y-82260406D01*
X165274204Y-82260404D01*
X165517761Y-82180680D01*
X165517762Y-82180680D01*
X165517765Y-82180679D01*
X165772191Y-82150003D01*
X165772193Y-82150003D01*
X165942544Y-82163036D01*
G37*
G36*
X171332629Y-81584613D02*
G01*
X171572241Y-81675513D01*
X171789515Y-81811413D01*
X171976102Y-81987088D01*
X172087459Y-82143350D01*
X172124830Y-82195790D01*
X172229985Y-82429497D01*
X172229986Y-82429501D01*
X172287526Y-82679228D01*
X172293308Y-82871194D01*
X172293307Y-82871202D01*
X172245166Y-83577371D01*
X172213385Y-83766783D01*
X172122485Y-84006395D01*
X171986585Y-84223669D01*
X171810910Y-84410256D01*
X171654648Y-84521613D01*
X171602208Y-84558984D01*
X171368501Y-84664139D01*
X171368497Y-84664140D01*
X171118771Y-84721680D01*
X170862616Y-84729394D01*
X170862612Y-84729394D01*
X170609871Y-84686987D01*
X170370259Y-84596087D01*
X170152985Y-84460187D01*
X170099953Y-84410256D01*
X169966398Y-84284512D01*
X169836416Y-84102115D01*
X169817670Y-84075810D01*
X169712515Y-83842103D01*
X169654974Y-83592371D01*
X169654522Y-83577371D01*
X169649192Y-83400408D01*
X169697334Y-82694228D01*
X169701900Y-82667013D01*
X169729115Y-82504817D01*
X169820015Y-82265205D01*
X169955915Y-82047931D01*
X170131590Y-81861344D01*
X170287852Y-81749987D01*
X170340292Y-81712616D01*
X170573999Y-81607461D01*
X170574003Y-81607460D01*
X170823729Y-81549920D01*
X171079884Y-81542206D01*
X171079888Y-81542206D01*
X171332629Y-81584613D01*
G37*
G36*
X127263500Y-83538500D02*
G01*
X125561500Y-83538500D01*
X125561500Y-81836500D01*
X127263500Y-81836500D01*
X127263500Y-83538500D01*
G37*
G36*
X134460728Y-81869203D02*
G01*
X134615600Y-81933353D01*
X134754981Y-82026485D01*
X134873515Y-82145019D01*
X134966647Y-82284400D01*
X135030797Y-82439272D01*
X135063500Y-82603684D01*
X135063500Y-82771316D01*
X135030797Y-82935728D01*
X134966647Y-83090600D01*
X134873515Y-83229981D01*
X134754981Y-83348515D01*
X134615600Y-83441647D01*
X134460728Y-83505797D01*
X134296316Y-83538500D01*
X134128684Y-83538500D01*
X133964272Y-83505797D01*
X133809400Y-83441647D01*
X133670019Y-83348515D01*
X133551485Y-83229981D01*
X133458353Y-83090600D01*
X133394203Y-82935728D01*
X133361500Y-82771316D01*
X133361500Y-82603684D01*
X133394203Y-82439272D01*
X133458353Y-82284400D01*
X133551485Y-82145019D01*
X133670019Y-82026485D01*
X133809400Y-81933353D01*
X133964272Y-81869203D01*
X134128684Y-81836500D01*
X134296316Y-81836500D01*
X134460728Y-81869203D01*
G37*
G36*
X115429478Y-81869203D02*
G01*
X115584350Y-81933353D01*
X115723731Y-82026485D01*
X115842265Y-82145019D01*
X115935397Y-82284400D01*
X115999547Y-82439272D01*
X116032250Y-82603684D01*
X116032250Y-82771316D01*
X115999547Y-82935728D01*
X115935397Y-83090600D01*
X115842265Y-83229981D01*
X115723731Y-83348515D01*
X115584350Y-83441647D01*
X115429478Y-83505797D01*
X115265066Y-83538500D01*
X115097434Y-83538500D01*
X114933022Y-83505797D01*
X114778150Y-83441647D01*
X114638769Y-83348515D01*
X114520235Y-83229981D01*
X114427103Y-83090600D01*
X114362953Y-82935728D01*
X114330250Y-82771316D01*
X114330250Y-82603684D01*
X114362953Y-82439272D01*
X114427103Y-82284400D01*
X114520235Y-82145019D01*
X114638769Y-82026485D01*
X114778150Y-81933353D01*
X114933022Y-81869203D01*
X115097434Y-81836500D01*
X115265066Y-81836500D01*
X115429478Y-81869203D01*
G37*
G36*
X108232250Y-83538500D02*
G01*
X106530250Y-83538500D01*
X106530250Y-81836500D01*
X108232250Y-81836500D01*
X108232250Y-83538500D01*
G37*
G36*
X146219750Y-83538500D02*
G01*
X144517750Y-83538500D01*
X144517750Y-81836500D01*
X146219750Y-81836500D01*
X146219750Y-83538500D01*
G37*
G36*
X153416978Y-81869203D02*
G01*
X153571850Y-81933353D01*
X153711231Y-82026485D01*
X153829765Y-82145019D01*
X153922897Y-82284400D01*
X153987047Y-82439272D01*
X154019750Y-82603684D01*
X154019750Y-82771316D01*
X153987047Y-82935728D01*
X153922897Y-83090600D01*
X153829765Y-83229981D01*
X153711231Y-83348515D01*
X153571850Y-83441647D01*
X153416978Y-83505797D01*
X153252566Y-83538500D01*
X153084934Y-83538500D01*
X152920522Y-83505797D01*
X152765650Y-83441647D01*
X152626269Y-83348515D01*
X152507735Y-83229981D01*
X152414603Y-83090600D01*
X152350453Y-82935728D01*
X152317750Y-82771316D01*
X152317750Y-82603684D01*
X152350453Y-82439272D01*
X152414603Y-82284400D01*
X152507735Y-82145019D01*
X152626269Y-82026485D01*
X152765650Y-81933353D01*
X152920522Y-81869203D01*
X153084934Y-81836500D01*
X153252566Y-81836500D01*
X153416978Y-81869203D01*
G37*
G36*
X148344750Y-83338500D02*
G01*
X147042750Y-83338500D01*
X147042750Y-82036500D01*
X148344750Y-82036500D01*
X148344750Y-83338500D01*
G37*
G36*
X151494750Y-83338500D02*
G01*
X150192750Y-83338500D01*
X150192750Y-82036500D01*
X151494750Y-82036500D01*
X151494750Y-83338500D01*
G37*
G36*
X110357250Y-83338500D02*
G01*
X109055250Y-83338500D01*
X109055250Y-82036500D01*
X110357250Y-82036500D01*
X110357250Y-83338500D01*
G37*
G36*
X129388500Y-83338500D02*
G01*
X128086500Y-83338500D01*
X128086500Y-82036500D01*
X129388500Y-82036500D01*
X129388500Y-83338500D01*
G37*
G36*
X132538500Y-83338500D02*
G01*
X131236500Y-83338500D01*
X131236500Y-82036500D01*
X132538500Y-82036500D01*
X132538500Y-83338500D01*
G37*
G36*
X113507250Y-83338500D02*
G01*
X112205250Y-83338500D01*
X112205250Y-82036500D01*
X113507250Y-82036500D01*
X113507250Y-83338500D01*
G37*
G36*
X131002724Y-76432121D02*
G01*
X131220724Y-76522420D01*
X131374873Y-76586270D01*
X131709798Y-76810060D01*
X131994627Y-77094889D01*
X132218417Y-77429814D01*
X132282267Y-77583963D01*
X132372566Y-77801963D01*
X132451150Y-78197031D01*
X132451150Y-78599843D01*
X132372566Y-78994911D01*
X132288572Y-79197690D01*
X132218417Y-79367060D01*
X131994627Y-79701985D01*
X131709798Y-79986814D01*
X131374873Y-80210604D01*
X131220724Y-80274454D01*
X131002724Y-80364753D01*
X130607656Y-80443337D01*
X130204844Y-80443337D01*
X129809776Y-80364753D01*
X129591776Y-80274454D01*
X129437627Y-80210604D01*
X129102702Y-79986814D01*
X128817873Y-79701985D01*
X128594083Y-79367060D01*
X128523928Y-79197690D01*
X128439934Y-78994911D01*
X128361350Y-78599843D01*
X128361350Y-78197031D01*
X128439934Y-77801963D01*
X128530233Y-77583963D01*
X128594083Y-77429814D01*
X128817873Y-77094889D01*
X129102702Y-76810060D01*
X129437627Y-76586270D01*
X129591776Y-76522420D01*
X129809776Y-76432121D01*
X130204844Y-76353537D01*
X130607656Y-76353537D01*
X131002724Y-76432121D01*
G37*
G36*
X150033974Y-76432121D02*
G01*
X150251974Y-76522420D01*
X150406123Y-76586270D01*
X150741048Y-76810060D01*
X151025877Y-77094889D01*
X151249667Y-77429814D01*
X151313517Y-77583963D01*
X151403816Y-77801963D01*
X151482400Y-78197031D01*
X151482400Y-78599843D01*
X151403816Y-78994911D01*
X151319822Y-79197690D01*
X151249667Y-79367060D01*
X151025877Y-79701985D01*
X150741048Y-79986814D01*
X150406123Y-80210604D01*
X150251974Y-80274454D01*
X150033974Y-80364753D01*
X149638906Y-80443337D01*
X149236094Y-80443337D01*
X148841026Y-80364753D01*
X148623026Y-80274454D01*
X148468877Y-80210604D01*
X148133952Y-79986814D01*
X147849123Y-79701985D01*
X147625333Y-79367060D01*
X147555178Y-79197690D01*
X147471184Y-78994911D01*
X147392600Y-78599843D01*
X147392600Y-78197031D01*
X147471184Y-77801963D01*
X147561483Y-77583963D01*
X147625333Y-77429814D01*
X147849123Y-77094889D01*
X148133952Y-76810060D01*
X148468877Y-76586270D01*
X148623026Y-76522420D01*
X148841026Y-76432121D01*
X149236094Y-76353537D01*
X149638906Y-76353537D01*
X150033974Y-76432121D01*
G37*
G36*
X111971474Y-76432121D02*
G01*
X112189474Y-76522420D01*
X112343623Y-76586270D01*
X112678548Y-76810060D01*
X112963377Y-77094889D01*
X113187167Y-77429814D01*
X113251017Y-77583963D01*
X113341316Y-77801963D01*
X113419900Y-78197031D01*
X113419900Y-78599843D01*
X113341316Y-78994911D01*
X113257322Y-79197690D01*
X113187167Y-79367060D01*
X112963377Y-79701985D01*
X112678548Y-79986814D01*
X112343623Y-80210604D01*
X112189474Y-80274454D01*
X111971474Y-80364753D01*
X111576406Y-80443337D01*
X111173594Y-80443337D01*
X110778526Y-80364753D01*
X110560526Y-80274454D01*
X110406377Y-80210604D01*
X110071452Y-79986814D01*
X109786623Y-79701985D01*
X109562833Y-79367060D01*
X109492678Y-79197690D01*
X109408684Y-78994911D01*
X109330100Y-78599843D01*
X109330100Y-78197031D01*
X109408684Y-77801963D01*
X109498983Y-77583963D01*
X109562833Y-77429814D01*
X109786623Y-77094889D01*
X110071452Y-76810060D01*
X110406377Y-76586270D01*
X110560526Y-76522420D01*
X110778526Y-76432121D01*
X111173594Y-76353537D01*
X111576406Y-76353537D01*
X111971474Y-76432121D01*
G37*
G36*
X144533452Y-77513867D02*
G01*
X144620575Y-77531196D01*
X144729998Y-77576521D01*
X144784711Y-77599184D01*
X144931433Y-77697220D01*
X144932428Y-77697885D01*
X145058052Y-77823509D01*
X145058054Y-77823512D01*
X145156753Y-77971226D01*
X145156753Y-77971227D01*
X145224741Y-78135362D01*
X145259400Y-78309608D01*
X145259400Y-78487266D01*
X145224741Y-78661512D01*
X145179416Y-78770935D01*
X145156753Y-78825648D01*
X145058717Y-78972370D01*
X145058052Y-78973365D01*
X144932428Y-79098989D01*
X144932425Y-79098991D01*
X144784711Y-79197690D01*
X144729998Y-79220353D01*
X144620575Y-79265678D01*
X144533452Y-79283007D01*
X144446331Y-79300337D01*
X144268669Y-79300337D01*
X144181548Y-79283007D01*
X144094425Y-79265678D01*
X143985002Y-79220353D01*
X143930289Y-79197690D01*
X143782575Y-79098991D01*
X143782572Y-79098989D01*
X143656948Y-78973365D01*
X143656283Y-78972370D01*
X143558247Y-78825648D01*
X143535584Y-78770935D01*
X143490259Y-78661512D01*
X143455600Y-78487266D01*
X143455600Y-78309608D01*
X143490259Y-78135362D01*
X143558247Y-77971227D01*
X143558247Y-77971226D01*
X143656946Y-77823512D01*
X143656948Y-77823509D01*
X143782572Y-77697885D01*
X143783567Y-77697220D01*
X143930289Y-77599184D01*
X143985002Y-77576521D01*
X144094425Y-77531196D01*
X144181548Y-77513867D01*
X144268669Y-77496537D01*
X144446331Y-77496537D01*
X144533452Y-77513867D01*
G37*
G36*
X154693452Y-77513867D02*
G01*
X154780575Y-77531196D01*
X154889998Y-77576521D01*
X154944711Y-77599184D01*
X155091433Y-77697220D01*
X155092428Y-77697885D01*
X155218052Y-77823509D01*
X155218054Y-77823512D01*
X155316753Y-77971226D01*
X155316753Y-77971227D01*
X155384741Y-78135362D01*
X155419400Y-78309608D01*
X155419400Y-78487266D01*
X155384741Y-78661512D01*
X155339416Y-78770935D01*
X155316753Y-78825648D01*
X155218717Y-78972370D01*
X155218052Y-78973365D01*
X155092428Y-79098989D01*
X155092425Y-79098991D01*
X154944711Y-79197690D01*
X154889998Y-79220353D01*
X154780575Y-79265678D01*
X154693452Y-79283007D01*
X154606331Y-79300337D01*
X154428669Y-79300337D01*
X154341548Y-79283007D01*
X154254425Y-79265678D01*
X154145002Y-79220353D01*
X154090289Y-79197690D01*
X153942575Y-79098991D01*
X153942572Y-79098989D01*
X153816948Y-78973365D01*
X153816283Y-78972370D01*
X153718247Y-78825648D01*
X153695584Y-78770935D01*
X153650259Y-78661512D01*
X153615600Y-78487266D01*
X153615600Y-78309608D01*
X153650259Y-78135362D01*
X153718247Y-77971227D01*
X153718247Y-77971226D01*
X153816946Y-77823512D01*
X153816948Y-77823509D01*
X153942572Y-77697885D01*
X153943567Y-77697220D01*
X154090289Y-77599184D01*
X154145002Y-77576521D01*
X154254425Y-77531196D01*
X154341548Y-77513867D01*
X154428669Y-77496537D01*
X154606331Y-77496537D01*
X154693452Y-77513867D01*
G37*
G36*
X135662202Y-77513867D02*
G01*
X135749325Y-77531196D01*
X135858748Y-77576521D01*
X135913461Y-77599184D01*
X136060183Y-77697220D01*
X136061178Y-77697885D01*
X136186802Y-77823509D01*
X136186804Y-77823512D01*
X136285503Y-77971226D01*
X136285503Y-77971227D01*
X136353491Y-78135362D01*
X136388150Y-78309608D01*
X136388150Y-78487266D01*
X136353491Y-78661512D01*
X136308166Y-78770935D01*
X136285503Y-78825648D01*
X136187467Y-78972370D01*
X136186802Y-78973365D01*
X136061178Y-79098989D01*
X136061175Y-79098991D01*
X135913461Y-79197690D01*
X135858748Y-79220353D01*
X135749325Y-79265678D01*
X135662202Y-79283007D01*
X135575081Y-79300337D01*
X135397419Y-79300337D01*
X135310298Y-79283007D01*
X135223175Y-79265678D01*
X135113752Y-79220353D01*
X135059039Y-79197690D01*
X134911325Y-79098991D01*
X134911322Y-79098989D01*
X134785698Y-78973365D01*
X134785033Y-78972370D01*
X134686997Y-78825648D01*
X134664334Y-78770935D01*
X134619009Y-78661512D01*
X134584350Y-78487266D01*
X134584350Y-78309608D01*
X134619009Y-78135362D01*
X134686997Y-77971227D01*
X134686997Y-77971226D01*
X134785696Y-77823512D01*
X134785698Y-77823509D01*
X134911322Y-77697885D01*
X134912317Y-77697220D01*
X135059039Y-77599184D01*
X135113752Y-77576521D01*
X135223175Y-77531196D01*
X135310298Y-77513867D01*
X135397419Y-77496537D01*
X135575081Y-77496537D01*
X135662202Y-77513867D01*
G37*
G36*
X125502202Y-77513867D02*
G01*
X125589325Y-77531196D01*
X125698748Y-77576521D01*
X125753461Y-77599184D01*
X125900183Y-77697220D01*
X125901178Y-77697885D01*
X126026802Y-77823509D01*
X126026804Y-77823512D01*
X126125503Y-77971226D01*
X126125503Y-77971227D01*
X126193491Y-78135362D01*
X126228150Y-78309608D01*
X126228150Y-78487266D01*
X126193491Y-78661512D01*
X126148166Y-78770935D01*
X126125503Y-78825648D01*
X126027467Y-78972370D01*
X126026802Y-78973365D01*
X125901178Y-79098989D01*
X125901175Y-79098991D01*
X125753461Y-79197690D01*
X125698748Y-79220353D01*
X125589325Y-79265678D01*
X125502202Y-79283007D01*
X125415081Y-79300337D01*
X125237419Y-79300337D01*
X125150298Y-79283007D01*
X125063175Y-79265678D01*
X124953752Y-79220353D01*
X124899039Y-79197690D01*
X124751325Y-79098991D01*
X124751322Y-79098989D01*
X124625698Y-78973365D01*
X124625033Y-78972370D01*
X124526997Y-78825648D01*
X124504334Y-78770935D01*
X124459009Y-78661512D01*
X124424350Y-78487266D01*
X124424350Y-78309608D01*
X124459009Y-78135362D01*
X124526997Y-77971227D01*
X124526997Y-77971226D01*
X124625696Y-77823512D01*
X124625698Y-77823509D01*
X124751322Y-77697885D01*
X124752317Y-77697220D01*
X124899039Y-77599184D01*
X124953752Y-77576521D01*
X125063175Y-77531196D01*
X125150298Y-77513867D01*
X125237419Y-77496537D01*
X125415081Y-77496537D01*
X125502202Y-77513867D01*
G37*
G36*
X116630952Y-77513867D02*
G01*
X116718075Y-77531196D01*
X116827498Y-77576521D01*
X116882211Y-77599184D01*
X117028933Y-77697220D01*
X117029928Y-77697885D01*
X117155552Y-77823509D01*
X117155554Y-77823512D01*
X117254253Y-77971226D01*
X117254253Y-77971227D01*
X117322241Y-78135362D01*
X117356900Y-78309608D01*
X117356900Y-78487266D01*
X117322241Y-78661512D01*
X117276916Y-78770935D01*
X117254253Y-78825648D01*
X117156217Y-78972370D01*
X117155552Y-78973365D01*
X117029928Y-79098989D01*
X117029925Y-79098991D01*
X116882211Y-79197690D01*
X116827498Y-79220353D01*
X116718075Y-79265678D01*
X116630952Y-79283007D01*
X116543831Y-79300337D01*
X116366169Y-79300337D01*
X116279048Y-79283007D01*
X116191925Y-79265678D01*
X116082502Y-79220353D01*
X116027789Y-79197690D01*
X115880075Y-79098991D01*
X115880072Y-79098989D01*
X115754448Y-78973365D01*
X115753783Y-78972370D01*
X115655747Y-78825648D01*
X115633084Y-78770935D01*
X115587759Y-78661512D01*
X115553100Y-78487266D01*
X115553100Y-78309608D01*
X115587759Y-78135362D01*
X115655747Y-77971227D01*
X115655747Y-77971226D01*
X115754446Y-77823512D01*
X115754448Y-77823509D01*
X115880072Y-77697885D01*
X115881067Y-77697220D01*
X116027789Y-77599184D01*
X116082502Y-77576521D01*
X116191925Y-77531196D01*
X116279048Y-77513867D01*
X116366169Y-77496537D01*
X116543831Y-77496537D01*
X116630952Y-77513867D01*
G37*
G36*
X106470952Y-77513867D02*
G01*
X106558075Y-77531196D01*
X106667498Y-77576521D01*
X106722211Y-77599184D01*
X106868933Y-77697220D01*
X106869928Y-77697885D01*
X106995552Y-77823509D01*
X106995554Y-77823512D01*
X107094253Y-77971226D01*
X107094253Y-77971227D01*
X107162241Y-78135362D01*
X107196900Y-78309608D01*
X107196900Y-78487266D01*
X107162241Y-78661512D01*
X107116916Y-78770935D01*
X107094253Y-78825648D01*
X106996217Y-78972370D01*
X106995552Y-78973365D01*
X106869928Y-79098989D01*
X106869925Y-79098991D01*
X106722211Y-79197690D01*
X106667498Y-79220353D01*
X106558075Y-79265678D01*
X106470952Y-79283007D01*
X106383831Y-79300337D01*
X106206169Y-79300337D01*
X106119048Y-79283007D01*
X106031925Y-79265678D01*
X105922502Y-79220353D01*
X105867789Y-79197690D01*
X105720075Y-79098991D01*
X105720072Y-79098989D01*
X105594448Y-78973365D01*
X105593783Y-78972370D01*
X105495747Y-78825648D01*
X105473084Y-78770935D01*
X105427759Y-78661512D01*
X105393100Y-78487266D01*
X105393100Y-78309608D01*
X105427759Y-78135362D01*
X105495747Y-77971227D01*
X105495747Y-77971226D01*
X105594446Y-77823512D01*
X105594448Y-77823509D01*
X105720072Y-77697885D01*
X105721067Y-77697220D01*
X105867789Y-77599184D01*
X105922502Y-77576521D01*
X106031925Y-77531196D01*
X106119048Y-77513867D01*
X106206169Y-77496537D01*
X106383831Y-77496537D01*
X106470952Y-77513867D01*
G37*
G36*
X108866294Y-72635673D02*
G01*
X108951471Y-72642190D01*
X108991253Y-72653316D01*
X109198275Y-72711214D01*
X109426870Y-72827062D01*
X109628472Y-72985280D01*
X109795334Y-73179790D01*
X109921043Y-73403115D01*
X109999358Y-73642368D01*
X110000768Y-73646676D01*
X110028060Y-73873036D01*
X110031444Y-73901104D01*
X110011895Y-74156632D01*
X109988741Y-74239420D01*
X109942870Y-74403437D01*
X109904559Y-74479033D01*
X109856050Y-74574753D01*
X108578454Y-76580175D01*
X108536457Y-76633687D01*
X108459880Y-76731263D01*
X108265373Y-76898123D01*
X108128755Y-76975024D01*
X108042045Y-77023833D01*
X107824968Y-77094889D01*
X107798484Y-77103558D01*
X107544057Y-77134234D01*
X107544056Y-77134234D01*
X107288529Y-77114685D01*
X107041725Y-77045660D01*
X107041724Y-77045660D01*
X107041722Y-77045659D01*
X106813135Y-76929815D01*
X106813133Y-76929814D01*
X106813130Y-76929812D01*
X106611528Y-76771594D01*
X106611524Y-76771591D01*
X106444667Y-76577087D01*
X106318958Y-76353760D01*
X106318957Y-76353759D01*
X106239233Y-76110201D01*
X106239232Y-76110198D01*
X106208556Y-75855771D01*
X106208556Y-75855770D01*
X106228105Y-75600243D01*
X106297130Y-75353439D01*
X106297130Y-75353438D01*
X106377770Y-75194317D01*
X106383950Y-75182122D01*
X107661545Y-73176699D01*
X107780119Y-73025612D01*
X107924052Y-72902138D01*
X107974630Y-72858749D01*
X108197948Y-72733043D01*
X108197954Y-72733041D01*
X108441511Y-72653317D01*
X108441512Y-72653317D01*
X108441515Y-72653316D01*
X108695941Y-72622640D01*
X108695943Y-72622640D01*
X108866294Y-72635673D01*
G37*
G36*
X146928794Y-72635673D02*
G01*
X147013971Y-72642190D01*
X147053753Y-72653316D01*
X147260775Y-72711214D01*
X147489370Y-72827062D01*
X147690972Y-72985280D01*
X147857834Y-73179790D01*
X147983543Y-73403115D01*
X148061858Y-73642368D01*
X148063268Y-73646676D01*
X148090560Y-73873036D01*
X148093944Y-73901104D01*
X148074395Y-74156632D01*
X148051241Y-74239420D01*
X148005370Y-74403437D01*
X147967059Y-74479033D01*
X147918550Y-74574753D01*
X146640954Y-76580175D01*
X146598957Y-76633687D01*
X146522380Y-76731263D01*
X146327873Y-76898123D01*
X146191255Y-76975024D01*
X146104545Y-77023833D01*
X145887468Y-77094889D01*
X145860984Y-77103558D01*
X145606557Y-77134234D01*
X145606556Y-77134234D01*
X145351029Y-77114685D01*
X145104225Y-77045660D01*
X145104224Y-77045660D01*
X145104222Y-77045659D01*
X144875635Y-76929815D01*
X144875633Y-76929814D01*
X144875630Y-76929812D01*
X144674028Y-76771594D01*
X144674024Y-76771591D01*
X144507167Y-76577087D01*
X144381458Y-76353760D01*
X144381457Y-76353759D01*
X144301733Y-76110201D01*
X144301732Y-76110198D01*
X144271056Y-75855771D01*
X144271056Y-75855770D01*
X144290605Y-75600243D01*
X144359630Y-75353439D01*
X144359630Y-75353438D01*
X144440270Y-75194317D01*
X144446450Y-75182122D01*
X145724045Y-73176699D01*
X145842619Y-73025612D01*
X145986552Y-72902138D01*
X146037130Y-72858749D01*
X146260448Y-72733043D01*
X146260454Y-72733041D01*
X146504011Y-72653317D01*
X146504012Y-72653317D01*
X146504015Y-72653316D01*
X146758441Y-72622640D01*
X146758443Y-72622640D01*
X146928794Y-72635673D01*
G37*
G36*
X127897544Y-72635673D02*
G01*
X127982721Y-72642190D01*
X128022503Y-72653316D01*
X128229525Y-72711214D01*
X128458120Y-72827062D01*
X128659722Y-72985280D01*
X128826584Y-73179790D01*
X128952293Y-73403115D01*
X129030608Y-73642368D01*
X129032018Y-73646676D01*
X129059310Y-73873036D01*
X129062694Y-73901104D01*
X129043145Y-74156632D01*
X129019991Y-74239420D01*
X128974120Y-74403437D01*
X128935809Y-74479033D01*
X128887300Y-74574753D01*
X127609704Y-76580175D01*
X127567707Y-76633687D01*
X127491130Y-76731263D01*
X127296623Y-76898123D01*
X127160005Y-76975024D01*
X127073295Y-77023833D01*
X126856218Y-77094889D01*
X126829734Y-77103558D01*
X126575307Y-77134234D01*
X126575306Y-77134234D01*
X126319779Y-77114685D01*
X126072975Y-77045660D01*
X126072974Y-77045660D01*
X126072972Y-77045659D01*
X125844385Y-76929815D01*
X125844383Y-76929814D01*
X125844380Y-76929812D01*
X125642778Y-76771594D01*
X125642774Y-76771591D01*
X125475917Y-76577087D01*
X125350208Y-76353760D01*
X125350207Y-76353759D01*
X125270483Y-76110201D01*
X125270482Y-76110198D01*
X125239806Y-75855771D01*
X125239806Y-75855770D01*
X125259355Y-75600243D01*
X125328380Y-75353439D01*
X125328380Y-75353438D01*
X125409020Y-75194317D01*
X125415200Y-75182122D01*
X126692795Y-73176699D01*
X126811369Y-73025612D01*
X126955302Y-72902138D01*
X127005880Y-72858749D01*
X127229198Y-72733043D01*
X127229204Y-72733041D01*
X127472761Y-72653317D01*
X127472762Y-72653317D01*
X127472765Y-72653316D01*
X127727191Y-72622640D01*
X127727193Y-72622640D01*
X127897544Y-72635673D01*
G37*
G36*
X152318879Y-72057250D02*
G01*
X152558491Y-72148150D01*
X152775765Y-72284050D01*
X152962352Y-72459725D01*
X153073709Y-72615987D01*
X153111080Y-72668427D01*
X153216235Y-72902134D01*
X153216236Y-72902138D01*
X153273776Y-73151865D01*
X153279558Y-73343831D01*
X153279557Y-73343839D01*
X153231416Y-74050008D01*
X153199635Y-74239420D01*
X153108735Y-74479032D01*
X152972835Y-74696306D01*
X152797160Y-74882893D01*
X152640898Y-74994250D01*
X152588458Y-75031621D01*
X152354751Y-75136776D01*
X152354747Y-75136777D01*
X152105021Y-75194317D01*
X151848866Y-75202031D01*
X151848862Y-75202031D01*
X151596121Y-75159624D01*
X151356509Y-75068724D01*
X151139235Y-74932824D01*
X151086203Y-74882893D01*
X150952648Y-74757149D01*
X150822666Y-74574752D01*
X150803920Y-74548447D01*
X150698765Y-74314740D01*
X150641224Y-74065008D01*
X150640772Y-74050008D01*
X150635442Y-73873045D01*
X150683584Y-73166865D01*
X150707285Y-73025612D01*
X150715365Y-72977454D01*
X150806265Y-72737842D01*
X150942165Y-72520568D01*
X150999450Y-72459725D01*
X151117840Y-72333981D01*
X151274102Y-72222624D01*
X151326542Y-72185253D01*
X151560249Y-72080098D01*
X151560253Y-72080097D01*
X151809979Y-72022557D01*
X152066134Y-72014843D01*
X152066138Y-72014843D01*
X152318879Y-72057250D01*
G37*
G36*
X114256379Y-72057250D02*
G01*
X114495991Y-72148150D01*
X114713265Y-72284050D01*
X114899852Y-72459725D01*
X115011209Y-72615987D01*
X115048580Y-72668427D01*
X115153735Y-72902134D01*
X115153736Y-72902138D01*
X115211276Y-73151865D01*
X115217058Y-73343831D01*
X115217057Y-73343839D01*
X115168916Y-74050008D01*
X115137135Y-74239420D01*
X115046235Y-74479032D01*
X114910335Y-74696306D01*
X114734660Y-74882893D01*
X114578398Y-74994250D01*
X114525958Y-75031621D01*
X114292251Y-75136776D01*
X114292247Y-75136777D01*
X114042521Y-75194317D01*
X113786366Y-75202031D01*
X113786362Y-75202031D01*
X113533621Y-75159624D01*
X113294009Y-75068724D01*
X113076735Y-74932824D01*
X113023703Y-74882893D01*
X112890148Y-74757149D01*
X112760166Y-74574752D01*
X112741420Y-74548447D01*
X112636265Y-74314740D01*
X112578724Y-74065008D01*
X112578272Y-74050008D01*
X112572942Y-73873045D01*
X112621084Y-73166865D01*
X112644785Y-73025612D01*
X112652865Y-72977454D01*
X112743765Y-72737842D01*
X112879665Y-72520568D01*
X112936950Y-72459725D01*
X113055340Y-72333981D01*
X113211602Y-72222624D01*
X113264042Y-72185253D01*
X113497749Y-72080098D01*
X113497753Y-72080097D01*
X113747479Y-72022557D01*
X114003634Y-72014843D01*
X114003638Y-72014843D01*
X114256379Y-72057250D01*
G37*
G36*
X133287629Y-72057250D02*
G01*
X133527241Y-72148150D01*
X133744515Y-72284050D01*
X133931102Y-72459725D01*
X134042459Y-72615987D01*
X134079830Y-72668427D01*
X134184985Y-72902134D01*
X134184986Y-72902138D01*
X134242526Y-73151865D01*
X134248308Y-73343831D01*
X134248307Y-73343839D01*
X134200166Y-74050008D01*
X134168385Y-74239420D01*
X134077485Y-74479032D01*
X133941585Y-74696306D01*
X133765910Y-74882893D01*
X133609648Y-74994250D01*
X133557208Y-75031621D01*
X133323501Y-75136776D01*
X133323497Y-75136777D01*
X133073771Y-75194317D01*
X132817616Y-75202031D01*
X132817612Y-75202031D01*
X132564871Y-75159624D01*
X132325259Y-75068724D01*
X132107985Y-74932824D01*
X132054953Y-74882893D01*
X131921398Y-74757149D01*
X131791416Y-74574752D01*
X131772670Y-74548447D01*
X131667515Y-74314740D01*
X131609974Y-74065008D01*
X131609522Y-74050008D01*
X131604192Y-73873045D01*
X131652334Y-73166865D01*
X131676035Y-73025612D01*
X131684115Y-72977454D01*
X131775015Y-72737842D01*
X131910915Y-72520568D01*
X131968200Y-72459725D01*
X132086590Y-72333981D01*
X132242852Y-72222624D01*
X132295292Y-72185253D01*
X132528999Y-72080098D01*
X132529003Y-72080097D01*
X132778729Y-72022557D01*
X133034884Y-72014843D01*
X133034888Y-72014843D01*
X133287629Y-72057250D01*
G37*
G36*
X108232250Y-64507250D02*
G01*
X106530250Y-64507250D01*
X106530250Y-62805250D01*
X108232250Y-62805250D01*
X108232250Y-64507250D01*
G37*
G36*
X115429478Y-62837953D02*
G01*
X115584350Y-62902103D01*
X115723731Y-62995235D01*
X115842265Y-63113769D01*
X115935397Y-63253150D01*
X115999547Y-63408022D01*
X116032250Y-63572434D01*
X116032250Y-63740066D01*
X115999547Y-63904478D01*
X115935397Y-64059350D01*
X115842265Y-64198731D01*
X115723731Y-64317265D01*
X115584350Y-64410397D01*
X115429478Y-64474547D01*
X115265066Y-64507250D01*
X115097434Y-64507250D01*
X114933022Y-64474547D01*
X114778150Y-64410397D01*
X114638769Y-64317265D01*
X114520235Y-64198731D01*
X114427103Y-64059350D01*
X114362953Y-63904478D01*
X114330250Y-63740066D01*
X114330250Y-63572434D01*
X114362953Y-63408022D01*
X114427103Y-63253150D01*
X114520235Y-63113769D01*
X114638769Y-62995235D01*
X114778150Y-62902103D01*
X114933022Y-62837953D01*
X115097434Y-62805250D01*
X115265066Y-62805250D01*
X115429478Y-62837953D01*
G37*
G36*
X146294750Y-64507250D02*
G01*
X144592750Y-64507250D01*
X144592750Y-62805250D01*
X146294750Y-62805250D01*
X146294750Y-64507250D01*
G37*
G36*
X165326000Y-64507250D02*
G01*
X163624000Y-64507250D01*
X163624000Y-62805250D01*
X165326000Y-62805250D01*
X165326000Y-64507250D01*
G37*
G36*
X172523228Y-62837953D02*
G01*
X172678100Y-62902103D01*
X172817481Y-62995235D01*
X172936015Y-63113769D01*
X173029147Y-63253150D01*
X173093297Y-63408022D01*
X173126000Y-63572434D01*
X173126000Y-63740066D01*
X173093297Y-63904478D01*
X173029147Y-64059350D01*
X172936015Y-64198731D01*
X172817481Y-64317265D01*
X172678100Y-64410397D01*
X172523228Y-64474547D01*
X172358816Y-64507250D01*
X172191184Y-64507250D01*
X172026772Y-64474547D01*
X171871900Y-64410397D01*
X171732519Y-64317265D01*
X171613985Y-64198731D01*
X171520853Y-64059350D01*
X171456703Y-63904478D01*
X171424000Y-63740066D01*
X171424000Y-63572434D01*
X171456703Y-63408022D01*
X171520853Y-63253150D01*
X171613985Y-63113769D01*
X171732519Y-62995235D01*
X171871900Y-62902103D01*
X172026772Y-62837953D01*
X172191184Y-62805250D01*
X172358816Y-62805250D01*
X172523228Y-62837953D01*
G37*
G36*
X153491978Y-62837953D02*
G01*
X153646850Y-62902103D01*
X153786231Y-62995235D01*
X153904765Y-63113769D01*
X153997897Y-63253150D01*
X154062047Y-63408022D01*
X154094750Y-63572434D01*
X154094750Y-63740066D01*
X154062047Y-63904478D01*
X153997897Y-64059350D01*
X153904765Y-64198731D01*
X153786231Y-64317265D01*
X153646850Y-64410397D01*
X153491978Y-64474547D01*
X153327566Y-64507250D01*
X153159934Y-64507250D01*
X152995522Y-64474547D01*
X152840650Y-64410397D01*
X152701269Y-64317265D01*
X152582735Y-64198731D01*
X152489603Y-64059350D01*
X152425453Y-63904478D01*
X152392750Y-63740066D01*
X152392750Y-63572434D01*
X152425453Y-63408022D01*
X152489603Y-63253150D01*
X152582735Y-63113769D01*
X152701269Y-62995235D01*
X152840650Y-62902103D01*
X152995522Y-62837953D01*
X153159934Y-62805250D01*
X153327566Y-62805250D01*
X153491978Y-62837953D01*
G37*
G36*
X127263500Y-64413500D02*
G01*
X125561500Y-64413500D01*
X125561500Y-62711500D01*
X127263500Y-62711500D01*
X127263500Y-64413500D01*
G37*
G36*
X134460728Y-62744203D02*
G01*
X134615600Y-62808353D01*
X134754981Y-62901485D01*
X134873515Y-63020019D01*
X134966647Y-63159400D01*
X135030797Y-63314272D01*
X135063500Y-63478684D01*
X135063500Y-63646316D01*
X135030797Y-63810728D01*
X134966647Y-63965600D01*
X134873515Y-64104981D01*
X134754981Y-64223515D01*
X134615600Y-64316647D01*
X134460728Y-64380797D01*
X134296316Y-64413500D01*
X134128684Y-64413500D01*
X133964272Y-64380797D01*
X133809400Y-64316647D01*
X133670019Y-64223515D01*
X133551485Y-64104981D01*
X133458353Y-63965600D01*
X133394203Y-63810728D01*
X133361500Y-63646316D01*
X133361500Y-63478684D01*
X133394203Y-63314272D01*
X133458353Y-63159400D01*
X133551485Y-63020019D01*
X133670019Y-62901485D01*
X133809400Y-62808353D01*
X133964272Y-62744203D01*
X134128684Y-62711500D01*
X134296316Y-62711500D01*
X134460728Y-62744203D01*
G37*
G36*
X110357250Y-64307250D02*
G01*
X109055250Y-64307250D01*
X109055250Y-63005250D01*
X110357250Y-63005250D01*
X110357250Y-64307250D01*
G37*
G36*
X148419750Y-64307250D02*
G01*
X147117750Y-64307250D01*
X147117750Y-63005250D01*
X148419750Y-63005250D01*
X148419750Y-64307250D01*
G37*
G36*
X113507250Y-64307250D02*
G01*
X112205250Y-64307250D01*
X112205250Y-63005250D01*
X113507250Y-63005250D01*
X113507250Y-64307250D01*
G37*
G36*
X170601000Y-64307250D02*
G01*
X169299000Y-64307250D01*
X169299000Y-63005250D01*
X170601000Y-63005250D01*
X170601000Y-64307250D01*
G37*
G36*
X167451000Y-64307250D02*
G01*
X166149000Y-64307250D01*
X166149000Y-63005250D01*
X167451000Y-63005250D01*
X167451000Y-64307250D01*
G37*
G36*
X151569750Y-64307250D02*
G01*
X150267750Y-64307250D01*
X150267750Y-63005250D01*
X151569750Y-63005250D01*
X151569750Y-64307250D01*
G37*
G36*
X132538500Y-64213500D02*
G01*
X131236500Y-64213500D01*
X131236500Y-62911500D01*
X132538500Y-62911500D01*
X132538500Y-64213500D01*
G37*
G36*
X129388500Y-64213500D02*
G01*
X128086500Y-64213500D01*
X128086500Y-62911500D01*
X129388500Y-62911500D01*
X129388500Y-64213500D01*
G37*
G36*
X169047724Y-57377434D02*
G01*
X169265724Y-57467733D01*
X169419873Y-57531583D01*
X169754798Y-57755373D01*
X170039627Y-58040202D01*
X170263417Y-58375127D01*
X170327267Y-58529276D01*
X170417566Y-58747276D01*
X170496150Y-59142344D01*
X170496150Y-59545156D01*
X170417566Y-59940224D01*
X170333572Y-60143003D01*
X170263417Y-60312373D01*
X170039627Y-60647298D01*
X169754798Y-60932127D01*
X169419873Y-61155917D01*
X169265724Y-61219767D01*
X169047724Y-61310066D01*
X168652656Y-61388650D01*
X168249844Y-61388650D01*
X167854776Y-61310066D01*
X167636776Y-61219767D01*
X167482627Y-61155917D01*
X167147702Y-60932127D01*
X166862873Y-60647298D01*
X166639083Y-60312373D01*
X166568928Y-60143003D01*
X166484934Y-59940224D01*
X166406350Y-59545156D01*
X166406350Y-59142344D01*
X166484934Y-58747276D01*
X166575233Y-58529276D01*
X166639083Y-58375127D01*
X166862873Y-58040202D01*
X167147702Y-57755373D01*
X167482627Y-57531583D01*
X167636776Y-57467733D01*
X167854776Y-57377434D01*
X168249844Y-57298850D01*
X168652656Y-57298850D01*
X169047724Y-57377434D01*
G37*
G36*
X131002724Y-57377434D02*
G01*
X131220724Y-57467733D01*
X131374873Y-57531583D01*
X131709798Y-57755373D01*
X131994627Y-58040202D01*
X132218417Y-58375127D01*
X132282267Y-58529276D01*
X132372566Y-58747276D01*
X132451150Y-59142344D01*
X132451150Y-59545156D01*
X132372566Y-59940224D01*
X132288572Y-60143003D01*
X132218417Y-60312373D01*
X131994627Y-60647298D01*
X131709798Y-60932127D01*
X131374873Y-61155917D01*
X131220724Y-61219767D01*
X131002724Y-61310066D01*
X130607656Y-61388650D01*
X130204844Y-61388650D01*
X129809776Y-61310066D01*
X129591776Y-61219767D01*
X129437627Y-61155917D01*
X129102702Y-60932127D01*
X128817873Y-60647298D01*
X128594083Y-60312373D01*
X128523928Y-60143003D01*
X128439934Y-59940224D01*
X128361350Y-59545156D01*
X128361350Y-59142344D01*
X128439934Y-58747276D01*
X128530233Y-58529276D01*
X128594083Y-58375127D01*
X128817873Y-58040202D01*
X129102702Y-57755373D01*
X129437627Y-57531583D01*
X129591776Y-57467733D01*
X129809776Y-57377434D01*
X130204844Y-57298850D01*
X130607656Y-57298850D01*
X131002724Y-57377434D01*
G37*
G36*
X111971474Y-57377434D02*
G01*
X112189474Y-57467733D01*
X112343623Y-57531583D01*
X112678548Y-57755373D01*
X112963377Y-58040202D01*
X113187167Y-58375127D01*
X113251017Y-58529276D01*
X113341316Y-58747276D01*
X113419900Y-59142344D01*
X113419900Y-59545156D01*
X113341316Y-59940224D01*
X113257322Y-60143003D01*
X113187167Y-60312373D01*
X112963377Y-60647298D01*
X112678548Y-60932127D01*
X112343623Y-61155917D01*
X112189474Y-61219767D01*
X111971474Y-61310066D01*
X111576406Y-61388650D01*
X111173594Y-61388650D01*
X110778526Y-61310066D01*
X110560526Y-61219767D01*
X110406377Y-61155917D01*
X110071452Y-60932127D01*
X109786623Y-60647298D01*
X109562833Y-60312373D01*
X109492678Y-60143003D01*
X109408684Y-59940224D01*
X109330100Y-59545156D01*
X109330100Y-59142344D01*
X109408684Y-58747276D01*
X109498983Y-58529276D01*
X109562833Y-58375127D01*
X109786623Y-58040202D01*
X110071452Y-57755373D01*
X110406377Y-57531583D01*
X110560526Y-57467733D01*
X110778526Y-57377434D01*
X111173594Y-57298850D01*
X111576406Y-57298850D01*
X111971474Y-57377434D01*
G37*
G36*
X150033974Y-57377434D02*
G01*
X150251974Y-57467733D01*
X150406123Y-57531583D01*
X150741048Y-57755373D01*
X151025877Y-58040202D01*
X151249667Y-58375127D01*
X151313517Y-58529276D01*
X151403816Y-58747276D01*
X151482400Y-59142344D01*
X151482400Y-59545156D01*
X151403816Y-59940224D01*
X151319822Y-60143003D01*
X151249667Y-60312373D01*
X151025877Y-60647298D01*
X150741048Y-60932127D01*
X150406123Y-61155917D01*
X150251974Y-61219767D01*
X150033974Y-61310066D01*
X149638906Y-61388650D01*
X149236094Y-61388650D01*
X148841026Y-61310066D01*
X148623026Y-61219767D01*
X148468877Y-61155917D01*
X148133952Y-60932127D01*
X147849123Y-60647298D01*
X147625333Y-60312373D01*
X147555178Y-60143003D01*
X147471184Y-59940224D01*
X147392600Y-59545156D01*
X147392600Y-59142344D01*
X147471184Y-58747276D01*
X147561483Y-58529276D01*
X147625333Y-58375127D01*
X147849123Y-58040202D01*
X148133952Y-57755373D01*
X148468877Y-57531583D01*
X148623026Y-57467733D01*
X148841026Y-57377434D01*
X149236094Y-57298850D01*
X149638906Y-57298850D01*
X150033974Y-57377434D01*
G37*
G36*
X154693452Y-58459180D02*
G01*
X154780575Y-58476509D01*
X154889998Y-58521834D01*
X154944711Y-58544497D01*
X155091433Y-58642533D01*
X155092428Y-58643198D01*
X155218052Y-58768822D01*
X155218054Y-58768825D01*
X155316753Y-58916539D01*
X155316753Y-58916540D01*
X155384741Y-59080675D01*
X155419400Y-59254921D01*
X155419400Y-59432579D01*
X155384741Y-59606825D01*
X155339416Y-59716248D01*
X155316753Y-59770961D01*
X155218717Y-59917683D01*
X155218052Y-59918678D01*
X155092428Y-60044302D01*
X155092425Y-60044304D01*
X154944711Y-60143003D01*
X154889998Y-60165666D01*
X154780575Y-60210991D01*
X154693452Y-60228320D01*
X154606331Y-60245650D01*
X154428669Y-60245650D01*
X154341548Y-60228320D01*
X154254425Y-60210991D01*
X154145002Y-60165666D01*
X154090289Y-60143003D01*
X153942575Y-60044304D01*
X153942572Y-60044302D01*
X153816948Y-59918678D01*
X153816283Y-59917683D01*
X153718247Y-59770961D01*
X153695584Y-59716248D01*
X153650259Y-59606825D01*
X153615600Y-59432579D01*
X153615600Y-59254921D01*
X153650259Y-59080675D01*
X153718247Y-58916540D01*
X153718247Y-58916539D01*
X153816946Y-58768825D01*
X153816948Y-58768822D01*
X153942572Y-58643198D01*
X153943567Y-58642533D01*
X154090289Y-58544497D01*
X154145002Y-58521834D01*
X154254425Y-58476509D01*
X154341548Y-58459180D01*
X154428669Y-58441850D01*
X154606331Y-58441850D01*
X154693452Y-58459180D01*
G37*
G36*
X173707202Y-58459180D02*
G01*
X173794325Y-58476509D01*
X173903748Y-58521834D01*
X173958461Y-58544497D01*
X174105183Y-58642533D01*
X174106178Y-58643198D01*
X174231802Y-58768822D01*
X174231804Y-58768825D01*
X174330503Y-58916539D01*
X174330503Y-58916540D01*
X174398491Y-59080675D01*
X174433150Y-59254921D01*
X174433150Y-59432579D01*
X174398491Y-59606825D01*
X174353166Y-59716248D01*
X174330503Y-59770961D01*
X174232467Y-59917683D01*
X174231802Y-59918678D01*
X174106178Y-60044302D01*
X174106175Y-60044304D01*
X173958461Y-60143003D01*
X173903748Y-60165666D01*
X173794325Y-60210991D01*
X173707202Y-60228320D01*
X173620081Y-60245650D01*
X173442419Y-60245650D01*
X173355298Y-60228320D01*
X173268175Y-60210991D01*
X173158752Y-60165666D01*
X173104039Y-60143003D01*
X172956325Y-60044304D01*
X172956322Y-60044302D01*
X172830698Y-59918678D01*
X172830033Y-59917683D01*
X172731997Y-59770961D01*
X172709334Y-59716248D01*
X172664009Y-59606825D01*
X172629350Y-59432579D01*
X172629350Y-59254921D01*
X172664009Y-59080675D01*
X172731997Y-58916540D01*
X172731997Y-58916539D01*
X172830696Y-58768825D01*
X172830698Y-58768822D01*
X172956322Y-58643198D01*
X172957317Y-58642533D01*
X173104039Y-58544497D01*
X173158752Y-58521834D01*
X173268175Y-58476509D01*
X173355298Y-58459180D01*
X173442419Y-58441850D01*
X173620081Y-58441850D01*
X173707202Y-58459180D01*
G37*
G36*
X116630952Y-58459180D02*
G01*
X116718075Y-58476509D01*
X116827498Y-58521834D01*
X116882211Y-58544497D01*
X117028933Y-58642533D01*
X117029928Y-58643198D01*
X117155552Y-58768822D01*
X117155554Y-58768825D01*
X117254253Y-58916539D01*
X117254253Y-58916540D01*
X117322241Y-59080675D01*
X117356900Y-59254921D01*
X117356900Y-59432579D01*
X117322241Y-59606825D01*
X117276916Y-59716248D01*
X117254253Y-59770961D01*
X117156217Y-59917683D01*
X117155552Y-59918678D01*
X117029928Y-60044302D01*
X117029925Y-60044304D01*
X116882211Y-60143003D01*
X116827498Y-60165666D01*
X116718075Y-60210991D01*
X116630952Y-60228320D01*
X116543831Y-60245650D01*
X116366169Y-60245650D01*
X116279048Y-60228320D01*
X116191925Y-60210991D01*
X116082502Y-60165666D01*
X116027789Y-60143003D01*
X115880075Y-60044304D01*
X115880072Y-60044302D01*
X115754448Y-59918678D01*
X115753783Y-59917683D01*
X115655747Y-59770961D01*
X115633084Y-59716248D01*
X115587759Y-59606825D01*
X115553100Y-59432579D01*
X115553100Y-59254921D01*
X115587759Y-59080675D01*
X115655747Y-58916540D01*
X115655747Y-58916539D01*
X115754446Y-58768825D01*
X115754448Y-58768822D01*
X115880072Y-58643198D01*
X115881067Y-58642533D01*
X116027789Y-58544497D01*
X116082502Y-58521834D01*
X116191925Y-58476509D01*
X116279048Y-58459180D01*
X116366169Y-58441850D01*
X116543831Y-58441850D01*
X116630952Y-58459180D01*
G37*
G36*
X106470952Y-58459180D02*
G01*
X106558075Y-58476509D01*
X106667498Y-58521834D01*
X106722211Y-58544497D01*
X106868933Y-58642533D01*
X106869928Y-58643198D01*
X106995552Y-58768822D01*
X106995554Y-58768825D01*
X107094253Y-58916539D01*
X107094253Y-58916540D01*
X107162241Y-59080675D01*
X107196900Y-59254921D01*
X107196900Y-59432579D01*
X107162241Y-59606825D01*
X107116916Y-59716248D01*
X107094253Y-59770961D01*
X106996217Y-59917683D01*
X106995552Y-59918678D01*
X106869928Y-60044302D01*
X106869925Y-60044304D01*
X106722211Y-60143003D01*
X106667498Y-60165666D01*
X106558075Y-60210991D01*
X106470952Y-60228320D01*
X106383831Y-60245650D01*
X106206169Y-60245650D01*
X106119048Y-60228320D01*
X106031925Y-60210991D01*
X105922502Y-60165666D01*
X105867789Y-60143003D01*
X105720075Y-60044304D01*
X105720072Y-60044302D01*
X105594448Y-59918678D01*
X105593783Y-59917683D01*
X105495747Y-59770961D01*
X105473084Y-59716248D01*
X105427759Y-59606825D01*
X105393100Y-59432579D01*
X105393100Y-59254921D01*
X105427759Y-59080675D01*
X105495747Y-58916540D01*
X105495747Y-58916539D01*
X105594446Y-58768825D01*
X105594448Y-58768822D01*
X105720072Y-58643198D01*
X105721067Y-58642533D01*
X105867789Y-58544497D01*
X105922502Y-58521834D01*
X106031925Y-58476509D01*
X106119048Y-58459180D01*
X106206169Y-58441850D01*
X106383831Y-58441850D01*
X106470952Y-58459180D01*
G37*
G36*
X163547202Y-58459180D02*
G01*
X163634325Y-58476509D01*
X163743748Y-58521834D01*
X163798461Y-58544497D01*
X163945183Y-58642533D01*
X163946178Y-58643198D01*
X164071802Y-58768822D01*
X164071804Y-58768825D01*
X164170503Y-58916539D01*
X164170503Y-58916540D01*
X164238491Y-59080675D01*
X164273150Y-59254921D01*
X164273150Y-59432579D01*
X164238491Y-59606825D01*
X164193166Y-59716248D01*
X164170503Y-59770961D01*
X164072467Y-59917683D01*
X164071802Y-59918678D01*
X163946178Y-60044302D01*
X163946175Y-60044304D01*
X163798461Y-60143003D01*
X163743748Y-60165666D01*
X163634325Y-60210991D01*
X163547202Y-60228320D01*
X163460081Y-60245650D01*
X163282419Y-60245650D01*
X163195298Y-60228320D01*
X163108175Y-60210991D01*
X162998752Y-60165666D01*
X162944039Y-60143003D01*
X162796325Y-60044304D01*
X162796322Y-60044302D01*
X162670698Y-59918678D01*
X162670033Y-59917683D01*
X162571997Y-59770961D01*
X162549334Y-59716248D01*
X162504009Y-59606825D01*
X162469350Y-59432579D01*
X162469350Y-59254921D01*
X162504009Y-59080675D01*
X162571997Y-58916540D01*
X162571997Y-58916539D01*
X162670696Y-58768825D01*
X162670698Y-58768822D01*
X162796322Y-58643198D01*
X162797317Y-58642533D01*
X162944039Y-58544497D01*
X162998752Y-58521834D01*
X163108175Y-58476509D01*
X163195298Y-58459180D01*
X163282419Y-58441850D01*
X163460081Y-58441850D01*
X163547202Y-58459180D01*
G37*
G36*
X144533452Y-58459180D02*
G01*
X144620575Y-58476509D01*
X144729998Y-58521834D01*
X144784711Y-58544497D01*
X144931433Y-58642533D01*
X144932428Y-58643198D01*
X145058052Y-58768822D01*
X145058054Y-58768825D01*
X145156753Y-58916539D01*
X145156753Y-58916540D01*
X145224741Y-59080675D01*
X145259400Y-59254921D01*
X145259400Y-59432579D01*
X145224741Y-59606825D01*
X145179416Y-59716248D01*
X145156753Y-59770961D01*
X145058717Y-59917683D01*
X145058052Y-59918678D01*
X144932428Y-60044302D01*
X144932425Y-60044304D01*
X144784711Y-60143003D01*
X144729998Y-60165666D01*
X144620575Y-60210991D01*
X144533452Y-60228320D01*
X144446331Y-60245650D01*
X144268669Y-60245650D01*
X144181548Y-60228320D01*
X144094425Y-60210991D01*
X143985002Y-60165666D01*
X143930289Y-60143003D01*
X143782575Y-60044304D01*
X143782572Y-60044302D01*
X143656948Y-59918678D01*
X143656283Y-59917683D01*
X143558247Y-59770961D01*
X143535584Y-59716248D01*
X143490259Y-59606825D01*
X143455600Y-59432579D01*
X143455600Y-59254921D01*
X143490259Y-59080675D01*
X143558247Y-58916540D01*
X143558247Y-58916539D01*
X143656946Y-58768825D01*
X143656948Y-58768822D01*
X143782572Y-58643198D01*
X143783567Y-58642533D01*
X143930289Y-58544497D01*
X143985002Y-58521834D01*
X144094425Y-58476509D01*
X144181548Y-58459180D01*
X144268669Y-58441850D01*
X144446331Y-58441850D01*
X144533452Y-58459180D01*
G37*
G36*
X165942544Y-53580986D02*
G01*
X166027721Y-53587503D01*
X166067503Y-53598629D01*
X166274525Y-53656527D01*
X166503120Y-53772375D01*
X166704722Y-53930593D01*
X166871584Y-54125103D01*
X166997293Y-54348428D01*
X167075608Y-54587681D01*
X167077018Y-54591989D01*
X167104310Y-54818349D01*
X167107694Y-54846417D01*
X167088145Y-55101945D01*
X167064991Y-55184733D01*
X167019120Y-55348750D01*
X166980809Y-55424346D01*
X166932300Y-55520066D01*
X165654704Y-57525488D01*
X165612707Y-57579000D01*
X165536130Y-57676576D01*
X165341623Y-57843436D01*
X165205005Y-57920337D01*
X165118295Y-57969146D01*
X164901218Y-58040202D01*
X164874734Y-58048871D01*
X164620307Y-58079547D01*
X164620306Y-58079547D01*
X164364779Y-58059998D01*
X164117975Y-57990973D01*
X164117974Y-57990973D01*
X164117972Y-57990972D01*
X163889385Y-57875128D01*
X163889383Y-57875127D01*
X163889380Y-57875125D01*
X163687778Y-57716907D01*
X163687774Y-57716904D01*
X163520917Y-57522400D01*
X163395208Y-57299073D01*
X163395207Y-57299072D01*
X163315483Y-57055514D01*
X163315482Y-57055511D01*
X163284806Y-56801084D01*
X163284806Y-56801083D01*
X163304355Y-56545556D01*
X163373380Y-56298752D01*
X163373380Y-56298751D01*
X163454020Y-56139630D01*
X163460200Y-56127435D01*
X164737795Y-54122012D01*
X164856369Y-53970925D01*
X165000302Y-53847451D01*
X165050880Y-53804062D01*
X165274198Y-53678356D01*
X165274204Y-53678354D01*
X165517761Y-53598630D01*
X165517762Y-53598630D01*
X165517765Y-53598629D01*
X165772191Y-53567953D01*
X165772193Y-53567953D01*
X165942544Y-53580986D01*
G37*
G36*
X127897544Y-53580986D02*
G01*
X127982721Y-53587503D01*
X128022503Y-53598629D01*
X128229525Y-53656527D01*
X128458120Y-53772375D01*
X128659722Y-53930593D01*
X128826584Y-54125103D01*
X128952293Y-54348428D01*
X129030608Y-54587681D01*
X129032018Y-54591989D01*
X129059310Y-54818349D01*
X129062694Y-54846417D01*
X129043145Y-55101945D01*
X129019991Y-55184733D01*
X128974120Y-55348750D01*
X128935809Y-55424346D01*
X128887300Y-55520066D01*
X127609704Y-57525488D01*
X127567707Y-57579000D01*
X127491130Y-57676576D01*
X127296623Y-57843436D01*
X127160005Y-57920337D01*
X127073295Y-57969146D01*
X126856218Y-58040202D01*
X126829734Y-58048871D01*
X126575307Y-58079547D01*
X126575306Y-58079547D01*
X126319779Y-58059998D01*
X126072975Y-57990973D01*
X126072974Y-57990973D01*
X126072972Y-57990972D01*
X125844385Y-57875128D01*
X125844383Y-57875127D01*
X125844380Y-57875125D01*
X125642778Y-57716907D01*
X125642774Y-57716904D01*
X125475917Y-57522400D01*
X125350208Y-57299073D01*
X125350207Y-57299072D01*
X125270483Y-57055514D01*
X125270482Y-57055511D01*
X125239806Y-56801084D01*
X125239806Y-56801083D01*
X125259355Y-56545556D01*
X125328380Y-56298752D01*
X125328380Y-56298751D01*
X125409020Y-56139630D01*
X125415200Y-56127435D01*
X126692795Y-54122012D01*
X126811369Y-53970925D01*
X126955302Y-53847451D01*
X127005880Y-53804062D01*
X127229198Y-53678356D01*
X127229204Y-53678354D01*
X127472761Y-53598630D01*
X127472762Y-53598630D01*
X127472765Y-53598629D01*
X127727191Y-53567953D01*
X127727193Y-53567953D01*
X127897544Y-53580986D01*
G37*
G36*
X146928794Y-53580986D02*
G01*
X147013971Y-53587503D01*
X147053753Y-53598629D01*
X147260775Y-53656527D01*
X147489370Y-53772375D01*
X147690972Y-53930593D01*
X147857834Y-54125103D01*
X147983543Y-54348428D01*
X148061858Y-54587681D01*
X148063268Y-54591989D01*
X148090560Y-54818349D01*
X148093944Y-54846417D01*
X148074395Y-55101945D01*
X148051241Y-55184733D01*
X148005370Y-55348750D01*
X147967059Y-55424346D01*
X147918550Y-55520066D01*
X146640954Y-57525488D01*
X146598957Y-57579000D01*
X146522380Y-57676576D01*
X146327873Y-57843436D01*
X146191255Y-57920337D01*
X146104545Y-57969146D01*
X145887468Y-58040202D01*
X145860984Y-58048871D01*
X145606557Y-58079547D01*
X145606556Y-58079547D01*
X145351029Y-58059998D01*
X145104225Y-57990973D01*
X145104224Y-57990973D01*
X145104222Y-57990972D01*
X144875635Y-57875128D01*
X144875633Y-57875127D01*
X144875630Y-57875125D01*
X144674028Y-57716907D01*
X144674024Y-57716904D01*
X144507167Y-57522400D01*
X144381458Y-57299073D01*
X144381457Y-57299072D01*
X144301733Y-57055514D01*
X144301732Y-57055511D01*
X144271056Y-56801084D01*
X144271056Y-56801083D01*
X144290605Y-56545556D01*
X144359630Y-56298752D01*
X144359630Y-56298751D01*
X144440270Y-56139630D01*
X144446450Y-56127435D01*
X145724045Y-54122012D01*
X145842619Y-53970925D01*
X145986552Y-53847451D01*
X146037130Y-53804062D01*
X146260448Y-53678356D01*
X146260454Y-53678354D01*
X146504011Y-53598630D01*
X146504012Y-53598630D01*
X146504015Y-53598629D01*
X146758441Y-53567953D01*
X146758443Y-53567953D01*
X146928794Y-53580986D01*
G37*
G36*
X108866294Y-53580986D02*
G01*
X108951471Y-53587503D01*
X108991253Y-53598629D01*
X109198275Y-53656527D01*
X109426870Y-53772375D01*
X109628472Y-53930593D01*
X109795334Y-54125103D01*
X109921043Y-54348428D01*
X109999358Y-54587681D01*
X110000768Y-54591989D01*
X110028060Y-54818349D01*
X110031444Y-54846417D01*
X110011895Y-55101945D01*
X109988741Y-55184733D01*
X109942870Y-55348750D01*
X109904559Y-55424346D01*
X109856050Y-55520066D01*
X108578454Y-57525488D01*
X108536457Y-57579000D01*
X108459880Y-57676576D01*
X108265373Y-57843436D01*
X108128755Y-57920337D01*
X108042045Y-57969146D01*
X107824968Y-58040202D01*
X107798484Y-58048871D01*
X107544057Y-58079547D01*
X107544056Y-58079547D01*
X107288529Y-58059998D01*
X107041725Y-57990973D01*
X107041724Y-57990973D01*
X107041722Y-57990972D01*
X106813135Y-57875128D01*
X106813133Y-57875127D01*
X106813130Y-57875125D01*
X106611528Y-57716907D01*
X106611524Y-57716904D01*
X106444667Y-57522400D01*
X106318958Y-57299073D01*
X106318957Y-57299072D01*
X106239233Y-57055514D01*
X106239232Y-57055511D01*
X106208556Y-56801084D01*
X106208556Y-56801083D01*
X106228105Y-56545556D01*
X106297130Y-56298752D01*
X106297130Y-56298751D01*
X106377770Y-56139630D01*
X106383950Y-56127435D01*
X107661545Y-54122012D01*
X107780119Y-53970925D01*
X107924052Y-53847451D01*
X107974630Y-53804062D01*
X108197948Y-53678356D01*
X108197954Y-53678354D01*
X108441511Y-53598630D01*
X108441512Y-53598630D01*
X108441515Y-53598629D01*
X108695941Y-53567953D01*
X108695943Y-53567953D01*
X108866294Y-53580986D01*
G37*
G36*
X114256379Y-53002563D02*
G01*
X114495991Y-53093463D01*
X114713265Y-53229363D01*
X114899852Y-53405038D01*
X115011209Y-53561300D01*
X115048580Y-53613740D01*
X115153735Y-53847447D01*
X115153736Y-53847451D01*
X115211276Y-54097178D01*
X115217058Y-54289144D01*
X115217057Y-54289152D01*
X115168916Y-54995321D01*
X115137135Y-55184733D01*
X115046235Y-55424345D01*
X114910335Y-55641619D01*
X114734660Y-55828206D01*
X114578398Y-55939563D01*
X114525958Y-55976934D01*
X114292251Y-56082089D01*
X114292247Y-56082090D01*
X114042521Y-56139630D01*
X113786366Y-56147344D01*
X113786362Y-56147344D01*
X113533621Y-56104937D01*
X113294009Y-56014037D01*
X113076735Y-55878137D01*
X113023703Y-55828206D01*
X112890148Y-55702462D01*
X112760166Y-55520065D01*
X112741420Y-55493760D01*
X112636265Y-55260053D01*
X112578724Y-55010321D01*
X112578272Y-54995321D01*
X112572942Y-54818358D01*
X112621084Y-54112178D01*
X112644785Y-53970925D01*
X112652865Y-53922767D01*
X112743765Y-53683155D01*
X112879665Y-53465881D01*
X112936950Y-53405038D01*
X113055340Y-53279294D01*
X113211602Y-53167937D01*
X113264042Y-53130566D01*
X113497749Y-53025411D01*
X113497753Y-53025410D01*
X113747479Y-52967870D01*
X114003634Y-52960156D01*
X114003638Y-52960156D01*
X114256379Y-53002563D01*
G37*
G36*
X152318879Y-53002563D02*
G01*
X152558491Y-53093463D01*
X152775765Y-53229363D01*
X152962352Y-53405038D01*
X153073709Y-53561300D01*
X153111080Y-53613740D01*
X153216235Y-53847447D01*
X153216236Y-53847451D01*
X153273776Y-54097178D01*
X153279558Y-54289144D01*
X153279557Y-54289152D01*
X153231416Y-54995321D01*
X153199635Y-55184733D01*
X153108735Y-55424345D01*
X152972835Y-55641619D01*
X152797160Y-55828206D01*
X152640898Y-55939563D01*
X152588458Y-55976934D01*
X152354751Y-56082089D01*
X152354747Y-56082090D01*
X152105021Y-56139630D01*
X151848866Y-56147344D01*
X151848862Y-56147344D01*
X151596121Y-56104937D01*
X151356509Y-56014037D01*
X151139235Y-55878137D01*
X151086203Y-55828206D01*
X150952648Y-55702462D01*
X150822666Y-55520065D01*
X150803920Y-55493760D01*
X150698765Y-55260053D01*
X150641224Y-55010321D01*
X150640772Y-54995321D01*
X150635442Y-54818358D01*
X150683584Y-54112178D01*
X150707285Y-53970925D01*
X150715365Y-53922767D01*
X150806265Y-53683155D01*
X150942165Y-53465881D01*
X150999450Y-53405038D01*
X151117840Y-53279294D01*
X151274102Y-53167937D01*
X151326542Y-53130566D01*
X151560249Y-53025411D01*
X151560253Y-53025410D01*
X151809979Y-52967870D01*
X152066134Y-52960156D01*
X152066138Y-52960156D01*
X152318879Y-53002563D01*
G37*
G36*
X171332629Y-53002563D02*
G01*
X171572241Y-53093463D01*
X171789515Y-53229363D01*
X171976102Y-53405038D01*
X172087459Y-53561300D01*
X172124830Y-53613740D01*
X172229985Y-53847447D01*
X172229986Y-53847451D01*
X172287526Y-54097178D01*
X172293308Y-54289144D01*
X172293307Y-54289152D01*
X172245166Y-54995321D01*
X172213385Y-55184733D01*
X172122485Y-55424345D01*
X171986585Y-55641619D01*
X171810910Y-55828206D01*
X171654648Y-55939563D01*
X171602208Y-55976934D01*
X171368501Y-56082089D01*
X171368497Y-56082090D01*
X171118771Y-56139630D01*
X170862616Y-56147344D01*
X170862612Y-56147344D01*
X170609871Y-56104937D01*
X170370259Y-56014037D01*
X170152985Y-55878137D01*
X170099953Y-55828206D01*
X169966398Y-55702462D01*
X169836416Y-55520065D01*
X169817670Y-55493760D01*
X169712515Y-55260053D01*
X169654974Y-55010321D01*
X169654522Y-54995321D01*
X169649192Y-54818358D01*
X169697334Y-54112178D01*
X169721035Y-53970925D01*
X169729115Y-53922767D01*
X169820015Y-53683155D01*
X169955915Y-53465881D01*
X170013200Y-53405038D01*
X170131590Y-53279294D01*
X170287852Y-53167937D01*
X170340292Y-53130566D01*
X170573999Y-53025411D01*
X170574003Y-53025410D01*
X170823729Y-52967870D01*
X171079884Y-52960156D01*
X171079888Y-52960156D01*
X171332629Y-53002563D01*
G37*
G36*
X133287629Y-53002563D02*
G01*
X133527241Y-53093463D01*
X133744515Y-53229363D01*
X133931102Y-53405038D01*
X134042459Y-53561300D01*
X134079830Y-53613740D01*
X134184985Y-53847447D01*
X134184986Y-53847451D01*
X134242526Y-54097178D01*
X134248308Y-54289144D01*
X134248307Y-54289152D01*
X134200166Y-54995321D01*
X134168385Y-55184733D01*
X134077485Y-55424345D01*
X133941585Y-55641619D01*
X133765910Y-55828206D01*
X133609648Y-55939563D01*
X133557208Y-55976934D01*
X133323501Y-56082089D01*
X133323497Y-56082090D01*
X133073771Y-56139630D01*
X132817616Y-56147344D01*
X132817612Y-56147344D01*
X132564871Y-56104937D01*
X132325259Y-56014037D01*
X132107985Y-55878137D01*
X132054953Y-55828206D01*
X131921398Y-55702462D01*
X131791416Y-55520065D01*
X131772670Y-55493760D01*
X131667515Y-55260053D01*
X131609974Y-55010321D01*
X131609522Y-54995321D01*
X131604192Y-54818358D01*
X131652334Y-54112178D01*
X131676035Y-53970925D01*
X131684115Y-53922767D01*
X131775015Y-53683155D01*
X131910915Y-53465881D01*
X131968200Y-53405038D01*
X132086590Y-53279294D01*
X132242852Y-53167937D01*
X132295292Y-53130566D01*
X132528999Y-53025411D01*
X132529003Y-53025410D01*
X132778729Y-52967870D01*
X133034884Y-52960156D01*
X133034888Y-52960156D01*
X133287629Y-53002563D01*
G37*
G36*
X153554924Y-46757215D02*
G01*
X153592617Y-46768649D01*
X153627353Y-46787216D01*
X153657798Y-46812202D01*
X153682784Y-46842647D01*
X153701351Y-46877383D01*
X153712785Y-46915076D01*
X153717250Y-46960411D01*
X153717250Y-48047089D01*
X153712785Y-48092424D01*
X153701351Y-48130117D01*
X153682784Y-48164853D01*
X153657798Y-48195298D01*
X153627353Y-48220284D01*
X153592617Y-48238851D01*
X153554924Y-48250285D01*
X153509589Y-48254750D01*
X152672911Y-48254750D01*
X152627576Y-48250285D01*
X152589883Y-48238851D01*
X152555147Y-48220284D01*
X152524702Y-48195298D01*
X152499716Y-48164853D01*
X152481149Y-48130117D01*
X152469715Y-48092424D01*
X152465250Y-48047089D01*
X152465250Y-46960411D01*
X152469715Y-46915076D01*
X152481149Y-46877383D01*
X152499716Y-46842647D01*
X152524702Y-46812202D01*
X152555147Y-46787216D01*
X152589883Y-46768649D01*
X152627576Y-46757215D01*
X152672911Y-46752750D01*
X153509589Y-46752750D01*
X153554924Y-46757215D01*
G37*
G36*
X157686174Y-46757215D02*
G01*
X157723867Y-46768649D01*
X157758603Y-46787216D01*
X157789048Y-46812202D01*
X157814034Y-46842647D01*
X157832601Y-46877383D01*
X157844035Y-46915076D01*
X157848500Y-46960411D01*
X157848500Y-48047089D01*
X157844035Y-48092424D01*
X157832601Y-48130117D01*
X157814034Y-48164853D01*
X157789048Y-48195298D01*
X157758603Y-48220284D01*
X157723867Y-48238851D01*
X157686174Y-48250285D01*
X157640839Y-48254750D01*
X156804161Y-48254750D01*
X156758826Y-48250285D01*
X156721133Y-48238851D01*
X156686397Y-48220284D01*
X156655952Y-48195298D01*
X156630966Y-48164853D01*
X156612399Y-48130117D01*
X156600965Y-48092424D01*
X156596500Y-48047089D01*
X156596500Y-46960411D01*
X156600965Y-46915076D01*
X156612399Y-46877383D01*
X156630966Y-46842647D01*
X156655952Y-46812202D01*
X156686397Y-46787216D01*
X156721133Y-46768649D01*
X156758826Y-46757215D01*
X156804161Y-46752750D01*
X157640839Y-46752750D01*
X157686174Y-46757215D01*
G37*
G36*
X155604924Y-46757215D02*
G01*
X155642617Y-46768649D01*
X155677353Y-46787216D01*
X155707798Y-46812202D01*
X155732784Y-46842647D01*
X155751351Y-46877383D01*
X155762785Y-46915076D01*
X155767250Y-46960411D01*
X155767250Y-48047089D01*
X155762785Y-48092424D01*
X155751351Y-48130117D01*
X155732784Y-48164853D01*
X155707798Y-48195298D01*
X155677353Y-48220284D01*
X155642617Y-48238851D01*
X155604924Y-48250285D01*
X155559589Y-48254750D01*
X154722911Y-48254750D01*
X154677576Y-48250285D01*
X154639883Y-48238851D01*
X154605147Y-48220284D01*
X154574702Y-48195298D01*
X154549716Y-48164853D01*
X154531149Y-48130117D01*
X154519715Y-48092424D01*
X154515250Y-48047089D01*
X154515250Y-46960411D01*
X154519715Y-46915076D01*
X154531149Y-46877383D01*
X154549716Y-46842647D01*
X154574702Y-46812202D01*
X154605147Y-46787216D01*
X154639883Y-46768649D01*
X154677576Y-46757215D01*
X154722911Y-46752750D01*
X155559589Y-46752750D01*
X155604924Y-46757215D01*
G37*
G36*
X159736174Y-46757215D02*
G01*
X159773867Y-46768649D01*
X159808603Y-46787216D01*
X159839048Y-46812202D01*
X159864034Y-46842647D01*
X159882601Y-46877383D01*
X159894035Y-46915076D01*
X159898500Y-46960411D01*
X159898500Y-48047089D01*
X159894035Y-48092424D01*
X159882601Y-48130117D01*
X159864034Y-48164853D01*
X159839048Y-48195298D01*
X159808603Y-48220284D01*
X159773867Y-48238851D01*
X159736174Y-48250285D01*
X159690839Y-48254750D01*
X158854161Y-48254750D01*
X158808826Y-48250285D01*
X158771133Y-48238851D01*
X158736397Y-48220284D01*
X158705952Y-48195298D01*
X158680966Y-48164853D01*
X158662399Y-48130117D01*
X158650965Y-48092424D01*
X158646500Y-48047089D01*
X158646500Y-46960411D01*
X158650965Y-46915076D01*
X158662399Y-46877383D01*
X158680966Y-46842647D01*
X158705952Y-46812202D01*
X158736397Y-46787216D01*
X158771133Y-46768649D01*
X158808826Y-46757215D01*
X158854161Y-46752750D01*
X159690839Y-46752750D01*
X159736174Y-46757215D01*
G37*
G36*
X143586000Y-45461000D02*
G01*
X142484000Y-45461000D01*
X142484000Y-43659000D01*
X143586000Y-43659000D01*
X143586000Y-45461000D01*
G37*
G36*
X147386000Y-45461000D02*
G01*
X146284000Y-45461000D01*
X146284000Y-43659000D01*
X147386000Y-43659000D01*
X147386000Y-45461000D01*
G37*
G36*
X160417250Y-45379750D02*
G01*
X151765250Y-45379750D01*
X151765250Y-43777750D01*
X160417250Y-43777750D01*
X160417250Y-45379750D01*
G37*
G36*
X167336174Y-43007215D02*
G01*
X167373867Y-43018649D01*
X167408603Y-43037216D01*
X167439048Y-43062202D01*
X167464034Y-43092647D01*
X167482601Y-43127383D01*
X167494035Y-43165076D01*
X167498500Y-43210411D01*
X167498500Y-44297089D01*
X167494035Y-44342424D01*
X167482601Y-44380117D01*
X167464034Y-44414853D01*
X167439048Y-44445298D01*
X167408603Y-44470284D01*
X167373867Y-44488851D01*
X167336174Y-44500285D01*
X167290839Y-44504750D01*
X166454161Y-44504750D01*
X166408826Y-44500285D01*
X166371133Y-44488851D01*
X166336397Y-44470284D01*
X166305952Y-44445298D01*
X166280966Y-44414853D01*
X166262399Y-44380117D01*
X166250965Y-44342424D01*
X166246500Y-44297089D01*
X166246500Y-43210411D01*
X166250965Y-43165076D01*
X166262399Y-43127383D01*
X166280966Y-43092647D01*
X166305952Y-43062202D01*
X166336397Y-43037216D01*
X166371133Y-43018649D01*
X166408826Y-43007215D01*
X166454161Y-43002750D01*
X167290839Y-43002750D01*
X167336174Y-43007215D01*
G37*
G36*
X169386174Y-43007215D02*
G01*
X169423867Y-43018649D01*
X169458603Y-43037216D01*
X169489048Y-43062202D01*
X169514034Y-43092647D01*
X169532601Y-43127383D01*
X169544035Y-43165076D01*
X169548500Y-43210411D01*
X169548500Y-44297089D01*
X169544035Y-44342424D01*
X169532601Y-44380117D01*
X169514034Y-44414853D01*
X169489048Y-44445298D01*
X169458603Y-44470284D01*
X169423867Y-44488851D01*
X169386174Y-44500285D01*
X169340839Y-44504750D01*
X168504161Y-44504750D01*
X168458826Y-44500285D01*
X168421133Y-44488851D01*
X168386397Y-44470284D01*
X168355952Y-44445298D01*
X168330966Y-44414853D01*
X168312399Y-44380117D01*
X168300965Y-44342424D01*
X168296500Y-44297089D01*
X168296500Y-43210411D01*
X168300965Y-43165076D01*
X168312399Y-43127383D01*
X168330966Y-43092647D01*
X168355952Y-43062202D01*
X168386397Y-43037216D01*
X168421133Y-43018649D01*
X168458826Y-43007215D01*
X168504161Y-43002750D01*
X169340839Y-43002750D01*
X169386174Y-43007215D01*
G37*
G36*
X151192250Y-43204750D02*
G01*
X149590250Y-43204750D01*
X149590250Y-34552750D01*
X151192250Y-34552750D01*
X151192250Y-43204750D01*
G37*
G36*
X162592250Y-43204750D02*
G01*
X160990250Y-43204750D01*
X160990250Y-34552750D01*
X162592250Y-34552750D01*
X162592250Y-43204750D01*
G37*
G36*
X169883470Y-40881688D02*
G01*
X168538553Y-42226605D01*
X166981504Y-40669556D01*
X168326421Y-39324639D01*
X169883470Y-40881688D01*
G37*
G36*
X171439105Y-39326053D02*
G01*
X170094188Y-40670970D01*
X168537139Y-39113921D01*
X169882056Y-37769004D01*
X171439105Y-39326053D01*
G37*
G36*
X167832861Y-38831079D02*
G01*
X166487944Y-40175996D01*
X164930895Y-38618947D01*
X166275812Y-37274030D01*
X167832861Y-38831079D01*
G37*
G36*
X147386000Y-39161000D02*
G01*
X146284000Y-39161000D01*
X146284000Y-37359000D01*
X147386000Y-37359000D01*
X147386000Y-39161000D01*
G37*
G36*
X143586000Y-39161000D02*
G01*
X142484000Y-39161000D01*
X142484000Y-37359000D01*
X143586000Y-37359000D01*
X143586000Y-39161000D01*
G37*
G36*
X169388496Y-37275444D02*
G01*
X168043579Y-38620361D01*
X166486530Y-37063312D01*
X167831447Y-35718395D01*
X169388496Y-37275444D01*
G37*
G36*
X147398674Y-35632215D02*
G01*
X147436367Y-35643649D01*
X147471103Y-35662216D01*
X147501548Y-35687202D01*
X147526534Y-35717647D01*
X147545101Y-35752383D01*
X147556535Y-35790076D01*
X147561000Y-35835411D01*
X147561000Y-36672089D01*
X147556535Y-36717424D01*
X147545101Y-36755117D01*
X147526534Y-36789853D01*
X147501548Y-36820298D01*
X147471103Y-36845284D01*
X147436367Y-36863851D01*
X147398674Y-36875285D01*
X147353339Y-36879750D01*
X146266661Y-36879750D01*
X146221326Y-36875285D01*
X146183633Y-36863851D01*
X146148897Y-36845284D01*
X146118452Y-36820298D01*
X146093466Y-36789853D01*
X146074899Y-36755117D01*
X146063465Y-36717424D01*
X146059000Y-36672089D01*
X146059000Y-35835411D01*
X146063465Y-35790076D01*
X146074899Y-35752383D01*
X146093466Y-35717647D01*
X146118452Y-35687202D01*
X146148897Y-35662216D01*
X146183633Y-35643649D01*
X146221326Y-35632215D01*
X146266661Y-35627750D01*
X147353339Y-35627750D01*
X147398674Y-35632215D01*
G37*
G36*
X143554924Y-35632215D02*
G01*
X143592617Y-35643649D01*
X143627353Y-35662216D01*
X143657798Y-35687202D01*
X143682784Y-35717647D01*
X143701351Y-35752383D01*
X143712785Y-35790076D01*
X143717250Y-35835411D01*
X143717250Y-36672089D01*
X143712785Y-36717424D01*
X143701351Y-36755117D01*
X143682784Y-36789853D01*
X143657798Y-36820298D01*
X143627353Y-36845284D01*
X143592617Y-36863851D01*
X143554924Y-36875285D01*
X143509589Y-36879750D01*
X142422911Y-36879750D01*
X142377576Y-36875285D01*
X142339883Y-36863851D01*
X142305147Y-36845284D01*
X142274702Y-36820298D01*
X142249716Y-36789853D01*
X142231149Y-36755117D01*
X142219715Y-36717424D01*
X142215250Y-36672089D01*
X142215250Y-35835411D01*
X142219715Y-35790076D01*
X142231149Y-35752383D01*
X142249716Y-35717647D01*
X142274702Y-35687202D01*
X142305147Y-35662216D01*
X142339883Y-35643649D01*
X142377576Y-35632215D01*
X142422911Y-35627750D01*
X143509589Y-35627750D01*
X143554924Y-35632215D01*
G37*
G36*
X136491000Y-35601000D02*
G01*
X132689000Y-35601000D01*
X132689000Y-34099000D01*
X136491000Y-34099000D01*
X136491000Y-35601000D01*
G37*
G36*
X143554924Y-33582215D02*
G01*
X143592617Y-33593649D01*
X143627353Y-33612216D01*
X143657798Y-33637202D01*
X143682784Y-33667647D01*
X143701351Y-33702383D01*
X143712785Y-33740076D01*
X143717250Y-33785411D01*
X143717250Y-34622089D01*
X143712785Y-34667424D01*
X143701351Y-34705117D01*
X143682784Y-34739853D01*
X143657798Y-34770298D01*
X143627353Y-34795284D01*
X143592617Y-34813851D01*
X143554924Y-34825285D01*
X143509589Y-34829750D01*
X142422911Y-34829750D01*
X142377576Y-34825285D01*
X142339883Y-34813851D01*
X142305147Y-34795284D01*
X142274702Y-34770298D01*
X142249716Y-34739853D01*
X142231149Y-34705117D01*
X142219715Y-34667424D01*
X142215250Y-34622089D01*
X142215250Y-33785411D01*
X142219715Y-33740076D01*
X142231149Y-33702383D01*
X142249716Y-33667647D01*
X142274702Y-33637202D01*
X142305147Y-33612216D01*
X142339883Y-33593649D01*
X142377576Y-33582215D01*
X142422911Y-33577750D01*
X143509589Y-33577750D01*
X143554924Y-33582215D01*
G37*
G36*
X147398674Y-33582215D02*
G01*
X147436367Y-33593649D01*
X147471103Y-33612216D01*
X147501548Y-33637202D01*
X147526534Y-33667647D01*
X147545101Y-33702383D01*
X147556535Y-33740076D01*
X147561000Y-33785411D01*
X147561000Y-34622089D01*
X147556535Y-34667424D01*
X147545101Y-34705117D01*
X147526534Y-34739853D01*
X147501548Y-34770298D01*
X147471103Y-34795284D01*
X147436367Y-34813851D01*
X147398674Y-34825285D01*
X147353339Y-34829750D01*
X146266661Y-34829750D01*
X146221326Y-34825285D01*
X146183633Y-34813851D01*
X146148897Y-34795284D01*
X146118452Y-34770298D01*
X146093466Y-34739853D01*
X146074899Y-34705117D01*
X146063465Y-34667424D01*
X146059000Y-34622089D01*
X146059000Y-33785411D01*
X146063465Y-33740076D01*
X146074899Y-33702383D01*
X146093466Y-33667647D01*
X146118452Y-33637202D01*
X146148897Y-33612216D01*
X146183633Y-33593649D01*
X146221326Y-33582215D01*
X146266661Y-33577750D01*
X147353339Y-33577750D01*
X147398674Y-33582215D01*
G37*
G36*
X167536174Y-33257215D02*
G01*
X167573867Y-33268649D01*
X167608603Y-33287216D01*
X167639048Y-33312202D01*
X167664034Y-33342647D01*
X167682601Y-33377383D01*
X167694035Y-33415076D01*
X167698500Y-33460411D01*
X167698500Y-34547089D01*
X167694035Y-34592424D01*
X167682601Y-34630117D01*
X167664034Y-34664853D01*
X167639048Y-34695298D01*
X167608603Y-34720284D01*
X167573867Y-34738851D01*
X167536174Y-34750285D01*
X167490839Y-34754750D01*
X166654161Y-34754750D01*
X166608826Y-34750285D01*
X166571133Y-34738851D01*
X166536397Y-34720284D01*
X166505952Y-34695298D01*
X166480966Y-34664853D01*
X166462399Y-34630117D01*
X166450965Y-34592424D01*
X166446500Y-34547089D01*
X166446500Y-33460411D01*
X166450965Y-33415076D01*
X166462399Y-33377383D01*
X166480966Y-33342647D01*
X166505952Y-33312202D01*
X166536397Y-33287216D01*
X166571133Y-33268649D01*
X166608826Y-33257215D01*
X166654161Y-33252750D01*
X167490839Y-33252750D01*
X167536174Y-33257215D01*
G37*
G36*
X169586174Y-33257215D02*
G01*
X169623867Y-33268649D01*
X169658603Y-33287216D01*
X169689048Y-33312202D01*
X169714034Y-33342647D01*
X169732601Y-33377383D01*
X169744035Y-33415076D01*
X169748500Y-33460411D01*
X169748500Y-34547089D01*
X169744035Y-34592424D01*
X169732601Y-34630117D01*
X169714034Y-34664853D01*
X169689048Y-34695298D01*
X169658603Y-34720284D01*
X169623867Y-34738851D01*
X169586174Y-34750285D01*
X169540839Y-34754750D01*
X168704161Y-34754750D01*
X168658826Y-34750285D01*
X168621133Y-34738851D01*
X168586397Y-34720284D01*
X168555952Y-34695298D01*
X168530966Y-34664853D01*
X168512399Y-34630117D01*
X168500965Y-34592424D01*
X168496500Y-34547089D01*
X168496500Y-33460411D01*
X168500965Y-33415076D01*
X168512399Y-33377383D01*
X168530966Y-33342647D01*
X168555952Y-33312202D01*
X168586397Y-33287216D01*
X168621133Y-33268649D01*
X168658826Y-33257215D01*
X168704161Y-33252750D01*
X169540839Y-33252750D01*
X169586174Y-33257215D01*
G37*
G36*
X131097022Y-30410590D02*
G01*
X131197681Y-30441125D01*
X131248012Y-30456392D01*
X131350175Y-30511000D01*
X131387164Y-30530771D01*
X131509133Y-30630867D01*
X131583513Y-30721500D01*
X131609229Y-30752835D01*
X131683608Y-30891987D01*
X131687544Y-30904962D01*
X131729410Y-31042977D01*
X131741000Y-31160655D01*
X131741000Y-33739345D01*
X131729410Y-33857023D01*
X131698875Y-33957682D01*
X131683608Y-34008013D01*
X131609229Y-34147165D01*
X131509133Y-34269133D01*
X131387165Y-34369229D01*
X131248013Y-34443608D01*
X131197682Y-34458875D01*
X131097023Y-34489410D01*
X130940000Y-34504875D01*
X130782978Y-34489410D01*
X130682319Y-34458875D01*
X130631988Y-34443608D01*
X130492836Y-34369229D01*
X130370868Y-34269133D01*
X130270772Y-34147165D01*
X130196393Y-34008013D01*
X130181126Y-33957682D01*
X130150591Y-33857023D01*
X130139001Y-33739345D01*
X130139000Y-31160656D01*
X130150590Y-31042978D01*
X130191343Y-30908633D01*
X130196392Y-30891988D01*
X130270771Y-30752836D01*
X130283440Y-30737399D01*
X130370867Y-30630867D01*
X130492835Y-30530771D01*
X130529824Y-30511000D01*
X130631987Y-30456392D01*
X130682318Y-30441125D01*
X130782977Y-30410590D01*
X130940000Y-30395125D01*
X131097022Y-30410590D01*
G37*
G36*
X138397022Y-30410590D02*
G01*
X138497681Y-30441125D01*
X138548012Y-30456392D01*
X138650175Y-30511000D01*
X138687164Y-30530771D01*
X138809133Y-30630867D01*
X138883513Y-30721500D01*
X138909229Y-30752835D01*
X138983608Y-30891987D01*
X138987544Y-30904962D01*
X139029410Y-31042977D01*
X139041000Y-31160655D01*
X139041000Y-33739345D01*
X139029410Y-33857023D01*
X138998875Y-33957682D01*
X138983608Y-34008013D01*
X138909229Y-34147165D01*
X138809133Y-34269133D01*
X138687165Y-34369229D01*
X138548013Y-34443608D01*
X138497682Y-34458875D01*
X138397023Y-34489410D01*
X138240000Y-34504875D01*
X138082978Y-34489410D01*
X137982319Y-34458875D01*
X137931988Y-34443608D01*
X137792836Y-34369229D01*
X137670868Y-34269133D01*
X137570772Y-34147165D01*
X137496393Y-34008013D01*
X137481126Y-33957682D01*
X137450591Y-33857023D01*
X137439001Y-33739345D01*
X137439000Y-31160656D01*
X137450590Y-31042978D01*
X137491343Y-30908633D01*
X137496392Y-30891988D01*
X137570771Y-30752836D01*
X137583440Y-30737399D01*
X137670867Y-30630867D01*
X137792835Y-30530771D01*
X137829824Y-30511000D01*
X137931987Y-30456392D01*
X137982318Y-30441125D01*
X138082977Y-30410590D01*
X138240000Y-30395125D01*
X138397022Y-30410590D01*
G37*
G36*
X164598674Y-32838465D02*
G01*
X164636367Y-32849899D01*
X164671103Y-32868466D01*
X164701548Y-32893452D01*
X164726534Y-32923897D01*
X164745101Y-32958633D01*
X164756535Y-32996326D01*
X164761000Y-33041661D01*
X164761000Y-33878339D01*
X164756535Y-33923674D01*
X164745101Y-33961367D01*
X164726534Y-33996103D01*
X164701548Y-34026548D01*
X164671103Y-34051534D01*
X164636367Y-34070101D01*
X164598674Y-34081535D01*
X164553339Y-34086000D01*
X163466661Y-34086000D01*
X163421326Y-34081535D01*
X163383633Y-34070101D01*
X163348897Y-34051534D01*
X163318452Y-34026548D01*
X163293466Y-33996103D01*
X163274899Y-33961367D01*
X163263465Y-33923674D01*
X163259000Y-33878339D01*
X163259000Y-33041661D01*
X163263465Y-32996326D01*
X163274899Y-32958633D01*
X163293466Y-32923897D01*
X163318452Y-32893452D01*
X163348897Y-32868466D01*
X163383633Y-32849899D01*
X163421326Y-32838465D01*
X163466661Y-32834000D01*
X164553339Y-32834000D01*
X164598674Y-32838465D01*
G37*
G36*
X160417250Y-33979750D02*
G01*
X151765250Y-33979750D01*
X151765250Y-32377750D01*
X160417250Y-32377750D01*
X160417250Y-33979750D01*
G37*
G36*
X169573674Y-30725965D02*
G01*
X169611367Y-30737399D01*
X169646103Y-30755966D01*
X169676548Y-30780952D01*
X169701534Y-30811397D01*
X169720101Y-30846133D01*
X169731535Y-30883826D01*
X169736000Y-30929161D01*
X169736000Y-32015839D01*
X169731535Y-32061174D01*
X169720101Y-32098867D01*
X169701534Y-32133603D01*
X169676548Y-32164048D01*
X169646103Y-32189034D01*
X169611367Y-32207601D01*
X169573674Y-32219035D01*
X169528339Y-32223500D01*
X168691661Y-32223500D01*
X168646326Y-32219035D01*
X168608633Y-32207601D01*
X168573897Y-32189034D01*
X168543452Y-32164048D01*
X168518466Y-32133603D01*
X168499899Y-32098867D01*
X168488465Y-32061174D01*
X168484000Y-32015839D01*
X168484000Y-30929161D01*
X168488465Y-30883826D01*
X168499899Y-30846133D01*
X168518466Y-30811397D01*
X168543452Y-30780952D01*
X168573897Y-30755966D01*
X168608633Y-30737399D01*
X168646326Y-30725965D01*
X168691661Y-30721500D01*
X169528339Y-30721500D01*
X169573674Y-30725965D01*
G37*
G36*
X167523674Y-30725965D02*
G01*
X167561367Y-30737399D01*
X167596103Y-30755966D01*
X167626548Y-30780952D01*
X167651534Y-30811397D01*
X167670101Y-30846133D01*
X167681535Y-30883826D01*
X167686000Y-30929161D01*
X167686000Y-32015839D01*
X167681535Y-32061174D01*
X167670101Y-32098867D01*
X167651534Y-32133603D01*
X167626548Y-32164048D01*
X167596103Y-32189034D01*
X167561367Y-32207601D01*
X167523674Y-32219035D01*
X167478339Y-32223500D01*
X166641661Y-32223500D01*
X166596326Y-32219035D01*
X166558633Y-32207601D01*
X166523897Y-32189034D01*
X166493452Y-32164048D01*
X166468466Y-32133603D01*
X166449899Y-32098867D01*
X166438465Y-32061174D01*
X166434000Y-32015839D01*
X166434000Y-30929161D01*
X166438465Y-30883826D01*
X166449899Y-30846133D01*
X166468466Y-30811397D01*
X166493452Y-30780952D01*
X166523897Y-30755966D01*
X166558633Y-30737399D01*
X166596326Y-30725965D01*
X166641661Y-30721500D01*
X167478339Y-30721500D01*
X167523674Y-30725965D01*
G37*
G36*
X164598674Y-30788465D02*
G01*
X164636367Y-30799899D01*
X164671103Y-30818466D01*
X164701548Y-30843452D01*
X164726534Y-30873897D01*
X164745101Y-30908633D01*
X164756535Y-30946326D01*
X164761000Y-30991661D01*
X164761000Y-31828339D01*
X164756535Y-31873674D01*
X164745101Y-31911367D01*
X164726534Y-31946103D01*
X164701548Y-31976548D01*
X164671103Y-32001534D01*
X164636367Y-32020101D01*
X164598674Y-32031535D01*
X164553339Y-32036000D01*
X163466661Y-32036000D01*
X163421326Y-32031535D01*
X163383633Y-32020101D01*
X163348897Y-32001534D01*
X163318452Y-31976548D01*
X163293466Y-31946103D01*
X163274899Y-31911367D01*
X163263465Y-31873674D01*
X163259000Y-31828339D01*
X163259000Y-30991661D01*
X163263465Y-30946326D01*
X163274899Y-30908633D01*
X163293466Y-30873897D01*
X163318452Y-30843452D01*
X163348897Y-30818466D01*
X163383633Y-30799899D01*
X163421326Y-30788465D01*
X163466661Y-30784000D01*
X164553339Y-30784000D01*
X164598674Y-30788465D01*
G37*
G36*
X153813674Y-29133465D02*
G01*
X153851367Y-29144899D01*
X153886103Y-29163466D01*
X153916548Y-29188452D01*
X153941534Y-29218897D01*
X153960101Y-29253633D01*
X153971535Y-29291326D01*
X153976000Y-29336661D01*
X153976000Y-30423339D01*
X153971535Y-30468674D01*
X153960101Y-30506367D01*
X153941534Y-30541103D01*
X153916548Y-30571548D01*
X153886103Y-30596534D01*
X153851367Y-30615101D01*
X153813674Y-30626535D01*
X153768339Y-30631000D01*
X152931661Y-30631000D01*
X152886326Y-30626535D01*
X152848633Y-30615101D01*
X152813897Y-30596534D01*
X152783452Y-30571548D01*
X152758466Y-30541103D01*
X152739899Y-30506367D01*
X152728465Y-30468674D01*
X152724000Y-30423339D01*
X152724000Y-29336661D01*
X152728465Y-29291326D01*
X152739899Y-29253633D01*
X152758466Y-29218897D01*
X152783452Y-29188452D01*
X152813897Y-29163466D01*
X152848633Y-29144899D01*
X152886326Y-29133465D01*
X152931661Y-29129000D01*
X153768339Y-29129000D01*
X153813674Y-29133465D01*
G37*
G36*
X151763674Y-29133465D02*
G01*
X151801367Y-29144899D01*
X151836103Y-29163466D01*
X151866548Y-29188452D01*
X151891534Y-29218897D01*
X151910101Y-29253633D01*
X151921535Y-29291326D01*
X151926000Y-29336661D01*
X151926000Y-30423339D01*
X151921535Y-30468674D01*
X151910101Y-30506367D01*
X151891534Y-30541103D01*
X151866548Y-30571548D01*
X151836103Y-30596534D01*
X151801367Y-30615101D01*
X151763674Y-30626535D01*
X151718339Y-30631000D01*
X150881661Y-30631000D01*
X150836326Y-30626535D01*
X150798633Y-30615101D01*
X150763897Y-30596534D01*
X150733452Y-30571548D01*
X150708466Y-30541103D01*
X150689899Y-30506367D01*
X150678465Y-30468674D01*
X150674000Y-30423339D01*
X150674000Y-29336661D01*
X150678465Y-29291326D01*
X150689899Y-29253633D01*
X150708466Y-29218897D01*
X150733452Y-29188452D01*
X150763897Y-29163466D01*
X150798633Y-29144899D01*
X150836326Y-29133465D01*
X150881661Y-29129000D01*
X151718339Y-29129000D01*
X151763674Y-29133465D01*
G37*
G36*
X162548674Y-29132215D02*
G01*
X162586367Y-29143649D01*
X162621103Y-29162216D01*
X162651548Y-29187202D01*
X162676534Y-29217647D01*
X162695101Y-29252383D01*
X162706535Y-29290076D01*
X162711000Y-29335411D01*
X162711000Y-30422089D01*
X162706535Y-30467424D01*
X162695101Y-30505117D01*
X162676534Y-30539853D01*
X162651548Y-30570298D01*
X162621103Y-30595284D01*
X162586367Y-30613851D01*
X162548674Y-30625285D01*
X162503339Y-30629750D01*
X161666661Y-30629750D01*
X161621326Y-30625285D01*
X161583633Y-30613851D01*
X161548897Y-30595284D01*
X161518452Y-30570298D01*
X161493466Y-30539853D01*
X161474899Y-30505117D01*
X161463465Y-30467424D01*
X161459000Y-30422089D01*
X161459000Y-29335411D01*
X161463465Y-29290076D01*
X161474899Y-29252383D01*
X161493466Y-29217647D01*
X161518452Y-29187202D01*
X161548897Y-29162216D01*
X161583633Y-29143649D01*
X161621326Y-29132215D01*
X161666661Y-29127750D01*
X162503339Y-29127750D01*
X162548674Y-29132215D01*
G37*
G36*
X160498674Y-29132215D02*
G01*
X160536367Y-29143649D01*
X160571103Y-29162216D01*
X160601548Y-29187202D01*
X160626534Y-29217647D01*
X160645101Y-29252383D01*
X160656535Y-29290076D01*
X160661000Y-29335411D01*
X160661000Y-30422089D01*
X160656535Y-30467424D01*
X160645101Y-30505117D01*
X160626534Y-30539853D01*
X160601548Y-30570298D01*
X160571103Y-30595284D01*
X160536367Y-30613851D01*
X160498674Y-30625285D01*
X160453339Y-30629750D01*
X159616661Y-30629750D01*
X159571326Y-30625285D01*
X159533633Y-30613851D01*
X159498897Y-30595284D01*
X159468452Y-30570298D01*
X159443466Y-30539853D01*
X159424899Y-30505117D01*
X159413465Y-30467424D01*
X159409000Y-30422089D01*
X159409000Y-29335411D01*
X159413465Y-29290076D01*
X159424899Y-29252383D01*
X159443466Y-29217647D01*
X159468452Y-29187202D01*
X159498897Y-29162216D01*
X159533633Y-29143649D01*
X159571326Y-29132215D01*
X159616661Y-29127750D01*
X160453339Y-29127750D01*
X160498674Y-29132215D01*
G37*
G36*
X156554924Y-29132215D02*
G01*
X156592617Y-29143649D01*
X156627353Y-29162216D01*
X156657798Y-29187202D01*
X156682784Y-29217647D01*
X156701351Y-29252383D01*
X156712785Y-29290076D01*
X156717250Y-29335411D01*
X156717250Y-30422089D01*
X156712785Y-30467424D01*
X156701351Y-30505117D01*
X156682784Y-30539853D01*
X156657798Y-30570298D01*
X156627353Y-30595284D01*
X156592617Y-30613851D01*
X156554924Y-30625285D01*
X156509589Y-30629750D01*
X155672911Y-30629750D01*
X155627576Y-30625285D01*
X155589883Y-30613851D01*
X155555147Y-30595284D01*
X155524702Y-30570298D01*
X155499716Y-30539853D01*
X155481149Y-30505117D01*
X155469715Y-30467424D01*
X155465250Y-30422089D01*
X155465250Y-29335411D01*
X155469715Y-29290076D01*
X155481149Y-29252383D01*
X155499716Y-29217647D01*
X155524702Y-29187202D01*
X155555147Y-29162216D01*
X155589883Y-29143649D01*
X155627576Y-29132215D01*
X155672911Y-29127750D01*
X156509589Y-29127750D01*
X156554924Y-29132215D01*
G37*
G36*
X149886174Y-29132215D02*
G01*
X149923867Y-29143649D01*
X149958603Y-29162216D01*
X149989048Y-29187202D01*
X150014034Y-29217647D01*
X150032601Y-29252383D01*
X150044035Y-29290076D01*
X150048500Y-29335411D01*
X150048500Y-30422089D01*
X150044035Y-30467424D01*
X150032601Y-30505117D01*
X150014034Y-30539853D01*
X149989048Y-30570298D01*
X149958603Y-30595284D01*
X149923867Y-30613851D01*
X149886174Y-30625285D01*
X149840839Y-30629750D01*
X149004161Y-30629750D01*
X148958826Y-30625285D01*
X148921133Y-30613851D01*
X148886397Y-30595284D01*
X148855952Y-30570298D01*
X148830966Y-30539853D01*
X148812399Y-30505117D01*
X148800965Y-30467424D01*
X148796500Y-30422089D01*
X148796500Y-29335411D01*
X148800965Y-29290076D01*
X148812399Y-29252383D01*
X148830966Y-29217647D01*
X148855952Y-29187202D01*
X148886397Y-29162216D01*
X148921133Y-29143649D01*
X148958826Y-29132215D01*
X149004161Y-29127750D01*
X149840839Y-29127750D01*
X149886174Y-29132215D01*
G37*
G36*
X147836174Y-29132215D02*
G01*
X147873867Y-29143649D01*
X147908603Y-29162216D01*
X147939048Y-29187202D01*
X147964034Y-29217647D01*
X147982601Y-29252383D01*
X147994035Y-29290076D01*
X147998500Y-29335411D01*
X147998500Y-30422089D01*
X147994035Y-30467424D01*
X147982601Y-30505117D01*
X147964034Y-30539853D01*
X147939048Y-30570298D01*
X147908603Y-30595284D01*
X147873867Y-30613851D01*
X147836174Y-30625285D01*
X147790839Y-30629750D01*
X146954161Y-30629750D01*
X146908826Y-30625285D01*
X146871133Y-30613851D01*
X146836397Y-30595284D01*
X146805952Y-30570298D01*
X146780966Y-30539853D01*
X146762399Y-30505117D01*
X146750965Y-30467424D01*
X146746500Y-30422089D01*
X146746500Y-29335411D01*
X146750965Y-29290076D01*
X146762399Y-29252383D01*
X146780966Y-29217647D01*
X146805952Y-29187202D01*
X146836397Y-29162216D01*
X146871133Y-29143649D01*
X146908826Y-29132215D01*
X146954161Y-29127750D01*
X147790839Y-29127750D01*
X147836174Y-29132215D01*
G37*
G36*
X158604924Y-29132215D02*
G01*
X158642617Y-29143649D01*
X158677353Y-29162216D01*
X158707798Y-29187202D01*
X158732784Y-29217647D01*
X158751351Y-29252383D01*
X158762785Y-29290076D01*
X158767250Y-29335411D01*
X158767250Y-30422089D01*
X158762785Y-30467424D01*
X158751351Y-30505117D01*
X158732784Y-30539853D01*
X158707798Y-30570298D01*
X158677353Y-30595284D01*
X158642617Y-30613851D01*
X158604924Y-30625285D01*
X158559589Y-30629750D01*
X157722911Y-30629750D01*
X157677576Y-30625285D01*
X157639883Y-30613851D01*
X157605147Y-30595284D01*
X157574702Y-30570298D01*
X157549716Y-30539853D01*
X157531149Y-30505117D01*
X157519715Y-30467424D01*
X157515250Y-30422089D01*
X157515250Y-29335411D01*
X157519715Y-29290076D01*
X157531149Y-29252383D01*
X157549716Y-29217647D01*
X157574702Y-29187202D01*
X157605147Y-29162216D01*
X157639883Y-29143649D01*
X157677576Y-29132215D01*
X157722911Y-29127750D01*
X158559589Y-29127750D01*
X158604924Y-29132215D01*
G37*
G36*
X176969487Y-27958996D02*
G01*
X177206253Y-28057068D01*
X177206255Y-28057069D01*
X177419339Y-28199447D01*
X177600553Y-28380661D01*
X177742932Y-28593747D01*
X177841004Y-28830513D01*
X177891000Y-29081861D01*
X177891000Y-29338139D01*
X177841004Y-29589487D01*
X177742932Y-29826253D01*
X177742931Y-29826255D01*
X177600553Y-30039339D01*
X177419339Y-30220553D01*
X177206255Y-30362931D01*
X177206254Y-30362932D01*
X177206253Y-30362932D01*
X176969487Y-30461004D01*
X176718139Y-30511000D01*
X176461861Y-30511000D01*
X176210513Y-30461004D01*
X175973747Y-30362932D01*
X175973746Y-30362932D01*
X175973745Y-30362931D01*
X175760661Y-30220553D01*
X175579447Y-30039339D01*
X175437069Y-29826255D01*
X175437068Y-29826253D01*
X175338996Y-29589487D01*
X175289000Y-29338139D01*
X175289000Y-29081861D01*
X175338996Y-28830513D01*
X175437068Y-28593747D01*
X175579447Y-28380661D01*
X175760661Y-28199447D01*
X175973745Y-28057069D01*
X175973747Y-28057068D01*
X176210513Y-27958996D01*
X176461861Y-27909000D01*
X176718139Y-27909000D01*
X176969487Y-27958996D01*
G37*
G36*
X103757487Y-27958996D02*
G01*
X103994253Y-28057068D01*
X103994255Y-28057069D01*
X104207339Y-28199447D01*
X104388553Y-28380661D01*
X104530932Y-28593747D01*
X104629004Y-28830513D01*
X104679000Y-29081861D01*
X104679000Y-29338139D01*
X104629004Y-29589487D01*
X104530932Y-29826253D01*
X104530931Y-29826255D01*
X104388553Y-30039339D01*
X104207339Y-30220553D01*
X103994255Y-30362931D01*
X103994254Y-30362932D01*
X103994253Y-30362932D01*
X103757487Y-30461004D01*
X103506139Y-30511000D01*
X103249861Y-30511000D01*
X102998513Y-30461004D01*
X102761747Y-30362932D01*
X102761746Y-30362932D01*
X102761745Y-30362931D01*
X102548661Y-30220553D01*
X102367447Y-30039339D01*
X102225069Y-29826255D01*
X102225068Y-29826253D01*
X102126996Y-29589487D01*
X102077000Y-29338139D01*
X102077000Y-29081861D01*
X102126996Y-28830513D01*
X102225068Y-28593747D01*
X102367447Y-28380661D01*
X102548661Y-28199447D01*
X102761745Y-28057069D01*
X102761747Y-28057068D01*
X102998513Y-27958996D01*
X103249861Y-27909000D01*
X103506139Y-27909000D01*
X103757487Y-27958996D01*
G37*
G36*
X138491000Y-30101000D02*
G01*
X136039000Y-30101000D01*
X136039000Y-29199000D01*
X138491000Y-29199000D01*
X138491000Y-30101000D01*
G37*
G36*
X133141000Y-30101000D02*
G01*
X130689000Y-30101000D01*
X130689000Y-29199000D01*
X133141000Y-29199000D01*
X133141000Y-30101000D01*
G37*
M02*
