G04 #@! TF.GenerationSoftware,KiCad,Pcbnew,(5.1.5)-3*
G04 #@! TF.CreationDate,2020-06-24T14:41:19-07:00*
G04 #@! TF.ProjectId,numpad,6e756d70-6164-42e6-9b69-6361645f7063,rev?*
G04 #@! TF.SameCoordinates,Original*
G04 #@! TF.FileFunction,Copper,L1,Top*
G04 #@! TF.FilePolarity,Positive*
%FSLAX46Y46*%
G04 Gerber Fmt 4.6, Leading zero omitted, Abs format (unit mm)*
G04 Created by KiCad (PCBNEW (5.1.5)-3) date 2020-06-24 14:41:19*
%MOMM*%
%LPD*%
G04 APERTURE LIST*
%ADD10C,2.500000*%
%ADD11R,1.600000X1.600000*%
%ADD12C,1.600000*%
%ADD13O,1.500000X4.000000*%
%ADD14C,0.800000*%
%ADD15C,0.250000*%
G04 APERTURE END LIST*
D10*
X170990974Y-120955872D02*
X170951526Y-121534528D01*
X165800712Y-121566385D02*
X164591788Y-123464015D01*
X151977224Y-130483172D02*
X151937776Y-131061828D01*
X146786962Y-131093685D02*
X145578038Y-132991315D01*
X123430324Y-130483172D02*
X123390876Y-131061828D01*
X118240062Y-131093685D02*
X117031138Y-132991315D01*
X151977224Y-111428483D02*
X151937776Y-112007139D01*
X146786962Y-112038996D02*
X145578038Y-113936626D01*
X132945974Y-111428483D02*
X132906526Y-112007139D01*
X127755712Y-112038996D02*
X126546788Y-113936626D01*
X113914724Y-111428483D02*
X113875276Y-112007139D01*
X108724462Y-112038996D02*
X107515538Y-113936626D01*
X151977224Y-92373796D02*
X151937776Y-92952452D01*
X146786962Y-92984309D02*
X145578038Y-94881939D01*
X132945974Y-92373796D02*
X132906526Y-92952452D01*
X127755712Y-92984309D02*
X126546788Y-94881939D01*
X113914724Y-92373796D02*
X113875276Y-92952452D01*
X108724462Y-92984309D02*
X107515538Y-94881939D01*
X170990974Y-82846472D02*
X170951526Y-83425128D01*
X165800712Y-83456985D02*
X164591788Y-85354615D01*
X151977224Y-73319109D02*
X151937776Y-73897765D01*
X146786962Y-73929622D02*
X145578038Y-75827252D01*
X132945974Y-73319109D02*
X132906526Y-73897765D01*
X127755712Y-73929622D02*
X126546788Y-75827252D01*
X113914724Y-73319109D02*
X113875276Y-73897765D01*
X108724462Y-73929622D02*
X107515538Y-75827252D01*
X170990974Y-54264422D02*
X170951526Y-54843078D01*
X165800712Y-54874935D02*
X164591788Y-56772565D01*
X151977224Y-54264422D02*
X151937776Y-54843078D01*
X146786962Y-54874935D02*
X145578038Y-56772565D01*
X113914724Y-54264422D02*
X113875276Y-54843078D01*
X108724462Y-54874935D02*
X107515538Y-56772565D01*
X132945974Y-54264422D02*
X132906526Y-54843078D01*
X127755712Y-54874935D02*
X126546788Y-56772565D01*
D11*
X117318750Y-139875000D03*
D12*
X125118750Y-139875000D03*
X115181250Y-63656250D03*
D11*
X107381250Y-63656250D03*
X107381250Y-82687500D03*
D12*
X115181250Y-82687500D03*
X115181250Y-101718750D03*
D11*
X107381250Y-101718750D03*
X107850000Y-120750000D03*
D12*
X115650000Y-120750000D03*
D11*
X126412500Y-63562500D03*
D12*
X134212500Y-63562500D03*
X134212500Y-82687500D03*
D11*
X126412500Y-82687500D03*
X126881250Y-101718750D03*
D12*
X134681250Y-101718750D03*
X134681250Y-120750000D03*
D11*
X126881250Y-120750000D03*
D12*
X153243750Y-63656250D03*
D11*
X145443750Y-63656250D03*
X145368750Y-82687500D03*
D12*
X153168750Y-82687500D03*
D11*
X145912500Y-101718750D03*
D12*
X153712500Y-101718750D03*
D11*
X145912500Y-120750000D03*
D12*
X153712500Y-120750000D03*
D11*
X145912500Y-139875000D03*
D12*
X153712500Y-139875000D03*
X172275000Y-63656250D03*
D11*
X164475000Y-63656250D03*
D12*
X172462500Y-92156250D03*
D11*
X164662500Y-92156250D03*
D12*
X172668750Y-130312500D03*
D11*
X164868750Y-130312500D03*
D13*
X130940000Y-32450000D03*
X138240000Y-32450000D03*
D14*
X152400000Y-39370000D03*
X154940000Y-82550000D03*
X140210000Y-99090000D03*
X149035000Y-40640012D03*
X148320000Y-123030000D03*
X153345010Y-43160000D03*
X155070000Y-45928752D03*
X167210000Y-132460000D03*
X149035000Y-38639974D03*
X149035000Y-39639987D03*
X151710000Y-41420000D03*
X153850020Y-46040000D03*
X158890000Y-35690000D03*
X144560000Y-35690000D03*
X155900000Y-34810000D03*
X163980000Y-34660000D03*
D15*
X113895000Y-62370000D02*
X115181250Y-63656250D01*
X113895000Y-54553750D02*
X113895000Y-62370000D01*
X113895000Y-81401250D02*
X115181250Y-82687500D01*
X113895000Y-73608437D02*
X113895000Y-81401250D01*
X155693401Y-81796599D02*
X154940000Y-82550000D01*
X155693401Y-50799811D02*
X155693401Y-81796599D01*
X152620000Y-47726410D02*
X155693401Y-50799811D01*
X152400000Y-39370000D02*
X152620000Y-39590000D01*
X152620000Y-39590000D02*
X152620000Y-47726410D01*
X113895000Y-100432500D02*
X115181250Y-101718750D01*
X113895000Y-92663124D02*
X113895000Y-100432500D01*
X140210000Y-99090000D02*
X140210000Y-49465012D01*
X140210000Y-49465012D02*
X148635001Y-41040011D01*
X148635001Y-41040011D02*
X149035000Y-40640012D01*
X113895000Y-118995000D02*
X115650000Y-120750000D01*
X113895000Y-111717811D02*
X113895000Y-118995000D01*
X148320000Y-123030000D02*
X153097502Y-123030000D01*
X153097502Y-123030000D02*
X157540000Y-118587502D01*
X153345010Y-43725685D02*
X153345010Y-43160000D01*
X153125010Y-43945685D02*
X153345010Y-43725685D01*
X153125010Y-47595010D02*
X153125010Y-43945685D01*
X157540000Y-52010000D02*
X153125010Y-47595010D01*
X157540000Y-118587502D02*
X157540000Y-52010000D01*
X123410600Y-138166850D02*
X125118750Y-139875000D01*
X123410600Y-130772500D02*
X123410600Y-138166850D01*
X164882382Y-45928752D02*
X164883630Y-45930000D01*
X155070000Y-45928752D02*
X164882382Y-45928752D01*
X164883630Y-45930000D02*
X173060000Y-45930000D01*
X173060000Y-45930000D02*
X177440000Y-50310000D01*
X177440000Y-50310000D02*
X177440000Y-130010000D01*
X177440000Y-130010000D02*
X174990000Y-132460000D01*
X174990000Y-132460000D02*
X167210000Y-132460000D01*
X132926250Y-62276250D02*
X134212500Y-63562500D01*
X132926250Y-54553750D02*
X132926250Y-62276250D01*
X132926250Y-81401250D02*
X134212500Y-82687500D01*
X132926250Y-73608437D02*
X132926250Y-81401250D01*
X132926250Y-99963750D02*
X134681250Y-101718750D01*
X132926250Y-92663124D02*
X132926250Y-99963750D01*
X132926250Y-118995000D02*
X134681250Y-120750000D01*
X132926250Y-111717811D02*
X132926250Y-118995000D01*
X151957500Y-62370000D02*
X153243750Y-63656250D01*
X151957500Y-54553750D02*
X151957500Y-62370000D01*
X151957500Y-81476250D02*
X153168750Y-82687500D01*
X151957500Y-73608437D02*
X151957500Y-81476250D01*
X151957500Y-99963750D02*
X153712500Y-101718750D01*
X151957500Y-92663124D02*
X151957500Y-99963750D01*
X151957500Y-118995000D02*
X153712500Y-120750000D01*
X151957500Y-111717811D02*
X151957500Y-118995000D01*
X151957500Y-138120000D02*
X153712500Y-139875000D01*
X151957500Y-130772500D02*
X151957500Y-138120000D01*
X170971250Y-62352500D02*
X172275000Y-63656250D01*
X170971250Y-54553750D02*
X170971250Y-62352500D01*
X170971250Y-90665000D02*
X172462500Y-92156250D01*
X170971250Y-83135800D02*
X170971250Y-90665000D01*
X170971250Y-128615000D02*
X172668750Y-130312500D01*
X170971250Y-121245200D02*
X170971250Y-128615000D01*
X107214657Y-93027781D02*
X108120000Y-93933124D01*
X105119099Y-90932223D02*
X107214657Y-93027781D01*
X106637890Y-74878437D02*
X105119099Y-76397228D01*
X108120000Y-74878437D02*
X106637890Y-74878437D01*
X105119099Y-109986910D02*
X108120000Y-112987811D01*
X105119099Y-90729099D02*
X105119099Y-90932223D01*
X105119099Y-90729099D02*
X105119099Y-109986910D01*
X105119099Y-76397228D02*
X105119099Y-90729099D01*
X116153490Y-132042500D02*
X117635600Y-132042500D01*
X105119099Y-121008109D02*
X116153490Y-132042500D01*
X105119099Y-109986910D02*
X105119099Y-121008109D01*
X105119099Y-57342541D02*
X105119099Y-76397228D01*
X106637890Y-55823750D02*
X105119099Y-57342541D01*
X108120000Y-55823750D02*
X106637890Y-55823750D01*
X149035000Y-38639974D02*
X123020026Y-38639974D01*
X108120000Y-53540000D02*
X108120000Y-55823750D01*
X123020026Y-38639974D02*
X108120000Y-53540000D01*
X126245907Y-73973094D02*
X127151250Y-74878437D01*
X124150349Y-71877536D02*
X126245907Y-73973094D01*
X124150349Y-57342541D02*
X124150349Y-71877536D01*
X125669140Y-55823750D02*
X124150349Y-57342541D01*
X127151250Y-55823750D02*
X125669140Y-55823750D01*
X124150349Y-90932223D02*
X127151250Y-93933124D01*
X124150349Y-71877536D02*
X124150349Y-90932223D01*
X124150349Y-109986910D02*
X127151250Y-112987811D01*
X124150349Y-90932223D02*
X124150349Y-109986910D01*
X148469315Y-39639987D02*
X149035000Y-39639987D01*
X127151250Y-55823750D02*
X127151250Y-53783549D01*
X141294812Y-39639987D02*
X148469315Y-39639987D01*
X127151250Y-53783549D02*
X141294812Y-39639987D01*
X145277157Y-73973094D02*
X146182500Y-74878437D01*
X144700390Y-55823750D02*
X143181599Y-57342541D01*
X143181599Y-71877536D02*
X145277157Y-73973094D01*
X146182500Y-55823750D02*
X144700390Y-55823750D01*
X143181599Y-90932223D02*
X146182500Y-93933124D01*
X143181599Y-71588401D02*
X143181599Y-90932223D01*
X143181599Y-71588401D02*
X143181599Y-71877536D01*
X143181599Y-57342541D02*
X143181599Y-71588401D01*
X143181599Y-109986910D02*
X146182500Y-112987811D01*
X143181599Y-129041599D02*
X146182500Y-132042500D01*
X143181599Y-109558401D02*
X143181599Y-129041599D01*
X143181599Y-109558401D02*
X143181599Y-109986910D01*
X143181599Y-90932223D02*
X143181599Y-109558401D01*
X146182500Y-46947500D02*
X146182500Y-55823750D01*
X151710000Y-41420000D02*
X146182500Y-46947500D01*
X164290907Y-83500457D02*
X165196250Y-84405800D01*
X162195349Y-57342541D02*
X162195349Y-81404899D01*
X162195349Y-81404899D02*
X164290907Y-83500457D01*
X163714140Y-55823750D02*
X162195349Y-57342541D01*
X165196250Y-55823750D02*
X163714140Y-55823750D01*
X162195349Y-119514299D02*
X165196250Y-122515200D01*
X162195349Y-81404899D02*
X162195349Y-119514299D01*
X162195349Y-57342541D02*
X162195349Y-54385329D01*
X162195349Y-54385329D02*
X154250019Y-46439999D01*
X154250019Y-46439999D02*
X153850020Y-46040000D01*
X158890000Y-35690000D02*
X144560000Y-35690000D01*
X155900000Y-34810000D02*
X163830000Y-34810000D01*
X163830000Y-34810000D02*
X163980000Y-34660000D01*
M02*
