M48
; DRILL file {KiCad (5.1.5)-3} date 6/24/2020 2:41:55 PM
; FORMAT={-:-/ absolute / inch / decimal}
; #@! TF.CreationDate,2020-06-24T14:41:55-07:00
; #@! TF.GenerationSoftware,Kicad,Pcbnew,(5.1.5)-3
; #@! TF.FileFunction,Plated,1,2,PTH
FMAT,2
INCH
T1C0.0157
T2C0.0276
T3C0.0591
%
G90
G05
T1
X5.5201Y-3.9012
X5.6913Y-1.4051
X5.8394Y-4.8437
X5.8675Y-1.5213
X5.8675Y-1.5606
X5.8675Y-1.6
X5.9728Y-1.6307
X6.0Y-1.55
X6.0372Y-1.6992
X6.0571Y-1.8126
X6.1Y-3.25
X6.1051Y-1.8082
X6.1378Y-1.3705
X6.2555Y-1.4051
X6.4559Y-1.3646
X6.5831Y-5.215
T2
X5.7232Y-3.2554
X6.0303Y-3.2554
X4.9953Y-4.0047
X5.3024Y-4.0047
X5.7261Y-2.5062
X6.0332Y-2.5062
X4.9769Y-3.2554
X5.284Y-3.2554
X5.7446Y-4.0047
X6.0517Y-4.0047
X6.4754Y-2.5062
X6.7825Y-2.5062
X4.9769Y-2.5025
X5.284Y-2.5025
X5.7446Y-5.5069
X6.0517Y-5.5069
X6.4909Y-5.1304
X6.798Y-5.1304
X4.2461Y-4.7539
X4.5531Y-4.7539
X6.4828Y-3.6282
X6.7899Y-3.6282
X4.2276Y-2.5062
X4.5347Y-2.5062
X4.2276Y-4.0047
X4.5347Y-4.0047
X4.6188Y-5.5069
X4.9259Y-5.5069
X5.7446Y-4.7539
X6.0517Y-4.7539
X4.2276Y-3.2554
X4.5347Y-3.2554
X4.9953Y-4.7539
X5.3024Y-4.7539
T2
G00X5.1551Y-1.2283
M15
G01X5.1551Y-1.3268
M16
G05
G00X5.4425Y-1.2283
M15
G01X5.4425Y-1.3268
M16
G05
T3
G00X4.2805Y-2.9106
M15
G01X4.2329Y-2.9853
M16
G05
G00X4.4848Y-2.8866
M15
G01X4.4833Y-2.9094
M16
G05
G00X4.2805Y-4.411
M15
G01X4.2329Y-4.4857
M16
G05
G00X4.4848Y-4.3869
M15
G01X4.4833Y-4.4097
M16
G05
G00X6.5276Y-2.1604
M15
G01X6.48Y-2.2351
M16
G05
G00X6.7319Y-2.1364
M15
G01X6.7304Y-2.1592
M16
G05
G00X5.779Y-3.6608
M15
G01X5.7314Y-3.7355
M16
G05
G00X5.9834Y-3.6368
M15
G01X5.9818Y-3.6595
M16
G05
G00X5.0298Y-2.9106
M15
G01X4.9822Y-2.9853
M16
G05
G00X5.2341Y-2.8866
M15
G01X5.2325Y-2.9094
M16
G05
G00X5.0298Y-3.6608
M15
G01X4.9822Y-3.7355
M16
G05
G00X5.2341Y-3.6368
M15
G01X5.2325Y-3.6595
M16
G05
G00X6.5276Y-3.2857
M15
G01X6.48Y-3.3604
M16
G05
G00X6.7319Y-3.2617
M15
G01X6.7304Y-3.2845
M16
G05
G00X5.779Y-5.1612
M15
G01X5.7314Y-5.2359
M16
G05
G00X5.9834Y-5.1371
M15
G01X5.9818Y-5.1599
M16
G05
G00X4.2805Y-2.1604
M15
G01X4.2329Y-2.2351
M16
G05
G00X4.4848Y-2.1364
M15
G01X4.4833Y-2.1592
M16
G05
G00X4.2805Y-3.6608
M15
G01X4.2329Y-3.7355
M16
G05
G00X4.4848Y-3.6368
M15
G01X4.4833Y-3.6595
M16
G05
G00X5.779Y-2.9106
M15
G01X5.7314Y-2.9853
M16
G05
G00X5.9834Y-2.8866
M15
G01X5.9818Y-2.9094
M16
G05
G00X5.779Y-2.1604
M15
G01X5.7314Y-2.2351
M16
G05
G00X5.9834Y-2.1364
M15
G01X5.9818Y-2.1592
M16
G05
G00X5.779Y-4.411
M15
G01X5.7314Y-4.4857
M16
G05
G00X5.9834Y-4.3869
M15
G01X5.9818Y-4.4097
M16
G05
G00X6.5276Y-4.7861
M15
G01X6.48Y-4.8608
M16
G05
G00X6.7319Y-4.762
M15
G01X6.7304Y-4.7848
M16
G05
G00X4.6551Y-5.1612
M15
G01X4.6075Y-5.2359
M16
G05
G00X4.8595Y-5.1371
M15
G01X4.8579Y-5.1599
M16
G05
G00X5.0298Y-4.411
M15
G01X4.9822Y-4.4857
M16
G05
G00X5.2341Y-4.3869
M15
G01X5.2325Y-4.4097
M16
G05
G00X5.0298Y-2.1604
M15
G01X4.9822Y-2.2351
M16
G05
G00X5.2341Y-2.1364
M15
G01X5.2325Y-2.1592
M16
G05
T0
M30
