M48
; DRILL file {KiCad (5.1.5)-3} date 6/24/2020 2:41:55 PM
; FORMAT={-:-/ absolute / inch / decimal}
; #@! TF.CreationDate,2020-06-24T14:41:55-07:00
; #@! TF.GenerationSoftware,Kicad,Pcbnew,(5.1.5)-3
; #@! TF.FileFunction,NonPlated,1,2,NPTH
FMAT,2
INCH
T1C0.0670
T2C0.0984
T3C0.1570
%
G90
G05
T1
X4.5848Y-3.0866
X6.4319Y-3.4616
X6.8319Y-3.4616
X5.6834Y-5.3371
X6.0834Y-5.3371
X4.1848Y-2.3364
X4.5848Y-2.3364
X4.1848Y-3.8367
X4.5848Y-3.8367
X5.6834Y-3.0866
X6.0834Y-3.0866
X5.6834Y-2.3364
X6.0834Y-2.3364
X5.6834Y-4.5869
X6.0834Y-4.5869
X6.4319Y-4.962
X6.8319Y-4.962
X4.5595Y-5.3371
X4.9595Y-5.3371
X4.9341Y-4.5869
X5.3341Y-4.5869
X4.9341Y-2.3364
X5.3341Y-2.3364
X4.1848Y-3.0866
X4.1848Y-4.5869
X4.5848Y-4.5869
X6.4319Y-2.3364
X6.8319Y-2.3364
X5.6834Y-3.8367
X6.0834Y-3.8367
X4.9341Y-3.0866
X5.3341Y-3.0866
X4.9341Y-3.8367
X5.3341Y-3.8367
T2
X6.9524Y-5.95
X4.075Y-5.95
X4.07Y-1.15
X6.9524Y-1.15
T3
X5.8834Y-3.0866
X5.8834Y-2.3364
X5.8834Y-4.5869
X6.6319Y-4.962
X4.7595Y-5.3371
X5.1341Y-4.5869
X5.1341Y-2.3364
X4.3848Y-3.0866
X4.3848Y-4.5869
X6.6319Y-2.3364
X5.8834Y-3.8367
X5.1341Y-3.0866
X5.1341Y-3.8367
X6.6319Y-3.4616
X5.8834Y-5.3371
X4.3848Y-2.3364
X4.3848Y-3.8367
T0
M30
